<?xml version="1.0" encoding="UTF-8"?>
<svg xmlns="http://www.w3.org/2000/svg" xmlns:xlink="http://www.w3.org/1999/xlink" viewBox="0 0 1920 3240">
  <defs>
    <style>
      .cls-1, .cls-2 {
        fill: #ebcc8e;
      }

      .cls-3, .cls-4, .cls-5, .cls-6, .cls-7 {
        fill: none;
      }

      .cls-8 {
        fill: #260d19;
      }

      .cls-9 {
        fill: #8b8279;
      }

      .cls-10 {
        fill: #f7e8ef;
      }

      .cls-11 {
        fill: #999;
      }

      .cls-11, .cls-12 {
        font-family: WorkSans-Thin, 'Work Sans';
        font-size: 10px;
        font-weight: 200;
      }

      .cls-11, .cls-12, .cls-13, .cls-14 {
        isolation: isolate;
      }

      .cls-15 {
        fill: #35302c;
      }

      .cls-16 {
        fill: #1d1c16;
      }

      .cls-17 {
        fill: #ecc5d8;
      }

      .cls-18 {
        fill: #595546;
      }

      .cls-19 {
        fill: #888749;
      }

      .cls-20 {
        fill: #d99e2b;
      }

      .cls-21 {
        fill: #c1bdb8;
      }

      .cls-22, .cls-23, .cls-24, .cls-25 {
        fill: #b08d72;
      }

      .cls-22, .cls-26 {
        font-family: EBGaramond-Italic, 'EB Garamond';
        font-style: italic;
      }

      .cls-22, .cls-27 {
        font-size: 46.76px;
      }

      .cls-28 {
        fill: #2d2006;
      }

      .cls-12, .cls-14 {
        fill: #333;
      }

      .cls-23 {
        font-size: 19.23px;
      }

      .cls-23, .cls-29 {
        font-family: WorkSans-Regular, 'Work Sans';
      }

      .cls-30 {
        fill: #a8a65c;
      }

      .cls-31 {
        fill: url(#radial-gradient);
      }

      .cls-32 {
        fill: #bcba81;
      }

      .cls-33 {
        fill: url(#linear-gradient);
      }

      .cls-24 {
        font-size: 36px;
      }

      .cls-24, .cls-27, .cls-34, .cls-35 {
        font-family: EBGaramond-Regular, 'EB Garamond';
      }

      .cls-36 {
        fill: #e7e6cb;
      }

      .cls-37 {
        fill: #232210;
      }

      .cls-38 {
        fill: #75715c;
      }

      .cls-4 {
        stroke: #b08d72;
      }

      .cls-4, .cls-5, .cls-6, .cls-7 {
        stroke-miterlimit: 10;
      }

      .cls-4, .cls-7 {
        stroke-width: 2px;
      }

      .cls-39 {
        fill: #d1d0a8;
      }

      .cls-40 {
        fill: #383529;
      }

      .cls-41 {
        fill: #42411f;
      }

      .cls-42 {
        fill: #c9739c;
      }

      .cls-43 {
        fill: #f1f0ee;
      }

      .cls-26, .cls-34 {
        font-size: 190.85px;
      }

      .cls-26, .cls-44 {
        fill: #866118;
      }

      .cls-45 {
        letter-spacing: .15em;
      }

      .cls-46 {
        letter-spacing: .15em;
      }

      .cls-47 {
        letter-spacing: .16em;
      }

      .cls-48 {
        letter-spacing: .17em;
      }

      .cls-49 {
        letter-spacing: .17em;
      }

      .cls-50 {
        letter-spacing: .18em;
      }

      .cls-51 {
        letter-spacing: .18em;
      }

      .cls-52 {
        letter-spacing: .17em;
      }

      .cls-53 {
        letter-spacing: .14em;
      }

      .cls-54 {
        letter-spacing: .14em;
      }

      .cls-55 {
        letter-spacing: .16em;
      }

      .cls-56 {
        letter-spacing: .16em;
      }

      .cls-57 {
        fill: #706961;
      }

      .cls-58 {
        clip-path: url(#clippath-1);
      }

      .cls-59 {
        letter-spacing: 0em;
      }

      .cls-27, .cls-29, .cls-60 {
        fill: #faf7f2;
      }

      .cls-61 {
        fill: #b94b7f;
      }

      .cls-62 {
        fill: #deddd3;
      }

      .cls-63 {
        fill: #676637;
      }

      .cls-64 {
        fill: #6a89a9;
      }

      .cls-65 {
        fill: #c5c2b5;
      }

      .cls-66 {
        letter-spacing: 0em;
      }

      .cls-67 {
        fill: #554f4a;
      }

      .cls-68 {
        fill: #fbf3e4;
      }

      .cls-14 {
        font-family: WorkSans-Bold, 'Work Sans';
        font-size: 11px;
        font-weight: 700;
      }

      .cls-69 {
        fill: #f5f5ea;
      }

      .cls-29 {
        font-size: 10.96px;
      }

      .cls-70 {
        letter-spacing: 0em;
      }

      .cls-71 {
        letter-spacing: 0em;
      }

      .cls-72 {
        fill: #da9fbb;
      }

      .cls-73 {
        fill: #e2b45b;
      }

      .cls-25, .cls-2, .cls-74, .cls-60 {
        font-family: PlayfairDisplay-Regular, 'Playfair Display';
      }

      .cls-25, .cls-60 {
        font-size: 34.36px;
      }

      .cls-75 {
        fill: #91a7bf;
      }

      .cls-76 {
        fill: #506d8b;
      }

      .cls-77 {
        mix-blend-mode: difference;
        opacity: .5;
      }

      .cls-2, .cls-74 {
        font-size: 32.4px;
      }

      .cls-78, .cls-34, .cls-74, .cls-35 {
        fill: #1c1a17;
      }

      .cls-5 {
        stroke: #ebcc8e;
      }

      .cls-5, .cls-6 {
        stroke-width: 3px;
      }

      .cls-79 {
        fill: #49182f;
      }

      .cls-80 {
        fill: #3e536a;
      }

      .cls-81 {
        letter-spacing: -.09em;
      }

      .cls-82 {
        fill: #f6e2bc;
      }

      .cls-83 {
        fill: #722c4d;
      }

      .cls-84 {
        letter-spacing: -.07em;
      }

      .cls-85 {
        letter-spacing: -.07em;
      }

      .cls-86 {
        letter-spacing: -.07em;
      }

      .cls-87 {
        letter-spacing: -.06em;
      }

      .cls-88 {
        letter-spacing: -.06em;
      }

      .cls-89 {
        letter-spacing: -.15em;
      }

      .cls-90 {
        letter-spacing: -.02em;
      }

      .cls-91 {
        letter-spacing: -.03em;
      }

      .cls-92 {
        letter-spacing: -.03em;
      }

      .cls-93 {
        letter-spacing: -.03em;
      }

      .cls-94 {
        letter-spacing: -.03em;
      }

      .cls-95 {
        letter-spacing: -.02em;
      }

      .cls-96 {
        letter-spacing: -.02em;
      }

      .cls-97 {
        letter-spacing: -.02em;
      }

      .cls-98 {
        letter-spacing: -.02em;
      }

      .cls-99 {
        letter-spacing: -.02em;
      }

      .cls-100 {
        letter-spacing: -.02em;
      }

      .cls-101 {
        letter-spacing: -.01em;
      }

      .cls-102 {
        letter-spacing: -.02em;
      }

      .cls-103 {
        letter-spacing: -.02em;
      }

      .cls-104 {
        letter-spacing: -.01em;
      }

      .cls-105 {
        fill: #131c25;
      }

      .cls-106 {
        letter-spacing: -.05em;
      }

      .cls-107 {
        letter-spacing: -.05em;
      }

      .cls-108 {
        letter-spacing: -.05em;
      }

      .cls-109 {
        letter-spacing: -.05em;
      }

      .cls-110 {
        letter-spacing: -.05em;
      }

      .cls-111 {
        letter-spacing: -.05em;
      }

      .cls-112 {
        letter-spacing: -.04em;
      }

      .cls-113 {
        fill: #f2f1ed;
      }

      .cls-114 {
        fill: #a59e97;
      }

      .cls-115 {
        letter-spacing: -.03em;
      }

      .cls-116 {
        letter-spacing: -.03em;
      }

      .cls-117 {
        letter-spacing: -.03em;
      }

      .cls-118 {
        letter-spacing: -.03em;
      }

      .cls-119 {
        letter-spacing: 0em;
      }

      .cls-120 {
        letter-spacing: 0em;
      }

      .cls-6 {
        stroke: #554f4a;
      }

      .cls-121 {
        letter-spacing: -.01em;
      }

      .cls-122 {
        letter-spacing: 0em;
      }

      .cls-123 {
        fill: #d0dbe7;
      }

      .cls-124 {
        letter-spacing: 0em;
      }

      .cls-125 {
        letter-spacing: 0em;
      }

      .cls-126 {
        fill: #2b3a4a;
      }

      .cls-127 {
        fill: #b1c4d7;
      }

      .cls-128 {
        letter-spacing: .09em;
      }

      .cls-129 {
        letter-spacing: .09em;
      }

      .cls-130 {
        letter-spacing: .1em;
      }

      .cls-131 {
        letter-spacing: .1em;
      }

      .cls-132 {
        letter-spacing: .1em;
      }

      .cls-133 {
        letter-spacing: .1em;
      }

      .cls-134 {
        fill: #973a66;
      }

      .cls-135 {
        letter-spacing: .1em;
      }

      .cls-136 {
        letter-spacing: .11em;
      }

      .cls-137 {
        letter-spacing: .08em;
      }

      .cls-138 {
        letter-spacing: .08em;
      }

      .cls-139 {
        letter-spacing: .08em;
      }

      .cls-140 {
        letter-spacing: .09em;
      }

      .cls-141 {
        letter-spacing: .09em;
      }

      .cls-142 {
        letter-spacing: .07em;
      }

      .cls-143 {
        letter-spacing: .08em;
      }

      .cls-7 {
        stroke: #1c1a17;
      }

      .cls-144 {
        letter-spacing: .03em;
      }

      .cls-145 {
        letter-spacing: .02em;
      }

      .cls-146 {
        clip-path: url(#clippath);
      }

      .cls-147 {
        fill: #dcd9d5;
      }

      .cls-148 {
        letter-spacing: .05em;
      }

      .cls-149 {
        fill: #aaa692;
      }

      .cls-150 {
        letter-spacing: .03em;
      }

      .cls-151 {
        fill: #030507;
      }

      .cls-152 {
        fill: #918c73;
      }

      .cls-35 {
        font-size: 94.03px;
      }

      .cls-153 {
        fill: #b18020;
      }

      .cls-154 {
        fill: #553c0c;
      }
    </style>
    <clipPath id="clippath">
      <rect class="cls-3" x="0" width="1920" height="3240"/>
    </clipPath>
    <clipPath id="clippath-1">
      <path class="cls-3" d="M765.85,3235.32V-2.46h377.2v3237.78c0,424.22,348.56,769.35,776.97,769.35s776.94-345.13,776.94-769.35-348.54-769.37-776.94-769.37c-142.04,0-279.84,38.45-399.75,109.77v-415.92c126.85-46.51,261.97-71.05,399.75-71.05,636.41,0,1154.14,514.35,1154.14,1146.57s-517.73,1146.55-1154.14,1146.55-1154.17-514.34-1154.17-1146.55ZM1920.02,1318.48c-135.74,0-269.27,14.38-399.75,42.2v387.93c129.46-34.94,263.17-52.93,399.75-52.93,844.64,0,1531.81,687.17,1531.81,1531.83s-687.17,1531.83-1531.81,1531.83S388.17,4072.17,388.17,3227.51V-2.46H10.97v3229.97c0,1052.63,856.39,1909.03,1909.05,1909.03s1909.01-856.39,1909.01-1909.03-856.39-1909.03-1909.01-1909.03ZM1920,2840.87c-220.44,0-399.15,178.71-399.15,399.15s178.71,399.15,399.15,399.15,399.15-178.71,399.15-399.15-178.71-399.15-399.15-399.15Z"/>
    </clipPath>
    <radialGradient id="radial-gradient" cx=".11" cy="1343.91" fx=".11" fy="1343.91" r=".11" gradientUnits="userSpaceOnUse">
      <stop offset="0" stop-color="#4b86a1"/>
      <stop offset="1" stop-color="#404361"/>
    </radialGradient>
    <linearGradient id="linear-gradient" x1="1112.15" y1="461.4" x2="1767.85" y2="1597.09" gradientUnits="userSpaceOnUse">
      <stop offset="0" stop-color="#2b3a4a"/>
      <stop offset="1" stop-color="#722c4d"/>
    </linearGradient>
  </defs>
  <g class="cls-13">
    <g id="Layer_1" data-name="Layer 1">
      <rect class="cls-43" x="0" width="1920" height="3240"/>
      <g class="cls-146">
        <g>
          <g>
            <path class="cls-113" d="M1920.02,4381.87c636.41,0,1154.14-514.34,1154.14-1146.55s-517.73-1146.57-1154.14-1146.57c-137.77,0-272.89,24.54-399.75,71.05v415.92c119.9-71.32,257.7-109.77,399.75-109.77,428.4,0,776.94,345.13,776.94,769.37s-348.54,769.35-776.94,769.35-776.97-345.13-776.97-769.35V-2.46h-377.2v3237.78c0,632.21,517.76,1146.55,1154.17,1146.55Z"/>
            <path class="cls-113" d="M1920.02,1318.48c-135.74,0-269.27,14.38-399.75,42.2v387.93c129.46-34.94,263.17-52.93,399.75-52.93,844.64,0,1531.81,687.17,1531.81,1531.83s-687.17,1531.83-1531.81,1531.83S388.17,4072.17,388.17,3227.51V-2.46H10.97v3229.97c0,1052.63,856.39,1909.03,1909.05,1909.03s1909.01-856.39,1909.01-1909.03-856.39-1909.03-1909.01-1909.03Z"/>
            <circle class="cls-113" cx="1920" cy="3240.02" r="399.15"/>
          </g>
          <g class="cls-77">
            <g class="cls-58">
              <image width="5659" height="8073" transform="translate(.26 -16.46) scale(.68 .64)" xlink:href="Scan-9.jpg"/>
            </g>
          </g>
        </g>
      </g>
    </g>
    <g id="Layer_2" data-name="Layer 2">
      <text class="cls-34" transform="translate(161.38 208.16)"><tspan class="cls-108" x="0" y="0">Brand B</tspan><tspan class="cls-86" x="532.66" y="0">o</tspan><tspan class="cls-107" x="613.78" y="0">ard &amp;</tspan></text>
      <text class="cls-26" transform="translate(901.13 407.47)"><tspan class="cls-108" x="0" y="0">Style Gu</tspan><tspan class="cls-86" x="531.9" y="0">i</tspan><tspan class="cls-108" x="574.65" y="0">de</tspan></text>
      <line class="cls-6" x1="169.98" y1="339.91" x2="879" y2="339.91"/>
      <polygon class="cls-31" points="0 1343.8 .23 1344.03 0 1344.03 0 1343.8"/>
      <rect class="cls-113" y="550.74" width="960" height="960"/>
      <g>
        <g>
          <g>
            <rect class="cls-126" x="307.46" y="922.89" width="160.43" height="11.94" rx="1.09" ry="1.09"/>
            <rect class="cls-126" x="532.34" y="922.89" width="305.93" height="11.94" rx="1.09" ry="1.09"/>
            <path class="cls-126" d="M332.53,907.12c13.82,0,25.07-11.25,25.07-25.07s-11.25-25.07-25.07-25.07c-4.67,0-9.17,1.29-13.13,3.75v-34.51c0-.6-.49-1.09-1.09-1.09h-9.77c-.6,0-1.09.49-1.09,1.09v55.83c0,13.82,11.25,25.07,25.07,25.07ZM319.4,882.05c0-7.24,5.89-13.13,13.13-13.13s13.13,5.89,13.13,13.13-5.89,13.13-13.13,13.13-13.13-5.89-13.13-13.13Z"/>
            <path class="cls-126" d="M387.9,907.12c13.82,0,25.07-11.25,25.07-25.07s-11.25-25.07-25.07-25.07-25.07,11.25-25.07,25.07,11.25,25.07,25.07,25.07ZM374.77,882.05c0-7.24,5.89-13.13,13.13-13.13s13.13,5.89,13.13,13.13-5.89,13.13-13.13,13.13-13.13-5.89-13.13-13.13Z"/>
            <path class="cls-126" d="M521.48,859.94h-9.77c-.6,0-1.09.49-1.09,1.09v23.19c0,6.04-4.92,10.96-10.96,10.96s-10.96-4.92-10.96-10.96v-23.19c0-.6-.49-1.09-1.09-1.09h-9.77c-.6,0-1.09.49-1.09,1.09v23.19c0,12.63,10.27,22.9,22.9,22.9,3.85,0,7.6-.96,10.96-2.8v1.15c0,4.09-1.26,17.42-17.47,17.42h-12.59c-.6,0-1.09.49-1.09,1.09v9.77c0,.6.49,1.09,1.09,1.09h12.59c20.32,0,29.41-14.75,29.41-29.36v-44.44c0-.6-.49-1.09-1.09-1.09Z"/>
            <path class="cls-126" d="M556.34,906.68c12.49,0,22.66-10.16,22.66-22.66s-10.16-22.66-22.66-22.66c-6.16,0-11.9,2.45-16.14,6.8v-40.93c0-.6-.49-1.09-1.09-1.09h-4.34c-.6,0-1.09.49-1.09,1.09v56.78c0,12.49,10.16,22.66,22.66,22.66ZM540.2,884.02c0-8.9,7.24-16.14,16.14-16.14s16.14,7.24,16.14,16.14-7.24,16.15-16.14,16.15-16.14-7.24-16.14-16.15Z"/>
            <rect class="cls-126" x="637.06" y="826.15" width="6.51" height="80.43" rx="1.09" ry="1.09"/>
            <path class="cls-126" d="M606.79,906.68c6.16,0,11.9-2.45,16.14-6.8v5.62c0,.6.49,1.09,1.09,1.09h4.34c.6,0,1.09-.49,1.09-1.09v-21.47c0-12.49-10.16-22.66-22.66-22.66s-22.66,10.16-22.66,22.66,10.16,22.66,22.66,22.66ZM590.64,884.02c0-8.9,7.24-16.14,16.15-16.14s16.14,7.24,16.14,16.14-7.24,16.15-16.14,16.15-16.15-7.24-16.15-16.15Z"/>
            <path class="cls-126" d="M672.99,906.68c6.16,0,11.9-2.45,16.14-6.8v5.62c0,.6.49,1.09,1.09,1.09h4.34c.6,0,1.09-.49,1.09-1.09v-21.47c0-12.49-10.16-22.66-22.66-22.66s-22.66,10.16-22.66,22.66,10.16,22.66,22.66,22.66ZM656.85,884.02c0-8.9,7.24-16.14,16.14-16.14s16.14,7.24,16.14,16.14-7.24,16.15-16.14,16.15-16.14-7.24-16.14-16.15Z"/>
            <path class="cls-126" d="M772.6,906.68c6.05,0,11.74-2.36,16.02-6.64.42-.42.42-1.11,0-1.53l-3.07-3.07c-.2-.2-.48-.32-.77-.32s-.56.11-.77.32c-6.29,6.29-16.54,6.29-22.83,0-6.29-6.29-6.29-16.54,0-22.83,3.05-3.05,7.1-4.73,11.41-4.73s8.37,1.68,11.41,4.73c.43.43,1.11.43,1.54,0l3.07-3.07c.42-.42.42-1.11,0-1.53-4.28-4.28-9.97-6.64-16.02-6.64s-11.74,2.36-16.02,6.64c-8.83,8.83-8.83,23.21,0,32.04,4.28,4.28,9.97,6.64,16.02,6.64Z"/>
            <path class="cls-126" d="M704.76,906.58h4.34c.6,0,1.09-.49,1.09-1.09v-24.01c0-7.5,6.1-13.61,13.61-13.61s13.61,6.1,13.61,13.61v24.01c0,.6.49,1.09,1.09,1.09h4.34c.6,0,1.09-.49,1.09-1.09v-24.01c0-11.09-9.03-20.12-20.12-20.12s-20.12,9.03-20.12,20.12v24.01c0,.6.49,1.09,1.09,1.09Z"/>
            <path class="cls-126" d="M467.27,825.13h-9.77c-.6,0-1.09.49-1.09,1.09v34.51c-3.96-2.46-8.46-3.75-13.13-3.75-13.82,0-25.07,11.25-25.07,25.07s11.25,25.07,25.07,25.07,25.07-11.25,25.07-25.07v-55.83c0-.6-.49-1.09-1.09-1.09ZM443.28,868.92c7.24,0,13.13,5.89,13.13,13.13s-5.89,13.13-13.13,13.13-13.13-5.89-13.13-13.13,5.89-13.13,13.13-13.13Z"/>
            <path class="cls-126" d="M815.1,861.37s-.04,0-.05,0c-12.96.57-22.01,10.12-22.01,23.22s11.7,22.09,22.54,22.09c11.7,0,18.66-6.65,21.07-12.35.14-.34.11-.72-.09-1.02-.2-.3-.54-.49-.91-.49h-4.92c-.37,0-.72.19-.92.51-1.29,2.06-5.26,6.84-14.24,6.84-6.13,0-14.85-4.23-15.92-13.61h37.52c.6,0,1.09-.49,1.09-1.09v-2.17c0-12.3-10.18-21.93-23.17-21.93ZM831.41,880.04h-31.34c1.69-7.2,7.39-11.82,15.13-12.16,8.02,0,14.64,5.04,16.21,12.16Z"/>
          </g>
          <g>
            <path class="cls-126" d="M718.12,956.71h-14.15c-.26,0-.47.09-.65.27s-.27.4-.27.65v19.87c0,.26.09.47.27.65s.39.27.65.27h14.15c.26,0,.48-.09.65-.27s.27-.39.27-.65v-1.9c0-.26-.09-.47-.27-.65s-.4-.27-.65-.27h-9.99c-.26,0-.48-.09-.65-.27s-.27-.4-.27-.65v-3.26c0-.26.09-.47.27-.65s.4-.27.65-.27h8.66c.26,0,.48-.09.65-.27s.27-.4.27-.65v-1.93c0-.26-.09-.47-.27-.65s-.4-.27-.65-.27h-8.66c-.26,0-.48-.09-.65-.27-.18-.18-.27-.4-.27-.65v-3.59c0-.26.09-.47.27-.65s.4-.27.65-.27h9.99c.26,0,.48-.09.65-.27s.27-.4.27-.65v-1.84c0-.26-.09-.48-.27-.65s-.4-.27-.65-.27Z"/>
            <path class="cls-126" d="M744.25,959.43c-2-1.82-4.55-2.73-7.65-2.73h-7.65c-.26,0-.47.09-.64.27s-.25.4-.25.65v19.87c0,.26.08.47.25.65s.38.27.64.27h7.65c1.52,0,2.94-.23,4.24-.68,1.27-.43,2.4-1.11,3.41-2.02,1.09-.99,1.89-2.16,2.4-3.53.28-.69.49-1.42.62-2.18.14-.76.21-1.58.21-2.45,0-1.64-.28-3.18-.83-4.63-.53-1.34-1.33-2.51-2.4-3.5ZM742.71,971.24c-.43.95-.97,1.67-1.6,2.16-.65.53-1.36.89-2.14,1.07-.81.18-1.59.27-2.34.27h-3.53c-.26,0-.47-.09-.64-.27-.17-.18-.25-.4-.25-.65v-12.46c0-.26.08-.47.25-.65.17-.18.38-.27.64-.27h3.53c.73,0,1.5.09,2.31.27.79.18,1.51.52,2.17,1.04.63.49,1.17,1.22,1.6,2.16.42.95.62,2.18.62,3.68s-.21,2.74-.62,3.65Z"/>
            <path class="cls-126" d="M758.46,956.73h-2.34c-.26,0-.47.09-.64.27s-.25.4-.25.65v19.84c0,.26.08.47.25.65s.38.27.64.27h2.34c.26,0,.47-.09.65-.27.18-.18.27-.39.27-.65v-19.84c0-.26-.09-.47-.27-.65-.18-.18-.4-.27-.65-.27Z"/>
            <path class="cls-126" d="M773.32,962.43c.61-.67,1.35-1.22,2.23-1.63.89-.39,1.82-.59,2.79-.59.61,0,1.21.09,1.78.27.28.1.55.21.83.33.28.12.55.26.8.42s.5.33.73.5c.23.18.45.38.67.59.1.1.2.2.3.31.1.11.2.21.3.31.16.2.37.33.64.4s.51.05.73-.04l2.2-.89c.24-.1.4-.25.47-.46.08-.21.05-.42-.09-.64-.36-.53-.78-1.06-1.27-1.57-.34-.34-.7-.66-1.08-.96-.39-.31-.8-.59-1.23-.85-.83-.49-1.74-.88-2.73-1.16-1.01-.28-2.02-.42-3.03-.42-1.54,0-2.99.3-4.36.89-1.35.59-2.54,1.39-3.59,2.4-1.01,1.05-1.81,2.24-2.4,3.59-.59,1.36-.89,2.82-.89,4.36s.3,3,.89,4.36c.59,1.36,1.39,2.55,2.4,3.56,1.03,1.03,2.23,1.84,3.59,2.43s2.82.89,4.36.89c1.01,0,2.02-.14,3.03-.42.49-.14.97-.31,1.42-.5.45-.2.89-.42,1.31-.68.89-.51,1.66-1.12,2.31-1.81.24-.24.46-.49.67-.76.21-.27.41-.54.61-.82.14-.22.17-.43.09-.65-.08-.22-.24-.38-.47-.47l-2.2-.89c-.22-.1-.46-.11-.73-.03s-.48.22-.64.42c-.1.1-.2.2-.3.31s-.2.21-.3.31c-.22.22-.44.42-.67.61-.23.19-.47.36-.73.52s-.52.3-.8.42c-.28.12-.55.23-.83.33-.57.18-1.17.27-1.78.27-1.01,0-1.94-.21-2.79-.62-.87-.38-1.61-.91-2.23-1.6-.63-.69-1.14-1.47-1.51-2.34-.38-.87-.57-1.81-.57-2.82s.19-1.93.57-2.82c.38-.87.88-1.65,1.51-2.34Z"/>
            <path class="cls-126" d="M838.28,975.01c-.18-.18-.39-.27-.65-.27h-9.64c-.26,0-.47-.09-.65-.27-.18-.18-.27-.4-.27-.65v-16.2c0-.26-.09-.48-.26-.65-.18-.18-.4-.27-.65-.27h-2.31c-.26,0-.47.09-.65.27-.18.18-.26.4-.26.65v19.87c0,.26.09.47.26.65.18.18.4.27.65.27h13.79c.26,0,.47-.09.65-.27.18-.18.27-.39.27-.65v-1.84c0-.26-.09-.47-.27-.65Z"/>
            <path class="cls-126" d="M811.68,958.84c-.77-.77-1.75-1.38-2.93-1.84-1.11-.44-2.38-.65-3.83-.65s-2.73.22-3.86.65c-1.17.45-2.15,1.07-2.94,1.84-.81.81-1.43,1.77-1.87,2.88-.22.57-.38,1.17-.49,1.8-.11.62-.16,1.28-.16,1.97v12.01c0,.26.09.47.26.65.18.18.4.27.65.27h2.31c.26,0,.47-.09.65-.27.18-.18.26-.4.26-.65v-4.98c0-.54.42-.92.92-.92h8.49c.46,0,.92.43.92.92v4.98c0,.26.09.47.26.65.18.18.4.27.65.27h2.34c.24,0,.44-.09.62-.27.18-.18.26-.4.26-.65v-12.01c0-1.4-.22-2.66-.65-3.77-.44-1.13-1.07-2.09-1.9-2.88ZM809.16,967.92h-8.49c-.46,0-.92-.46-.92-.92v-1.49c0-1.09.18-1.99.53-2.7.36-.71.8-1.28,1.33-1.69.52-.44,1.08-.72,1.69-.86.63-.16,1.17-.24,1.6-.24.24,0,.49.02.76.06s.56.1.88.18c.57.14,1.14.42,1.69.86.51.43.95,1,1.3,1.69.36.71.53,1.61.53,2.7v1.49c0,.46-.4.92-.92.92Z"/>
            <path class="cls-126" d="M691.85,958.84c-.77-.77-1.75-1.38-2.94-1.84-1.11-.44-2.38-.65-3.83-.65s-2.73.22-3.86.65c-1.17.45-2.15,1.07-2.94,1.84-.16.16-.28.35-.42.52-.15-.17-.27-.36-.43-.52-.77-.77-1.75-1.38-2.94-1.84-1.11-.44-2.38-.65-3.83-.65s-2.73.22-3.86.65c-1.17.45-2.15,1.07-2.94,1.84-.81.81-1.43,1.77-1.87,2.88-.22.57-.38,1.17-.49,1.8-.11.62-.16,1.28-.16,1.97v12.01c0,.26.09.47.27.65s.4.27.65.27h2.31c.26,0,.47-.09.65-.27s.27-.4.27-.65v-11.98c0-1.09.18-1.99.53-2.7s.8-1.28,1.33-1.69c.51-.44,1.08-.72,1.69-.86.63-.16,1.17-.24,1.6-.24.24,0,.49.02.76.06.27.04.56.1.87.18.57.14,1.14.42,1.69.86.52.43.95,1,1.31,1.69.31.61.45,1.39.5,2.28,0,.13-.03.25-.03.39v12.01c0,.26.09.47.27.65.18.18.4.27.65.27h2.41c.24,0,.44-.09.62-.27s.27-.4.27-.65v-12.01c0-.14-.03-.25-.03-.39.04-.89.19-1.67.5-2.28.36-.71.8-1.28,1.33-1.69.51-.44,1.08-.72,1.69-.86.63-.16,1.17-.24,1.6-.24.24,0,.49.02.76.06.27.04.56.1.87.18.57.14,1.14.42,1.69.86.52.43.95,1,1.31,1.69.36.71.53,1.61.53,2.7v11.98c0,.26.09.47.27.65s.4.27.65.27h2.34c.24,0,.44-.09.62-.27s.27-.4.27-.65v-12.01c0-1.4-.22-2.66-.65-3.77-.44-1.13-1.07-2.09-1.9-2.88Z"/>
          </g>
        </g>
        <g>
          <g>
            <path class="cls-126" d="M197.94,948.6c25.5,0,46.24-20.61,46.24-45.94s-20.74-45.94-46.24-45.94c-5.52,0-10.93.98-16.02,2.85v16.66c4.8-2.86,10.32-4.4,16.02-4.4,17.16,0,31.13,13.83,31.13,30.82s-13.96,30.82-31.13,30.82-31.13-13.83-31.13-30.82v-129.72h-15.11v129.72c0,25.33,20.74,45.94,46.24,45.94Z"/>
            <path class="cls-126" d="M197.94,825.86c-5.44,0-10.79.58-16.02,1.69v15.54c5.19-1.4,10.54-2.12,16.02-2.12,33.84,0,61.37,27.53,61.37,61.37s-27.53,61.37-61.37,61.37-61.37-27.53-61.37-61.37v-129.41h-15.11v129.41c0,42.17,34.31,76.48,76.48,76.48s76.48-34.31,76.48-76.48-34.31-76.48-76.48-76.48Z"/>
          </g>
          <circle class="cls-126" cx="197.94" cy="902.85" r="15.99"/>
        </g>
      </g>
      <g>
        <g>
          <g>
            <path class="cls-126" d="M480.6,1251.87c25.43,0,46.12-20.56,46.12-45.82s-20.69-45.82-46.12-45.82c-5.51,0-10.91.98-15.98,2.84v16.62c4.79-2.85,10.3-4.39,15.98-4.39,17.12,0,31.05,13.79,31.05,30.75s-13.93,30.75-31.05,30.75-31.05-13.79-31.05-30.75v-129.4h-15.07v129.4c0,25.27,20.69,45.82,46.13,45.82Z"/>
            <path class="cls-126" d="M480.6,1129.44c-5.42,0-10.76.57-15.98,1.69v15.5c5.17-1.4,10.52-2.12,15.98-2.12,33.76,0,61.22,27.46,61.22,61.22s-27.46,61.22-61.22,61.22-61.22-27.46-61.22-61.22v-129.08h-15.07v129.08c0,42.07,34.23,76.29,76.29,76.29s76.29-34.23,76.29-76.29-34.23-76.29-76.29-76.29Z"/>
          </g>
          <g>
            <rect class="cls-126" x="288.83" y="1371.13" width="115.56" height="8.6" rx=".78" ry=".78"/>
            <rect class="cls-126" x="450.81" y="1371.13" width="220.36" height="8.6" rx=".78" ry=".78"/>
            <path class="cls-126" d="M306.89,1359.77c9.96,0,18.06-8.1,18.06-18.06s-8.1-18.06-18.06-18.06c-3.36,0-6.6.93-9.46,2.7v-24.86c0-.43-.35-.78-.78-.78h-7.04c-.43,0-.78.35-.78.78v40.22c0,9.96,8.1,18.06,18.06,18.06ZM297.43,1341.71c0-5.21,4.24-9.46,9.46-9.46s9.46,4.24,9.46,9.46-4.24,9.46-9.46,9.46-9.46-4.24-9.46-9.46Z"/>
            <path class="cls-126" d="M346.77,1359.77c9.96,0,18.06-8.1,18.06-18.06s-8.1-18.06-18.06-18.06-18.06,8.1-18.06,18.06,8.1,18.06,18.06,18.06ZM337.32,1341.71c0-5.21,4.24-9.46,9.46-9.46s9.46,4.24,9.46,9.46-4.24,9.46-9.46,9.46-9.46-4.24-9.46-9.46Z"/>
            <path class="cls-126" d="M442.99,1325.79h-7.04c-.43,0-.78.35-.78.78v16.71c0,4.35-3.54,7.89-7.89,7.89s-7.89-3.54-7.89-7.89v-16.71c0-.43-.35-.78-.78-.78h-7.04c-.43,0-.78.35-.78.78v16.71c0,9.1,7.4,16.49,16.49,16.49,2.77,0,5.47-.69,7.89-2.02v.83c0,2.94-.91,12.55-12.58,12.55h-9.07c-.43,0-.78.35-.78.78v7.04c0,.43.35.78.78.78h9.07c14.64,0,21.19-10.62,21.19-21.15v-32.01c0-.43-.35-.78-.78-.78Z"/>
            <path class="cls-126" d="M468.1,1359.45c9,0,16.32-7.32,16.32-16.32s-7.32-16.32-16.32-16.32c-4.44,0-8.57,1.76-11.63,4.9v-29.48c0-.43-.35-.78-.78-.78h-3.13c-.43,0-.78.35-.78.78v40.9c0,9,7.32,16.32,16.32,16.32ZM456.47,1343.13c0-6.41,5.22-11.63,11.63-11.63s11.63,5.22,11.63,11.63-5.22,11.63-11.63,11.63-11.63-5.22-11.63-11.63Z"/>
            <rect class="cls-126" x="526.24" y="1301.45" width="4.69" height="57.93" rx=".78" ry=".78"/>
            <path class="cls-126" d="M504.43,1359.45c4.44,0,8.57-1.76,11.63-4.9v4.05c0,.43.35.78.78.78h3.13c.43,0,.78-.35.78-.78v-15.47c0-9-7.32-16.32-16.32-16.32s-16.32,7.32-16.32,16.32,7.32,16.32,16.32,16.32ZM492.8,1343.13c0-6.41,5.22-11.63,11.63-11.63s11.63,5.22,11.63,11.63-5.22,11.63-11.63,11.63-11.63-5.22-11.63-11.63Z"/>
            <path class="cls-126" d="M552.12,1359.45c4.44,0,8.57-1.76,11.63-4.9v4.05c0,.43.35.78.78.78h3.13c.43,0,.78-.35.78-.78v-15.47c0-9-7.32-16.32-16.32-16.32s-16.32,7.32-16.32,16.32,7.32,16.32,16.32,16.32ZM540.49,1343.13c0-6.41,5.22-11.63,11.63-11.63s11.63,5.22,11.63,11.63-5.22,11.63-11.63,11.63-11.63-5.22-11.63-11.63Z"/>
            <path class="cls-126" d="M623.87,1359.45c4.36,0,8.46-1.7,11.54-4.78.3-.31.3-.8,0-1.11l-2.21-2.21c-.15-.15-.35-.23-.55-.23s-.41.08-.55.23c-4.53,4.53-11.91,4.53-16.44,0-4.53-4.53-4.53-11.91,0-16.45,2.19-2.2,5.12-3.41,8.22-3.41s6.03,1.21,8.22,3.41c.31.31.8.31,1.11,0l2.21-2.21c.3-.31.3-.8,0-1.11-3.08-3.08-7.18-4.78-11.54-4.78s-8.46,1.7-11.54,4.78c-6.36,6.36-6.36,16.72,0,23.08,3.08,3.08,7.18,4.78,11.54,4.78Z"/>
            <path class="cls-126" d="M575,1359.38h3.13c.43,0,.78-.35.78-.78v-17.3c0-5.4,4.4-9.8,9.8-9.8s9.8,4.4,9.8,9.8v17.3c0,.43.35.78.78.78h3.13c.43,0,.78-.35.78-.78v-17.3c0-7.99-6.5-14.49-14.49-14.49s-14.49,6.5-14.49,14.49v17.3c0,.43.35.78.78.78Z"/>
            <path class="cls-126" d="M403.94,1300.71h-7.04c-.43,0-.78.35-.78.78v24.86c-2.85-1.77-6.09-2.7-9.46-2.7-9.96,0-18.06,8.1-18.06,18.06s8.1,18.06,18.06,18.06,18.06-8.1,18.06-18.06v-40.22c0-.43-.35-.78-.78-.78ZM386.66,1332.25c5.21,0,9.46,4.24,9.46,9.46s-4.24,9.46-9.46,9.46-9.46-4.24-9.46-9.46,4.24-9.46,9.46-9.46Z"/>
            <path class="cls-126" d="M654.48,1326.82s-.03,0-.04,0c-9.33.41-15.85,7.29-15.85,16.72s8.43,15.91,16.24,15.91c8.43,0,13.44-4.79,15.18-8.9.1-.24.08-.52-.07-.74-.15-.22-.39-.35-.65-.35h-3.54c-.27,0-.52.14-.66.37-.93,1.48-3.79,4.93-10.25,4.93-4.41,0-10.7-3.05-11.47-9.8h27.02c.43,0,.78-.35.78-.78v-1.56c0-8.86-7.33-15.79-16.69-15.79ZM666.23,1340.26h-22.57c1.22-5.18,5.33-8.51,10.9-8.76,5.78,0,10.54,3.63,11.68,8.76Z"/>
          </g>
          <g>
            <path class="cls-126" d="M456.7,1395.48h-10.19c-.19,0-.34.06-.47.19s-.19.29-.19.47v14.31c0,.19.06.34.19.47s.28.19.47.19h10.19c.19,0,.34-.06.47-.19s.19-.28.19-.47v-1.37c0-.18-.06-.34-.19-.47s-.29-.19-.47-.19h-7.2c-.19,0-.34-.06-.47-.19s-.19-.29-.19-.47v-2.35c0-.18.06-.34.19-.47s.29-.19.47-.19h6.24c.19,0,.34-.06.47-.19s.19-.29.19-.47v-1.39c0-.18-.06-.34-.19-.47s-.29-.19-.47-.19h-6.24c-.19,0-.34-.06-.47-.19-.13-.13-.19-.29-.19-.47v-2.59c0-.18.06-.34.19-.47s.29-.19.47-.19h7.2c.19,0,.34-.06.47-.19s.19-.29.19-.47v-1.32c0-.19-.06-.34-.19-.47s-.29-.19-.47-.19Z"/>
            <path class="cls-126" d="M475.52,1397.45c-1.44-1.31-3.28-1.97-5.51-1.97h-5.51c-.18,0-.34.06-.46.19s-.18.29-.18.47v14.31c0,.19.06.34.18.47s.27.19.46.19h5.51c1.1,0,2.11-.16,3.05-.49.91-.31,1.73-.8,2.46-1.45.78-.71,1.36-1.56,1.73-2.54.2-.5.35-1.02.45-1.57.1-.55.15-1.14.15-1.76,0-1.18-.2-2.29-.6-3.33-.38-.97-.96-1.81-1.73-2.52ZM474.41,1405.95c-.31.68-.7,1.2-1.15,1.56-.47.39-.98.64-1.54.77-.58.13-1.15.19-1.69.19h-2.54c-.18,0-.34-.06-.46-.19-.12-.13-.18-.29-.18-.47v-8.97c0-.18.06-.34.18-.47.12-.13.27-.19.46-.19h2.54c.53,0,1.08.06,1.67.19.57.13,1.09.38,1.56.75.45.36.84.88,1.15,1.56.3.68.45,1.57.45,2.65s-.15,1.97-.45,2.63Z"/>
            <path class="cls-126" d="M485.75,1395.51h-1.69c-.18,0-.34.06-.46.19s-.18.29-.18.47v14.29c0,.19.06.34.18.47s.27.19.46.19h1.69c.18,0,.34-.06.47-.19.13-.13.19-.28.19-.47v-14.29c0-.18-.07-.34-.19-.47-.13-.13-.29-.19-.47-.19Z"/>
            <path class="cls-126" d="M496.46,1399.61c.44-.48.98-.88,1.6-1.18.64-.28,1.31-.43,2.01-.43.44,0,.87.06,1.28.19.2.07.4.15.6.23.2.09.39.19.58.3s.36.23.52.36c.16.13.32.27.48.43.07.07.14.15.21.22.07.08.14.15.21.22.11.14.27.24.46.29s.37.04.52-.03l1.58-.64c.17-.07.29-.18.34-.33.06-.15.04-.3-.06-.46-.26-.38-.56-.76-.92-1.13-.24-.24-.5-.47-.78-.69-.28-.22-.57-.42-.89-.61-.6-.36-1.25-.63-1.97-.83-.73-.2-1.45-.3-2.18-.3-1.11,0-2.16.21-3.14.64-.97.43-1.83,1-2.59,1.73-.73.76-1.3,1.62-1.73,2.59-.43.98-.64,2.03-.64,3.14s.21,2.16.64,3.14c.43.98,1,1.84,1.73,2.56.74.74,1.6,1.32,2.59,1.75.98.43,2.03.64,3.14.64.73,0,1.45-.1,2.18-.3.36-.1.7-.22,1.02-.36.33-.14.64-.31.94-.49.64-.37,1.2-.8,1.67-1.3.17-.17.33-.35.48-.54.15-.19.29-.39.44-.59.1-.16.12-.31.06-.47-.06-.16-.17-.27-.34-.34l-1.58-.64c-.16-.07-.33-.08-.52-.02s-.35.16-.46.3c-.07.07-.14.15-.21.22s-.14.15-.21.22c-.16.16-.32.3-.48.44-.16.14-.34.26-.52.37s-.38.21-.58.3c-.2.09-.4.16-.6.24-.41.13-.84.19-1.28.19-.73,0-1.4-.15-2.01-.45-.63-.27-1.16-.66-1.6-1.15-.45-.5-.82-1.06-1.09-1.69-.27-.63-.41-1.3-.41-2.03s.14-1.39.41-2.03c.27-.63.63-1.19,1.09-1.69Z"/>
            <path class="cls-126" d="M543.24,1408.67c-.13-.13-.28-.19-.47-.19h-6.94c-.18,0-.34-.06-.47-.19-.13-.13-.19-.29-.19-.47v-11.67c0-.19-.06-.34-.19-.47-.13-.13-.29-.19-.47-.19h-1.67c-.18,0-.34.06-.47.19-.13.13-.19.29-.19.47v14.31c0,.19.06.34.19.47.13.13.29.19.47.19h9.94c.18,0,.34-.06.47-.19.13-.13.19-.28.19-.47v-1.32c0-.18-.06-.34-.19-.47Z"/>
            <path class="cls-126" d="M524.08,1397.02c-.55-.56-1.26-1-2.11-1.32-.8-.31-1.72-.47-2.76-.47s-1.97.16-2.78.47c-.84.33-1.55.77-2.12,1.32-.58.58-1.03,1.28-1.35,2.07-.16.41-.27.84-.35,1.29-.08.45-.12.92-.12,1.42v8.65c0,.18.06.34.19.47.13.13.29.19.47.19h1.67c.18,0,.34-.06.47-.19.13-.13.19-.29.19-.47v-3.59c0-.39.3-.66.66-.66h6.11c.33,0,.66.31.66.66v3.59c0,.18.06.34.19.47.13.13.29.19.47.19h1.69c.17,0,.32-.06.45-.19.13-.13.19-.29.19-.47v-8.65c0-1.01-.15-1.92-.47-2.71-.31-.81-.77-1.5-1.37-2.07ZM522.27,1403.56h-6.11c-.33,0-.66-.33-.66-.66v-1.07c0-.78.13-1.43.39-1.94.26-.51.58-.92.96-1.22.37-.31.78-.52,1.22-.62.46-.11.84-.17,1.15-.17.17,0,.35.01.54.04s.4.07.63.13c.41.1.82.31,1.22.62.37.31.68.72.94,1.22.26.51.39,1.16.39,1.94v1.07c0,.33-.29.66-.66.66Z"/>
            <path class="cls-126" d="M437.77,1397.02c-.56-.56-1.26-1-2.12-1.32-.8-.31-1.72-.47-2.76-.47s-1.97.16-2.78.47c-.84.33-1.55.77-2.11,1.32-.11.11-.2.25-.3.37-.11-.12-.19-.26-.31-.37-.56-.56-1.26-1-2.12-1.32-.8-.31-1.72-.47-2.76-.47s-1.97.16-2.78.47c-.84.33-1.55.77-2.11,1.32-.58.58-1.03,1.28-1.35,2.07-.16.41-.27.84-.35,1.29-.08.45-.12.92-.12,1.42v8.65c0,.18.06.34.19.47s.29.19.47.19h1.67c.18,0,.34-.06.47-.19s.19-.29.19-.47v-8.63c0-.78.13-1.43.38-1.94s.58-.92.96-1.22c.37-.31.78-.52,1.22-.62.46-.11.84-.17,1.15-.17.17,0,.35.01.55.04.19.03.4.07.63.13.41.1.82.31,1.22.62.37.31.68.72.94,1.22.22.44.33,1,.36,1.65,0,.1-.02.18-.02.28v8.65c0,.18.06.34.19.47s.29.19.47.19h1.74c.17,0,.32-.06.45-.19s.19-.29.19-.47v-8.65c0-.1-.02-.18-.02-.28.03-.64.14-1.2.36-1.64.26-.51.58-.92.96-1.22.37-.31.78-.52,1.22-.62.46-.11.84-.17,1.15-.17.17,0,.35.01.55.04.19.03.4.07.63.13.41.1.82.31,1.22.62.37.31.68.72.94,1.22.26.51.38,1.16.38,1.94v8.63c0,.18.06.34.19.47s.29.19.47.19h1.69c.17,0,.32-.06.45-.19s.19-.29.19-.47v-8.65c0-1.01-.16-1.92-.47-2.71-.31-.81-.77-1.5-1.37-2.07Z"/>
          </g>
        </g>
        <circle class="cls-126" cx="480.6" cy="1206.24" r="15.95"/>
      </g>
      <text class="cls-74" transform="translate(303.01 674.73)"><tspan class="cls-133" x="0" y="0">Lo</tspan><tspan class="cls-128" x="43.29" y="0">g</tspan><tspan class="cls-133" x="63.32" y="0">o, Ligh</tspan><tspan class="cls-139" x="184.99" y="0">t</tspan><tspan class="cls-131" x="199.15" y="0" xml:space="preserve"> Backg</tspan><tspan class="cls-138" x="313.66" y="0">r</tspan><tspan class="cls-133" x="330.67" y="0">ound</tspan></text>
      <line class="cls-7" x1="234.81" y1="663.62" x2="287.75" y2="663.62"/>
      <rect class="cls-33" x="960" y="549.24" width="960" height="960"/>
      <g>
        <g>
          <g>
            <rect class="cls-1" x="1267.46" y="922.89" width="160.43" height="11.94" rx="1.09" ry="1.09"/>
            <rect class="cls-1" x="1492.34" y="922.89" width="305.93" height="11.94" rx="1.09" ry="1.09"/>
            <path class="cls-1" d="M1292.53,907.12c13.82,0,25.07-11.25,25.07-25.07s-11.25-25.07-25.07-25.07c-4.67,0-9.17,1.29-13.13,3.75v-34.51c0-.6-.49-1.09-1.09-1.09h-9.77c-.6,0-1.09.49-1.09,1.09v55.83c0,13.82,11.25,25.07,25.07,25.07ZM1279.4,882.05c0-7.24,5.89-13.13,13.13-13.13s13.13,5.89,13.13,13.13-5.89,13.13-13.13,13.13-13.13-5.89-13.13-13.13Z"/>
            <path class="cls-1" d="M1347.9,907.12c13.82,0,25.07-11.25,25.07-25.07s-11.25-25.07-25.07-25.07-25.07,11.25-25.07,25.07,11.25,25.07,25.07,25.07ZM1334.77,882.05c0-7.24,5.89-13.13,13.13-13.13s13.13,5.89,13.13,13.13-5.89,13.13-13.13,13.13-13.13-5.89-13.13-13.13Z"/>
            <path class="cls-1" d="M1481.48,859.94h-9.77c-.6,0-1.09.49-1.09,1.09v23.19c0,6.04-4.92,10.96-10.96,10.96s-10.96-4.92-10.96-10.96v-23.19c0-.6-.49-1.09-1.09-1.09h-9.77c-.6,0-1.09.49-1.09,1.09v23.19c0,12.63,10.27,22.9,22.9,22.9,3.85,0,7.6-.96,10.96-2.8v1.15c0,4.09-1.26,17.42-17.47,17.42h-12.59c-.6,0-1.09.49-1.09,1.09v9.77c0,.6.49,1.09,1.09,1.09h12.59c20.32,0,29.41-14.75,29.41-29.36v-44.44c0-.6-.49-1.09-1.09-1.09Z"/>
            <path class="cls-1" d="M1516.34,906.68c12.49,0,22.66-10.16,22.66-22.66s-10.16-22.66-22.66-22.66c-6.16,0-11.9,2.45-16.14,6.8v-40.93c0-.6-.49-1.09-1.09-1.09h-4.34c-.6,0-1.09.49-1.09,1.09v56.78c0,12.49,10.16,22.66,22.66,22.66ZM1500.2,884.02c0-8.9,7.24-16.14,16.14-16.14s16.14,7.24,16.14,16.14-7.24,16.15-16.14,16.15-16.14-7.24-16.14-16.15Z"/>
            <rect class="cls-1" x="1597.06" y="826.15" width="6.51" height="80.43" rx="1.09" ry="1.09"/>
            <path class="cls-1" d="M1566.79,906.68c6.16,0,11.9-2.45,16.14-6.8v5.62c0,.6.49,1.09,1.09,1.09h4.34c.6,0,1.09-.49,1.09-1.09v-21.47c0-12.49-10.16-22.66-22.66-22.66s-22.66,10.16-22.66,22.66,10.16,22.66,22.66,22.66ZM1550.64,884.02c0-8.9,7.24-16.14,16.15-16.14s16.14,7.24,16.14,16.14-7.24,16.15-16.14,16.15-16.15-7.24-16.15-16.15Z"/>
            <path class="cls-1" d="M1632.99,906.68c6.16,0,11.9-2.45,16.14-6.8v5.62c0,.6.49,1.09,1.09,1.09h4.34c.6,0,1.09-.49,1.09-1.09v-21.47c0-12.49-10.16-22.66-22.66-22.66s-22.66,10.16-22.66,22.66,10.16,22.66,22.66,22.66ZM1616.85,884.02c0-8.9,7.24-16.14,16.14-16.14s16.14,7.24,16.14,16.14-7.24,16.15-16.14,16.15-16.14-7.24-16.14-16.15Z"/>
            <path class="cls-1" d="M1732.6,906.68c6.05,0,11.74-2.36,16.02-6.64.42-.42.42-1.11,0-1.53l-3.07-3.07c-.2-.2-.48-.32-.77-.32s-.56.11-.77.32c-6.29,6.29-16.54,6.29-22.83,0-6.29-6.29-6.29-16.54,0-22.83,3.05-3.05,7.1-4.73,11.41-4.73s8.37,1.68,11.41,4.73c.43.43,1.11.43,1.54,0l3.07-3.07c.42-.42.42-1.11,0-1.53-4.28-4.28-9.97-6.64-16.02-6.64s-11.74,2.36-16.02,6.64c-8.83,8.83-8.83,23.21,0,32.04,4.28,4.28,9.97,6.64,16.02,6.64Z"/>
            <path class="cls-1" d="M1664.76,906.58h4.34c.6,0,1.09-.49,1.09-1.09v-24.01c0-7.5,6.1-13.61,13.61-13.61s13.61,6.1,13.61,13.61v24.01c0,.6.49,1.09,1.09,1.09h4.34c.6,0,1.09-.49,1.09-1.09v-24.01c0-11.09-9.03-20.12-20.12-20.12s-20.12,9.03-20.12,20.12v24.01c0,.6.49,1.09,1.09,1.09Z"/>
            <path class="cls-1" d="M1427.27,825.13h-9.77c-.6,0-1.09.49-1.09,1.09v34.51c-3.96-2.46-8.46-3.75-13.13-3.75-13.82,0-25.07,11.25-25.07,25.07s11.25,25.07,25.07,25.07,25.07-11.25,25.07-25.07v-55.83c0-.6-.49-1.09-1.09-1.09ZM1403.28,868.92c7.24,0,13.13,5.89,13.13,13.13s-5.89,13.13-13.13,13.13-13.13-5.89-13.13-13.13,5.89-13.13,13.13-13.13Z"/>
            <path class="cls-1" d="M1775.1,861.37s-.04,0-.05,0c-12.96.57-22.01,10.12-22.01,23.22s11.7,22.09,22.54,22.09c11.7,0,18.66-6.65,21.07-12.35.14-.34.11-.72-.09-1.02-.2-.3-.54-.49-.91-.49h-4.92c-.37,0-.72.19-.92.51-1.29,2.06-5.26,6.84-14.24,6.84-6.13,0-14.85-4.23-15.92-13.61h37.52c.6,0,1.09-.49,1.09-1.09v-2.17c0-12.3-10.18-21.93-23.17-21.93ZM1791.41,880.04h-31.34c1.69-7.2,7.39-11.82,15.13-12.16,8.02,0,14.64,5.04,16.21,12.16Z"/>
          </g>
          <g>
            <path class="cls-1" d="M1678.12,956.71h-14.15c-.26,0-.47.09-.65.27s-.27.4-.27.65v19.87c0,.26.09.47.27.65s.39.27.65.27h14.15c.26,0,.48-.09.65-.27s.27-.39.27-.65v-1.9c0-.26-.09-.47-.27-.65s-.4-.27-.65-.27h-9.99c-.26,0-.48-.09-.65-.27s-.27-.4-.27-.65v-3.26c0-.26.09-.47.27-.65s.4-.27.65-.27h8.66c.26,0,.48-.09.65-.27s.27-.4.27-.65v-1.93c0-.26-.09-.47-.27-.65s-.4-.27-.65-.27h-8.66c-.26,0-.48-.09-.65-.27-.18-.18-.27-.4-.27-.65v-3.59c0-.26.09-.47.27-.65s.4-.27.65-.27h9.99c.26,0,.48-.09.65-.27s.27-.4.27-.65v-1.84c0-.26-.09-.48-.27-.65s-.4-.27-.65-.27Z"/>
            <path class="cls-1" d="M1704.25,959.43c-2-1.82-4.55-2.73-7.65-2.73h-7.65c-.26,0-.47.09-.64.27s-.25.4-.25.65v19.87c0,.26.08.47.25.65s.38.27.64.27h7.65c1.52,0,2.94-.23,4.24-.68,1.27-.43,2.4-1.11,3.41-2.02,1.09-.99,1.89-2.16,2.4-3.53.28-.69.49-1.42.62-2.18.14-.76.21-1.58.21-2.45,0-1.64-.28-3.18-.83-4.63-.53-1.34-1.33-2.51-2.4-3.5ZM1702.71,971.24c-.43.95-.97,1.67-1.6,2.16-.65.53-1.36.89-2.14,1.07-.81.18-1.59.27-2.34.27h-3.53c-.26,0-.47-.09-.64-.27-.17-.18-.25-.4-.25-.65v-12.46c0-.26.08-.47.25-.65.17-.18.38-.27.64-.27h3.53c.73,0,1.5.09,2.31.27.79.18,1.51.52,2.17,1.04.63.49,1.17,1.22,1.6,2.16.42.95.62,2.18.62,3.68s-.21,2.74-.62,3.65Z"/>
            <path class="cls-1" d="M1718.46,956.73h-2.34c-.26,0-.47.09-.64.27s-.25.4-.25.65v19.84c0,.26.08.47.25.65s.38.27.64.27h2.34c.26,0,.47-.09.65-.27.18-.18.27-.39.27-.65v-19.84c0-.26-.09-.47-.27-.65-.18-.18-.4-.27-.65-.27Z"/>
            <path class="cls-1" d="M1733.32,962.43c.61-.67,1.35-1.22,2.23-1.63.89-.39,1.82-.59,2.79-.59.61,0,1.21.09,1.78.27.28.1.55.21.83.33.28.12.55.26.8.42s.5.33.73.5c.23.18.45.38.67.59.1.1.2.2.3.31.1.11.2.21.3.31.16.2.37.33.64.4s.51.05.73-.04l2.2-.89c.24-.1.4-.25.47-.46.08-.21.05-.42-.09-.64-.36-.53-.78-1.06-1.27-1.57-.34-.34-.7-.66-1.08-.96-.39-.31-.8-.59-1.23-.85-.83-.49-1.74-.88-2.73-1.16-1.01-.28-2.02-.42-3.03-.42-1.54,0-2.99.3-4.36.89-1.35.59-2.54,1.39-3.59,2.4-1.01,1.05-1.81,2.24-2.4,3.59-.59,1.36-.89,2.82-.89,4.36s.3,3,.89,4.36c.59,1.36,1.39,2.55,2.4,3.56,1.03,1.03,2.23,1.84,3.59,2.43,1.36.59,2.82.89,4.36.89,1.01,0,2.02-.14,3.03-.42.49-.14.97-.31,1.42-.5.45-.2.89-.42,1.31-.68.89-.51,1.66-1.12,2.31-1.81.24-.24.46-.49.67-.76.21-.27.41-.54.61-.82.14-.22.17-.43.09-.65-.08-.22-.24-.38-.47-.47l-2.2-.89c-.22-.1-.46-.11-.73-.03s-.48.22-.64.42c-.1.1-.2.2-.3.31s-.2.21-.3.31c-.22.22-.44.42-.67.61-.23.19-.47.36-.73.52s-.52.3-.8.42c-.28.12-.55.23-.83.33-.57.18-1.17.27-1.78.27-1.01,0-1.94-.21-2.79-.62-.87-.38-1.61-.91-2.23-1.6-.63-.69-1.14-1.47-1.51-2.34-.38-.87-.57-1.81-.57-2.82s.19-1.93.57-2.82c.38-.87.88-1.65,1.51-2.34Z"/>
            <path class="cls-1" d="M1798.28,975.01c-.18-.18-.39-.27-.65-.27h-9.64c-.26,0-.47-.09-.65-.27-.18-.18-.27-.4-.27-.65v-16.2c0-.26-.09-.48-.26-.65-.18-.18-.4-.27-.65-.27h-2.31c-.26,0-.47.09-.65.27-.18.18-.26.4-.26.65v19.87c0,.26.09.47.26.65.18.18.4.27.65.27h13.79c.26,0,.47-.09.65-.27.18-.18.27-.39.27-.65v-1.84c0-.26-.09-.47-.27-.65Z"/>
            <path class="cls-1" d="M1771.68,958.84c-.77-.77-1.75-1.38-2.93-1.84-1.11-.44-2.38-.65-3.83-.65s-2.73.22-3.86.65c-1.17.45-2.15,1.07-2.94,1.84-.81.81-1.43,1.77-1.87,2.88-.22.57-.38,1.17-.49,1.8-.11.62-.16,1.28-.16,1.97v12.01c0,.26.09.47.26.65.18.18.4.27.65.27h2.31c.26,0,.47-.09.65-.27.18-.18.26-.4.26-.65v-4.98c0-.54.42-.92.92-.92h8.49c.46,0,.92.43.92.92v4.98c0,.26.09.47.26.65.18.18.4.27.65.27h2.34c.24,0,.44-.09.62-.27.18-.18.26-.4.26-.65v-12.01c0-1.4-.22-2.66-.65-3.77-.44-1.13-1.07-2.09-1.9-2.88ZM1769.16,967.92h-8.49c-.46,0-.92-.46-.92-.92v-1.49c0-1.09.18-1.99.53-2.7.36-.71.8-1.28,1.33-1.69.52-.44,1.08-.72,1.69-.86.63-.16,1.17-.24,1.6-.24.24,0,.49.02.76.06s.56.1.88.18c.57.14,1.14.42,1.69.86.51.43.95,1,1.3,1.69.36.71.53,1.61.53,2.7v1.49c0,.46-.4.92-.92.92Z"/>
            <path class="cls-1" d="M1651.85,958.84c-.77-.77-1.75-1.38-2.94-1.84-1.11-.44-2.38-.65-3.83-.65s-2.73.22-3.86.65c-1.17.45-2.15,1.07-2.94,1.84-.16.16-.28.35-.42.52-.15-.17-.27-.36-.43-.52-.77-.77-1.75-1.38-2.94-1.84-1.11-.44-2.38-.65-3.83-.65s-2.73.22-3.86.65c-1.17.45-2.15,1.07-2.94,1.84-.81.81-1.43,1.77-1.87,2.88-.22.57-.38,1.17-.49,1.8-.11.62-.16,1.28-.16,1.97v12.01c0,.26.09.47.27.65s.4.27.65.27h2.31c.26,0,.47-.09.65-.27s.27-.4.27-.65v-11.98c0-1.09.18-1.99.53-2.7s.8-1.28,1.33-1.69c.51-.44,1.08-.72,1.69-.86.63-.16,1.17-.24,1.6-.24.24,0,.49.02.76.06.27.04.56.1.87.18.57.14,1.14.42,1.69.86.52.43.95,1,1.31,1.69.31.61.45,1.39.5,2.28,0,.13-.03.25-.03.39v12.01c0,.26.09.47.27.65.18.18.4.27.65.27h2.41c.24,0,.44-.09.62-.27s.27-.4.27-.65v-12.01c0-.14-.03-.25-.03-.39.04-.89.19-1.67.5-2.28.36-.71.8-1.28,1.33-1.69.51-.44,1.08-.72,1.69-.86.63-.16,1.17-.24,1.6-.24.24,0,.49.02.76.06.27.04.56.1.87.18.57.14,1.14.42,1.69.86.52.43.95,1,1.31,1.69.36.71.53,1.61.53,2.7v11.98c0,.26.09.47.27.65s.4.27.65.27h2.34c.24,0,.44-.09.62-.27s.27-.4.27-.65v-12.01c0-1.4-.22-2.66-.65-3.77-.44-1.13-1.07-2.09-1.9-2.88Z"/>
          </g>
        </g>
        <g>
          <g>
            <path class="cls-1" d="M1157.94,948.6c25.5,0,46.24-20.61,46.24-45.94s-20.74-45.94-46.24-45.94c-5.52,0-10.93.98-16.02,2.85v16.66c4.8-2.86,10.32-4.4,16.02-4.4,17.16,0,31.13,13.83,31.13,30.82s-13.96,30.82-31.13,30.82-31.13-13.83-31.13-30.82v-129.72h-15.11v129.72c0,25.33,20.74,45.94,46.24,45.94Z"/>
            <path class="cls-1" d="M1157.94,825.86c-5.44,0-10.79.58-16.02,1.69v15.54c5.19-1.4,10.54-2.12,16.02-2.12,33.84,0,61.37,27.53,61.37,61.37s-27.53,61.37-61.37,61.37-61.37-27.53-61.37-61.37v-129.41h-15.11v129.41c0,42.17,34.31,76.48,76.48,76.48s76.48-34.31,76.48-76.48-34.31-76.48-76.48-76.48Z"/>
          </g>
          <circle class="cls-1" cx="1157.94" cy="902.85" r="15.99"/>
        </g>
      </g>
      <g>
        <g>
          <g>
            <path class="cls-1" d="M1440.6,1251.87c25.43,0,46.12-20.56,46.12-45.82s-20.69-45.82-46.12-45.82c-5.51,0-10.91.98-15.98,2.84v16.62c4.79-2.85,10.3-4.39,15.98-4.39,17.12,0,31.05,13.79,31.05,30.75s-13.93,30.75-31.05,30.75-31.05-13.79-31.05-30.75v-129.4h-15.07v129.4c0,25.27,20.69,45.82,46.13,45.82Z"/>
            <path class="cls-1" d="M1440.6,1129.44c-5.42,0-10.76.57-15.98,1.69v15.5c5.17-1.4,10.52-2.12,15.98-2.12,33.76,0,61.22,27.46,61.22,61.22s-27.46,61.22-61.22,61.22-61.22-27.46-61.22-61.22v-129.08h-15.07v129.08c0,42.07,34.23,76.29,76.29,76.29s76.29-34.23,76.29-76.29-34.23-76.29-76.29-76.29Z"/>
          </g>
          <g>
            <rect class="cls-1" x="1248.83" y="1371.13" width="115.56" height="8.6" rx=".78" ry=".78"/>
            <rect class="cls-1" x="1410.81" y="1371.13" width="220.36" height="8.6" rx=".78" ry=".78"/>
            <path class="cls-1" d="M1266.89,1359.77c9.96,0,18.06-8.1,18.06-18.06s-8.1-18.06-18.06-18.06c-3.36,0-6.6.93-9.46,2.7v-24.86c0-.43-.35-.78-.78-.78h-7.04c-.43,0-.78.35-.78.78v40.22c0,9.96,8.1,18.06,18.06,18.06ZM1257.43,1341.71c0-5.21,4.24-9.46,9.46-9.46s9.46,4.24,9.46,9.46-4.24,9.46-9.46,9.46-9.46-4.24-9.46-9.46Z"/>
            <path class="cls-1" d="M1306.77,1359.77c9.96,0,18.06-8.1,18.06-18.06s-8.1-18.06-18.06-18.06-18.06,8.1-18.06,18.06,8.1,18.06,18.06,18.06ZM1297.32,1341.71c0-5.21,4.24-9.46,9.46-9.46s9.46,4.24,9.46,9.46-4.24,9.46-9.46,9.46-9.46-4.24-9.46-9.46Z"/>
            <path class="cls-1" d="M1402.99,1325.79h-7.04c-.43,0-.78.35-.78.78v16.71c0,4.35-3.54,7.89-7.89,7.89s-7.89-3.54-7.89-7.89v-16.71c0-.43-.35-.78-.78-.78h-7.04c-.43,0-.78.35-.78.78v16.71c0,9.1,7.4,16.49,16.49,16.49,2.77,0,5.47-.69,7.89-2.02v.83c0,2.94-.91,12.55-12.58,12.55h-9.07c-.43,0-.78.35-.78.78v7.04c0,.43.35.78.78.78h9.07c14.64,0,21.19-10.62,21.19-21.15v-32.01c0-.43-.35-.78-.78-.78Z"/>
            <path class="cls-1" d="M1428.1,1359.45c9,0,16.32-7.32,16.32-16.32s-7.32-16.32-16.32-16.32c-4.44,0-8.57,1.76-11.63,4.9v-29.48c0-.43-.35-.78-.78-.78h-3.13c-.43,0-.78.35-.78.78v40.9c0,9,7.32,16.32,16.32,16.32ZM1416.47,1343.13c0-6.41,5.22-11.63,11.63-11.63s11.63,5.22,11.63,11.63-5.22,11.63-11.63,11.63-11.63-5.22-11.63-11.63Z"/>
            <rect class="cls-1" x="1486.24" y="1301.45" width="4.69" height="57.93" rx=".78" ry=".78"/>
            <path class="cls-1" d="M1464.43,1359.45c4.44,0,8.57-1.76,11.63-4.9v4.05c0,.43.35.78.78.78h3.13c.43,0,.78-.35.78-.78v-15.47c0-9-7.32-16.32-16.32-16.32s-16.32,7.32-16.32,16.32,7.32,16.32,16.32,16.32ZM1452.8,1343.13c0-6.41,5.22-11.63,11.63-11.63s11.63,5.22,11.63,11.63-5.22,11.63-11.63,11.63-11.63-5.22-11.63-11.63Z"/>
            <path class="cls-1" d="M1512.12,1359.45c4.44,0,8.57-1.76,11.63-4.9v4.05c0,.43.35.78.78.78h3.13c.43,0,.78-.35.78-.78v-15.47c0-9-7.32-16.32-16.32-16.32s-16.32,7.32-16.32,16.32,7.32,16.32,16.32,16.32ZM1500.49,1343.13c0-6.41,5.22-11.63,11.63-11.63s11.63,5.22,11.63,11.63-5.22,11.63-11.63,11.63-11.63-5.22-11.63-11.63Z"/>
            <path class="cls-1" d="M1583.87,1359.45c4.36,0,8.46-1.7,11.54-4.78.3-.31.3-.8,0-1.11l-2.21-2.21c-.15-.15-.35-.23-.55-.23s-.41.08-.55.23c-4.53,4.53-11.91,4.53-16.44,0-4.53-4.53-4.53-11.91,0-16.45,2.19-2.2,5.12-3.41,8.22-3.41s6.03,1.21,8.22,3.41c.31.31.8.31,1.11,0l2.21-2.21c.3-.31.3-.8,0-1.11-3.08-3.08-7.18-4.78-11.54-4.78s-8.46,1.7-11.54,4.78c-6.36,6.36-6.36,16.72,0,23.08,3.08,3.08,7.18,4.78,11.54,4.78Z"/>
            <path class="cls-1" d="M1535,1359.38h3.13c.43,0,.78-.35.78-.78v-17.3c0-5.4,4.4-9.8,9.8-9.8s9.8,4.4,9.8,9.8v17.3c0,.43.35.78.78.78h3.13c.43,0,.78-.35.78-.78v-17.3c0-7.99-6.5-14.49-14.49-14.49s-14.49,6.5-14.49,14.49v17.3c0,.43.35.78.78.78Z"/>
            <path class="cls-1" d="M1363.94,1300.71h-7.04c-.43,0-.78.35-.78.78v24.86c-2.85-1.77-6.09-2.7-9.46-2.7-9.96,0-18.06,8.1-18.06,18.06s8.1,18.06,18.06,18.06,18.06-8.1,18.06-18.06v-40.22c0-.43-.35-.78-.78-.78ZM1346.66,1332.25c5.21,0,9.46,4.24,9.46,9.46s-4.24,9.46-9.46,9.46-9.46-4.24-9.46-9.46,4.24-9.46,9.46-9.46Z"/>
            <path class="cls-1" d="M1614.48,1326.82s-.03,0-.04,0c-9.33.41-15.85,7.29-15.85,16.72s8.43,15.91,16.24,15.91c8.43,0,13.44-4.79,15.18-8.9.1-.24.08-.52-.07-.74-.15-.22-.39-.35-.65-.35h-3.54c-.27,0-.52.14-.66.37-.93,1.48-3.79,4.93-10.25,4.93-4.41,0-10.7-3.05-11.47-9.8h27.02c.43,0,.78-.35.78-.78v-1.56c0-8.86-7.33-15.79-16.69-15.79ZM1626.23,1340.26h-22.57c1.22-5.18,5.33-8.51,10.9-8.76,5.78,0,10.54,3.63,11.68,8.76Z"/>
          </g>
          <g>
            <path class="cls-1" d="M1416.7,1395.48h-10.19c-.19,0-.34.06-.47.19s-.19.29-.19.47v14.31c0,.19.06.34.19.47s.28.19.47.19h10.19c.19,0,.34-.06.47-.19s.19-.28.19-.47v-1.37c0-.18-.06-.34-.19-.47s-.29-.19-.47-.19h-7.2c-.19,0-.34-.06-.47-.19s-.19-.29-.19-.47v-2.35c0-.18.06-.34.19-.47s.29-.19.47-.19h6.24c.19,0,.34-.06.47-.19s.19-.29.19-.47v-1.39c0-.18-.06-.34-.19-.47s-.29-.19-.47-.19h-6.24c-.19,0-.34-.06-.47-.19-.13-.13-.19-.29-.19-.47v-2.59c0-.18.06-.34.19-.47s.29-.19.47-.19h7.2c.19,0,.34-.06.47-.19s.19-.29.19-.47v-1.32c0-.19-.06-.34-.19-.47s-.29-.19-.47-.19Z"/>
            <path class="cls-1" d="M1435.52,1397.45c-1.44-1.31-3.28-1.97-5.51-1.97h-5.51c-.18,0-.34.06-.46.19s-.18.29-.18.47v14.31c0,.19.06.34.18.47s.27.19.46.19h5.51c1.1,0,2.11-.16,3.05-.49.91-.31,1.73-.8,2.46-1.45.78-.71,1.36-1.56,1.73-2.54.2-.5.35-1.02.45-1.57.1-.55.15-1.14.15-1.76,0-1.18-.2-2.29-.6-3.33-.38-.97-.96-1.81-1.73-2.52ZM1434.41,1405.95c-.31.68-.7,1.2-1.15,1.56-.47.39-.98.64-1.54.77-.58.13-1.15.19-1.69.19h-2.54c-.18,0-.34-.06-.46-.19-.12-.13-.18-.29-.18-.47v-8.97c0-.18.06-.34.18-.47.12-.13.27-.19.46-.19h2.54c.53,0,1.08.06,1.67.19.57.13,1.09.38,1.56.75.45.36.84.88,1.15,1.56.3.68.45,1.57.45,2.65s-.15,1.97-.45,2.63Z"/>
            <path class="cls-1" d="M1445.75,1395.51h-1.69c-.18,0-.34.06-.46.19s-.18.29-.18.47v14.29c0,.19.06.34.18.47s.27.19.46.19h1.69c.18,0,.34-.06.47-.19.13-.13.19-.28.19-.47v-14.29c0-.18-.07-.34-.19-.47-.13-.13-.29-.19-.47-.19Z"/>
            <path class="cls-1" d="M1456.46,1399.61c.44-.48.98-.88,1.6-1.18.64-.28,1.31-.43,2.01-.43.44,0,.87.06,1.28.19.2.07.4.15.6.23.2.09.39.19.58.3s.36.23.52.36c.16.13.32.27.48.43.07.07.14.15.21.22.07.08.14.15.21.22.11.14.27.24.46.29s.37.04.52-.03l1.58-.64c.17-.07.29-.18.34-.33.06-.15.04-.3-.06-.46-.26-.38-.56-.76-.92-1.13-.24-.24-.5-.47-.78-.69-.28-.22-.57-.42-.89-.61-.6-.36-1.25-.63-1.97-.83-.73-.2-1.45-.3-2.18-.3-1.11,0-2.16.21-3.14.64-.97.43-1.83,1-2.59,1.73-.73.76-1.3,1.62-1.73,2.59-.43.98-.64,2.03-.64,3.14s.21,2.16.64,3.14c.43.98,1,1.84,1.73,2.56.74.74,1.6,1.32,2.59,1.75.98.43,2.03.64,3.14.64.73,0,1.45-.1,2.18-.3.36-.1.7-.22,1.02-.36.33-.14.64-.31.94-.49.64-.37,1.2-.8,1.67-1.3.17-.17.33-.35.48-.54.15-.19.29-.39.44-.59.1-.16.12-.31.06-.47-.06-.16-.17-.27-.34-.34l-1.58-.64c-.16-.07-.33-.08-.52-.02s-.35.16-.46.3c-.07.07-.14.15-.21.22s-.14.15-.21.22c-.16.16-.32.3-.48.44-.16.14-.34.26-.52.37s-.38.21-.58.3c-.2.09-.4.16-.6.24-.41.13-.84.19-1.28.19-.73,0-1.4-.15-2.01-.45-.63-.27-1.16-.66-1.6-1.15-.45-.5-.82-1.06-1.09-1.69-.27-.63-.41-1.3-.41-2.03s.14-1.39.41-2.03c.27-.63.63-1.19,1.09-1.69Z"/>
            <path class="cls-1" d="M1503.24,1408.67c-.13-.13-.28-.19-.47-.19h-6.94c-.18,0-.34-.06-.47-.19-.13-.13-.19-.29-.19-.47v-11.67c0-.19-.06-.34-.19-.47-.13-.13-.29-.19-.47-.19h-1.67c-.18,0-.34.06-.47.19-.13.13-.19.29-.19.47v14.31c0,.19.06.34.19.47.13.13.29.19.47.19h9.94c.18,0,.34-.06.47-.19.13-.13.19-.28.19-.47v-1.32c0-.18-.06-.34-.19-.47Z"/>
            <path class="cls-1" d="M1484.08,1397.02c-.55-.56-1.26-1-2.11-1.32-.8-.31-1.72-.47-2.76-.47s-1.97.16-2.78.47c-.84.33-1.55.77-2.12,1.32-.58.58-1.03,1.28-1.35,2.07-.16.41-.27.84-.35,1.29-.08.45-.12.92-.12,1.42v8.65c0,.18.06.34.19.47.13.13.29.19.47.19h1.67c.18,0,.34-.06.47-.19.13-.13.19-.29.19-.47v-3.59c0-.39.3-.66.66-.66h6.11c.33,0,.66.31.66.66v3.59c0,.18.06.34.19.47.13.13.29.19.47.19h1.69c.17,0,.32-.06.45-.19.13-.13.19-.29.19-.47v-8.65c0-1.01-.15-1.92-.47-2.71-.31-.81-.77-1.5-1.37-2.07ZM1482.27,1403.56h-6.11c-.33,0-.66-.33-.66-.66v-1.07c0-.78.13-1.43.39-1.94.26-.51.58-.92.96-1.22.37-.31.78-.52,1.22-.62.46-.11.84-.17,1.15-.17.17,0,.35.01.54.04s.4.07.63.13c.41.1.82.31,1.22.62.37.31.68.72.94,1.22.26.51.39,1.16.39,1.94v1.07c0,.33-.29.66-.66.66Z"/>
            <path class="cls-1" d="M1397.77,1397.02c-.56-.56-1.26-1-2.12-1.32-.8-.31-1.72-.47-2.76-.47s-1.97.16-2.78.47c-.84.33-1.55.77-2.11,1.32-.11.11-.2.25-.3.37-.11-.12-.19-.26-.31-.37-.56-.56-1.26-1-2.12-1.32-.8-.31-1.72-.47-2.76-.47s-1.97.16-2.78.47c-.84.33-1.55.77-2.11,1.32-.58.58-1.03,1.28-1.35,2.07-.16.41-.27.84-.35,1.29-.08.45-.12.92-.12,1.42v8.65c0,.18.06.34.19.47s.29.19.47.19h1.67c.18,0,.34-.06.47-.19s.19-.29.19-.47v-8.63c0-.78.13-1.43.38-1.94s.58-.92.96-1.22c.37-.31.78-.52,1.22-.62.46-.11.84-.17,1.15-.17.17,0,.35.01.55.04.19.03.4.07.63.13.41.1.82.31,1.22.62.37.31.68.72.94,1.22.22.44.33,1,.36,1.65,0,.1-.02.18-.02.28v8.65c0,.18.06.34.19.47s.29.19.47.19h1.74c.17,0,.32-.06.45-.19s.19-.29.19-.47v-8.65c0-.1-.02-.18-.02-.28.03-.64.14-1.2.36-1.64.26-.51.58-.92.96-1.22.37-.31.78-.52,1.22-.62.46-.11.84-.17,1.15-.17.17,0,.35.01.55.04.19.03.4.07.63.13.41.1.82.31,1.22.62.37.31.68.72.94,1.22.26.51.38,1.16.38,1.94v8.63c0,.18.06.34.19.47s.29.19.47.19h1.69c.17,0,.32-.06.45-.19s.19-.29.19-.47v-8.65c0-1.01-.16-1.92-.47-2.71-.31-.81-.77-1.5-1.37-2.07Z"/>
          </g>
        </g>
        <circle class="cls-1" cx="1440.6" cy="1206.24" r="15.95"/>
      </g>
      <text class="cls-2" transform="translate(1263.0107 674.7335)"><tspan class="cls-133" x="0" y="0">Lo</tspan><tspan class="cls-128" x="43.29" y="0">g</tspan><tspan class="cls-133" x="63.32" y="0">o, </tspan><tspan class="cls-135" x="107.32" y="0">D</tspan><tspan class="cls-133" x="133.83" y="0">a</tspan><tspan class="cls-138" x="153.2" y="0">r</tspan><tspan class="cls-141" x="170.21" y="0">k</tspan><tspan class="cls-133" x="190.89" y="0" xml:space="preserve"> Backg</tspan><tspan class="cls-137" x="305.4" y="0">r</tspan><tspan class="cls-133" x="322.41" y="0">ound</tspan></text>
      <line class="cls-5" x1="1194.81" y1="663.62" x2="1247.75" y2="663.62"/>
      <text class="cls-35" transform="translate(243.699 1669.4684)"><tspan x="0" y="0">C</tspan><tspan class="cls-101" x="66.76" y="0">o</tspan><tspan class="cls-70" x="111.9" y="0">lor </tspan><tspan class="cls-109" x="231.23" y="0">P</tspan><tspan x="278.43" y="0">alette</tspan></text>
      <line class="cls-6" x1="791" y1="1645.24" x2="1676.3" y2="1645.24"/>
      <g>
        <image width="8192" height="5464" transform="translate(1674 2578.5353) scale(-.1135 .1135)" xlink:href="New Photo Style/AdobeStock_448721416.jpg"/>
        <rect class="cls-126" x="246" y="2623.19" width="713" height="410.17"/>
        <text class="cls-24" transform="translate(314.2267 2608.1411)"><tspan class="cls-89" x="0" y="0">T</tspan><tspan class="cls-110" x="18.72" y="0">ypogra</tspan><tspan class="cls-87" x="102.24" y="0">p</tspan><tspan class="cls-81" x="118.58" y="0">h</tspan><tspan class="cls-106" x="133.88" y="0">y</tspan></text>
        <line class="cls-4" x1="246.02" y1="2595" x2="298.97" y2="2595"/>
        <text class="cls-27" transform="translate(274.8018 2706.1235)"><tspan x="0" y="0">Heading —</tspan></text>
        <text class="cls-22" transform="translate(501.8047 2706.1235)"><tspan x="0" y="0">EB G</tspan><tspan class="cls-99" x="95.16" y="0">a</tspan><tspan class="cls-112" x="117.19" y="0">r</tspan><tspan class="cls-100" x="133.04" y="0">a</tspan><tspan x="155.07" y="0">mond Reg</tspan><tspan class="cls-91" x="335.34" y="0">u</tspan><tspan class="cls-71" x="357.97" y="0">l</tspan><tspan class="cls-100" x="371.35" y="0">a</tspan><tspan class="cls-71" x="393.37" y="0">r</tspan></text>
        <g>
          <text class="cls-60" transform="translate(283 2813.9627)"><tspan x="0" y="0">Accen</tspan><tspan class="cls-103" x="92.94" y="0">t</tspan><tspan x="104.52" y="0" xml:space="preserve"> —</tspan></text>
          <text class="cls-25" transform="translate(442.6582 2814.0321)"><tspan class="cls-122" x="0" y="0">P</tspan><tspan x="19.79" y="0">l</tspan><tspan class="cls-119" x="29.62" y="0">a</tspan><tspan class="cls-125" x="46.52" y="0">y</tspan><tspan x="63.6" y="0">fai</tspan><tspan class="cls-96" x="102.19" y="0">r</tspan><tspan x="116.76" y="0" xml:space="preserve"> Displ</tspan><tspan class="cls-119" x="205.37" y="0">a</tspan><tspan class="cls-118" x="222.28" y="0">y</tspan></text>
        </g>
        <g>
          <text class="cls-23" transform="translate(283.0001 2885.7544)"><tspan class="cls-148" x="0" y="0">Bod</tspan><tspan class="cls-144" x="39.25" y="0">y</tspan><tspan class="cls-145" x="50.02" y="0"> </tspan><tspan class="cls-88" x="57.02" y="0">T</tspan><tspan class="cls-150" x="67.48" y="0">e</tspan><tspan class="cls-148" x="79.25" y="0">xt</tspan></text>
          <text class="cls-29" transform="translate(391.8209 2883.3139)"><tspan class="cls-142" x="0" y="0">W</tspan><tspan class="cls-132" x="11.25" y="0">or</tspan><tspan class="cls-143" x="24.58" y="0">k</tspan><tspan class="cls-132" x="31.65" y="0"> </tspan><tspan class="cls-129" x="36.48" y="0">S</tspan><tspan class="cls-130" x="44.49" y="0">ans</tspan></text>
        </g>
      </g>
      <g>
        <text class="cls-14" transform="translate(449 1746.6799)"><tspan class="cls-51" x="0" y="0">PRIMA</tspan><tspan class="cls-54" x="45.84" y="0">R</tspan><tspan class="cls-46" x="54.97" y="0">Y</tspan><tspan class="cls-51" x="63.87" y="0" xml:space="preserve"> — </tspan><tspan class="cls-48" x="87.2" y="0">P</tspan></text>
        <rect class="cls-151" x="449" y="1752.68" width="110" height="56" rx="2" ry="2"/>
        <text class="cls-11" transform="translate(497.3262 1818.6799)"><tspan x="0" y="0">900</tspan></text>
        <text class="cls-12" transform="translate(487.1973 1830.6799)"><tspan x="0" y="0">#0305</tspan><tspan class="cls-97" x="28.68" y="0">07</tspan></text>
        <rect class="cls-105" x="563" y="1752.68" width="110" height="56" rx="2" ry="2"/>
        <text class="cls-11" transform="translate(611.3262 1818.6799)"><tspan x="0" y="0">800</tspan></text>
        <text class="cls-12" transform="translate(601.1973 1830.6799)"><tspan x="0" y="0">#131c25</tspan></text>
        <rect class="cls-126" x="677" y="1752.68" width="110" height="56" rx="2" ry="2"/>
        <text class="cls-11" transform="translate(725.3262 1818.6799)"><tspan class="cls-104" x="0" y="0">7</tspan><tspan x="4.81" y="0">00</tspan></text>
        <text class="cls-12" transform="translate(715.1973 1830.6799)"><tspan x="0" y="0">#2b3a4</tspan><tspan class="cls-93" x="33.39" y="0">a</tspan></text>
        <rect class="cls-80" x="791" y="1752.68" width="110" height="56" rx="2" ry="2"/>
        <text class="cls-11" transform="translate(839.3262 1818.6799)"><tspan x="0" y="0">600</tspan></text>
        <text class="cls-12" transform="translate(829.1973 1830.6799)"><tspan x="0" y="0">#3e536</tspan><tspan class="cls-93" x="32.83" y="0">a</tspan></text>
        <rect class="cls-76" x="905" y="1752.68" width="110" height="56" rx="2" ry="2"/>
        <text class="cls-11" transform="translate(953.3262 1818.6799)"><tspan x="0" y="0">500</tspan></text>
        <text class="cls-12" transform="translate(943.1973 1830.6799)"><tspan x="0" y="0">#506d8b</tspan></text>
        <rect class="cls-64" x="1019" y="1752.68" width="110" height="56" rx="2" ry="2"/>
        <text class="cls-11" transform="translate(1067.3262 1818.6799)"><tspan x="0" y="0">400</tspan></text>
        <text class="cls-12" transform="translate(1057.1973 1830.6799)"><tspan x="0" y="0">#6a89a9</tspan></text>
        <rect class="cls-75" x="1133" y="1752.68" width="110" height="56" rx="2" ry="2"/>
        <text class="cls-11" transform="translate(1181.3262 1818.6799)"><tspan x="0" y="0">300</tspan></text>
        <text class="cls-12" transform="translate(1171.1973 1830.6799)"><tspan x="0" y="0">#91</tspan><tspan class="cls-124" x="15.14" y="0">a</tspan><tspan x="20.21" y="0">7</tspan><tspan class="cls-121" x="25.15" y="0">b</tspan><tspan class="cls-116" x="30.9" y="0">f</tspan></text>
        <rect class="cls-127" x="1247" y="1752.68" width="110" height="56" rx="2" ry="2"/>
        <text class="cls-11" transform="translate(1295.3262 1818.6799)"><tspan x="0" y="0">200</tspan></text>
        <text class="cls-12" transform="translate(1285.1973 1830.6799)"><tspan x="0" y="0">#b1c4d</tspan><tspan class="cls-98" x="31.92" y="0">7</tspan></text>
        <rect class="cls-123" x="1361" y="1752.68" width="110" height="56" rx="2" ry="2"/>
        <text class="cls-11" transform="translate(1409.3262 1818.6799)"><tspan x="0" y="0">100</tspan></text>
        <text class="cls-12" transform="translate(1399.1973 1830.6799)"><tspan x="0" y="0">#d0dbe</tspan><tspan class="cls-97" x="35.11" y="0">7</tspan></text>
        <text class="cls-14" transform="translate(449 1878.6799)"><tspan class="cls-50" x="0" y="0">S</tspan><tspan class="cls-52" x="9.08" y="0">E</tspan><tspan class="cls-51" x="17.94" y="0">CON</tspan><tspan class="cls-55" x="47.66" y="0">D</tspan><tspan class="cls-51" x="57.29" y="0">A</tspan><tspan class="cls-54" x="66.73" y="0">R</tspan><tspan class="cls-46" x="75.86" y="0">Y</tspan><tspan class="cls-51" x="84.75" y="0" xml:space="preserve"> — S</tspan></text>
        <rect class="cls-8" x="449" y="1884.68" width="110" height="56" rx="2" ry="2"/>
        <text class="cls-11" transform="translate(497.3262 1950.6799)"><tspan x="0" y="0">900</tspan></text>
        <text class="cls-12" transform="translate(487.1973 1962.6799)"><tspan x="0" y="0">#260d19</tspan></text>
        <rect class="cls-79" x="563" y="1884.68" width="110" height="56" rx="2" ry="2"/>
        <text class="cls-11" transform="translate(611.3262 1950.6799)"><tspan x="0" y="0">800</tspan></text>
        <text class="cls-12" transform="translate(601.1973 1962.6799)"><tspan x="0" y="0">#49182</tspan><tspan class="cls-116" x="31.6" y="0">f</tspan></text>
        <rect class="cls-83" x="677" y="1884.68" width="110" height="56" rx="2" ry="2"/>
        <text class="cls-11" transform="translate(725.3262 1950.6799)"><tspan class="cls-104" x="0" y="0">7</tspan><tspan x="4.81" y="0">00</tspan></text>
        <text class="cls-12" transform="translate(715.1973 1962.6799)"><tspan class="cls-92" x="0" y="0">#</tspan><tspan x="6.07" y="0">722c4d</tspan></text>
        <rect class="cls-134" x="791" y="1884.68" width="110" height="56" rx="2" ry="2"/>
        <text class="cls-11" transform="translate(839.3262 1950.6799)"><tspan x="0" y="0">600</tspan></text>
        <text class="cls-12" transform="translate(829.1973 1962.6799)"><tspan x="0" y="0">#</tspan><tspan class="cls-98" x="6.32" y="0">9</tspan><tspan x="11.78" y="0">73a66</tspan></text>
        <rect class="cls-61" x="905" y="1884.68" width="110" height="56" rx="2" ry="2"/>
        <text class="cls-11" transform="translate(953.3262 1950.6799)"><tspan x="0" y="0">500</tspan></text>
        <text class="cls-12" transform="translate(943.1973 1962.6799)"><tspan x="0" y="0">#b94b7</tspan><tspan class="cls-117" x="34.12" y="0">f</tspan></text>
        <rect class="cls-42" x="1019" y="1884.68" width="110" height="56" rx="2" ry="2"/>
        <text class="cls-11" transform="translate(1067.3262 1950.6799)"><tspan x="0" y="0">400</tspan></text>
        <text class="cls-12" transform="translate(1057.1973 1962.6799)"><tspan x="0" y="0">#c</tspan><tspan class="cls-97" x="11.56" y="0">9</tspan><tspan class="cls-59" x="17.02" y="0">739c</tspan></text>
        <rect class="cls-72" x="1133" y="1884.68" width="110" height="56" rx="2" ry="2"/>
        <text class="cls-11" transform="translate(1181.3262 1950.6799)"><tspan x="0" y="0">300</tspan></text>
        <text class="cls-12" transform="translate(1171.1973 1962.6799)"><tspan x="0" y="0">#da9fbb</tspan></text>
        <rect class="cls-17" x="1247" y="1884.68" width="110" height="56" rx="2" ry="2"/>
        <text class="cls-11" transform="translate(1295.3262 1950.6799)"><tspan x="0" y="0">200</tspan></text>
        <text class="cls-12" transform="translate(1285.1973 1962.6799)"><tspan x="0" y="0">#ecc5d8</tspan></text>
        <rect class="cls-10" x="1361" y="1884.68" width="110" height="56" rx="2" ry="2"/>
        <text class="cls-11" transform="translate(1409.3262 1950.6799)"><tspan x="0" y="0">100</tspan></text>
        <text class="cls-12" transform="translate(1399.1973 1962.6799)"><tspan x="0" y="0">#f</tspan><tspan class="cls-84" x="9.52" y="0">7</tspan><tspan x="13.76" y="0">e8</tspan><tspan class="cls-120" x="24.72" y="0">e</tspan><tspan class="cls-116" x="30" y="0">f</tspan></text>
        <text class="cls-14" transform="translate(449 2010.6799)"><tspan class="cls-51" x="0" y="0">TE</tspan><tspan class="cls-49" x="18.11" y="0">R</tspan><tspan class="cls-51" x="27.59" y="0">TIA</tspan><tspan class="cls-53" x="51.69" y="0">R</tspan><tspan class="cls-46" x="60.82" y="0">Y</tspan><tspan class="cls-50" x="69.72" y="0" xml:space="preserve"> —</tspan><tspan class="cls-47" x="87.91" y="0" xml:space="preserve"> T</tspan></text>
        <rect class="cls-37" x="449" y="2016.68" width="110" height="56" rx="2" ry="2"/>
        <text class="cls-11" transform="translate(497.3262 2082.6799)"><tspan x="0" y="0">900</tspan></text>
        <text class="cls-12" transform="translate(487.1973 2094.6799)"><tspan x="0" y="0">#232210</tspan></text>
        <rect class="cls-41" x="563" y="2016.68" width="110" height="56" rx="2" ry="2"/>
        <text class="cls-11" transform="translate(611.3262 2082.6799)"><tspan x="0" y="0">800</tspan></text>
        <text class="cls-12" transform="translate(601.1973 2094.6799)"><tspan x="0" y="0">#</tspan><tspan class="cls-90" x="6.32" y="0">4</tspan><tspan class="cls-98" x="11.6" y="0">2</tspan><tspan class="cls-95" x="16.74" y="0">4</tspan><tspan x="22.03" y="0">11</tspan><tspan class="cls-116" x="28.35" y="0">f</tspan></text>
        <rect class="cls-63" x="677" y="2016.68" width="110" height="56" rx="2" ry="2"/>
        <text class="cls-11" transform="translate(725.3262 2082.6799)"><tspan class="cls-104" x="0" y="0">7</tspan><tspan x="4.81" y="0">00</tspan></text>
        <text class="cls-12" transform="translate(715.1973 2094.6799)"><tspan x="0" y="0">#6</tspan><tspan class="cls-102" x="11.72" y="0">7</tspan><tspan x="16.49" y="0">663</tspan><tspan class="cls-97" x="32.5" y="0">7</tspan></text>
        <rect class="cls-19" x="791" y="2016.68" width="110" height="56" rx="2" ry="2"/>
        <text class="cls-11" transform="translate(839.3262 2082.6799)"><tspan x="0" y="0">600</tspan></text>
        <text class="cls-12" transform="translate(829.1973 2094.6799)"><tspan x="0" y="0">#88</tspan><tspan class="cls-124" x="17.56" y="0">8</tspan><tspan class="cls-111" x="23.08" y="0">7</tspan><tspan x="27.51" y="0">49</tspan></text>
        <rect class="cls-30" x="905" y="2016.68" width="110" height="56" rx="2" ry="2"/>
        <text class="cls-11" transform="translate(953.3262 2082.6799)"><tspan x="0" y="0">500</tspan></text>
        <text class="cls-12" transform="translate(943.1973 2094.6799)"><tspan x="0" y="0">#a8a65c</tspan></text>
        <rect class="cls-32" x="1019" y="2016.68" width="110" height="56" rx="2" ry="2"/>
        <text class="cls-11" transform="translate(1067.3262 2082.6799)"><tspan x="0" y="0">400</tspan></text>
        <text class="cls-12" transform="translate(1057.1973 2094.6799)"><tspan x="0" y="0">#bcba81</tspan></text>
        <rect class="cls-39" x="1133" y="2016.68" width="110" height="56" rx="2" ry="2"/>
        <text class="cls-11" transform="translate(1181.3262 2082.6799)"><tspan x="0" y="0">300</tspan></text>
        <text class="cls-12" transform="translate(1171.1973 2094.6799)"><tspan x="0" y="0">#d1d0a8</tspan></text>
        <rect class="cls-36" x="1247" y="2016.68" width="110" height="56" rx="2" ry="2"/>
        <text class="cls-11" transform="translate(1295.3262 2082.6799)"><tspan x="0" y="0">200</tspan></text>
        <text class="cls-12" transform="translate(1285.1973 2094.6799)"><tspan x="0" y="0">#e</tspan><tspan class="cls-85" x="11.66" y="0">7</tspan><tspan x="15.9" y="0">e6cb</tspan></text>
        <rect class="cls-69" x="1361" y="2016.68" width="110" height="56" rx="2" ry="2"/>
        <text class="cls-11" transform="translate(1409.3262 2082.6799)"><tspan x="0" y="0">100</tspan></text>
        <text class="cls-12" transform="translate(1399.1973 2094.6799)"><tspan x="0" y="0">#f5f5e</tspan><tspan class="cls-94" x="28.76" y="0">a</tspan></text>
        <text class="cls-14" transform="translate(449 2142.6799)"><tspan class="cls-50" x="0" y="0">Q</tspan><tspan class="cls-55" x="10.1" y="0">U</tspan><tspan class="cls-140" x="19.67" y="0">A</tspan><tspan class="cls-50" x="28.13" y="0">TERNA</tspan><tspan class="cls-53" x="75.38" y="0">R</tspan><tspan class="cls-45" x="84.51" y="0">Y</tspan><tspan class="cls-51" x="93.41" y="0" xml:space="preserve"> — Q</tspan></text>
        <rect class="cls-28" x="449" y="2148.68" width="110" height="56" rx="2" ry="2"/>
        <text class="cls-11" transform="translate(497.3262 2214.6799)"><tspan x="0" y="0">900</tspan></text>
        <text class="cls-12" transform="translate(487.1973 2226.6799)"><tspan x="0" y="0">#2d2006</tspan></text>
        <rect class="cls-154" x="563" y="2148.68" width="110" height="56" rx="2" ry="2"/>
        <text class="cls-11" transform="translate(611.3262 2214.6799)"><tspan x="0" y="0">800</tspan></text>
        <text class="cls-12" transform="translate(601.1973 2226.6799)"><tspan x="0" y="0">#553c0c</tspan></text>
        <rect class="cls-44" x="677" y="2148.68" width="110" height="56" rx="2" ry="2"/>
        <text class="cls-11" transform="translate(725.3262 2214.6799)"><tspan class="cls-104" x="0" y="0">7</tspan><tspan x="4.81" y="0">00</tspan></text>
        <text class="cls-12" transform="translate(715.1973 2226.6799)"><tspan x="0" y="0">#866118</tspan></text>
        <rect class="cls-153" x="791" y="2148.68" width="110" height="56" rx="2" ry="2"/>
        <text class="cls-11" transform="translate(839.3262 2214.6799)"><tspan x="0" y="0">600</tspan></text>
        <text class="cls-12" transform="translate(829.1973 2226.6799)"><tspan x="0" y="0">#b18020</tspan></text>
        <rect class="cls-20" x="905" y="2148.68" width="110" height="56" rx="2" ry="2"/>
        <text class="cls-11" transform="translate(953.3262 2214.6799)"><tspan x="0" y="0">500</tspan></text>
        <text class="cls-12" transform="translate(943.1973 2226.6799)"><tspan x="0" y="0">#d99e2b</tspan></text>
        <rect class="cls-73" x="1019" y="2148.68" width="110" height="56" rx="2" ry="2"/>
        <text class="cls-11" transform="translate(1067.3262 2214.6799)"><tspan x="0" y="0">400</tspan></text>
        <text class="cls-12" transform="translate(1057.1973 2226.6799)"><tspan x="0" y="0">#e2b45b</tspan></text>
        <rect class="cls-1" x="1133" y="2148.68" width="110" height="56" rx="2" ry="2"/>
        <text class="cls-11" transform="translate(1181.3262 2214.6799)"><tspan x="0" y="0">300</tspan></text>
        <text class="cls-12" transform="translate(1171.1973 2226.6799)"><tspan x="0" y="0">#ebcc8e</tspan></text>
        <rect class="cls-82" x="1247" y="2148.68" width="110" height="56" rx="2" ry="2"/>
        <text class="cls-11" transform="translate(1295.3262 2214.6799)"><tspan x="0" y="0">200</tspan></text>
        <text class="cls-12" transform="translate(1285.1973 2226.6799)"><tspan x="0" y="0">#f6e2bc</tspan></text>
        <rect class="cls-68" x="1361" y="2148.68" width="110" height="56" rx="2" ry="2"/>
        <text class="cls-11" transform="translate(1409.3262 2214.6799)"><tspan x="0" y="0">100</tspan></text>
        <text class="cls-12" transform="translate(1399.1973 2226.6799)"><tspan x="0" y="0">#f</tspan><tspan class="cls-121" x="9.52" y="0">b</tspan><tspan class="cls-66" x="15.27" y="0">f3e4</tspan></text>
        <text class="cls-14" transform="translate(449 2274.6799)"><tspan class="cls-50" x="0" y="0">NEUTRA</tspan><tspan class="cls-56" x="57.09" y="0">L</tspan><tspan class="cls-51" x="65.45" y="0" xml:space="preserve"> — N</tspan></text>
        <rect class="cls-78" x="449" y="2280.68" width="110" height="56" rx="2" ry="2"/>
        <text class="cls-11" transform="translate(497.3262 2346.6799)"><tspan x="0" y="0">900</tspan></text>
        <text class="cls-12" transform="translate(487.1973 2358.6799)"><tspan x="0" y="0">#1c1</tspan><tspan class="cls-115" x="17.88" y="0">a</tspan><tspan x="22.75" y="0">1</tspan><tspan class="cls-98" x="25.91" y="0">7</tspan></text>
        <rect class="cls-15" x="563" y="2280.68" width="110" height="56" rx="2" ry="2"/>
        <text class="cls-11" transform="translate(611.3262 2346.6799)"><tspan x="0" y="0">800</tspan></text>
        <text class="cls-12" transform="translate(601.1973 2358.6799)"><tspan x="0" y="0">#35302c</tspan></text>
        <rect class="cls-67" x="677" y="2280.68" width="110" height="56" rx="2" ry="2"/>
        <text class="cls-11" transform="translate(725.3262 2346.6799)"><tspan class="cls-104" x="0" y="0">7</tspan><tspan x="4.81" y="0">00</tspan></text>
        <text class="cls-12" transform="translate(715.1973 2358.6799)"><tspan x="0" y="0">#554f4</tspan><tspan class="cls-93" x="31.22" y="0">a</tspan></text>
        <rect class="cls-57" x="791" y="2280.68" width="110" height="56" rx="2" ry="2"/>
        <text class="cls-11" transform="translate(839.3262 2346.6799)"><tspan x="0" y="0">600</tspan></text>
        <text class="cls-12" transform="translate(829.1973 2358.6799)"><tspan class="cls-92" x="0" y="0">#</tspan><tspan class="cls-104" x="6.07" y="0">7</tspan><tspan x="10.88" y="0">06961</tspan></text>
        <rect class="cls-9" x="905" y="2280.68" width="110" height="56" rx="2" ry="2"/>
        <text class="cls-11" transform="translate(953.3262 2346.6799)"><tspan x="0" y="0">500</tspan></text>
        <text class="cls-12" transform="translate(943.1973 2358.6799)"><tspan x="0" y="0">#8b8279</tspan></text>
        <rect class="cls-114" x="1019" y="2280.68" width="110" height="56" rx="2" ry="2"/>
        <text class="cls-11" transform="translate(1067.3262 2346.6799)"><tspan x="0" y="0">400</tspan></text>
        <text class="cls-12" transform="translate(1057.1973 2358.6799)"><tspan x="0" y="0">#a59e</tspan><tspan class="cls-98" x="27.84" y="0">97</tspan></text>
        <rect class="cls-21" x="1133" y="2280.68" width="110" height="56" rx="2" ry="2"/>
        <text class="cls-11" transform="translate(1181.3262 2346.6799)"><tspan x="0" y="0">300</tspan></text>
        <text class="cls-12" transform="translate(1171.1973 2358.6799)"><tspan x="0" y="0">#c1bdb8</tspan></text>
        <rect class="cls-147" x="1247" y="2280.68" width="110" height="56" rx="2" ry="2"/>
        <text class="cls-11" transform="translate(1295.3262 2346.6799)"><tspan x="0" y="0">200</tspan></text>
        <text class="cls-12" transform="translate(1285.1973 2358.6799)"><tspan x="0" y="0">#dcd9d5</tspan></text>
        <rect class="cls-43" x="1361" y="2280.68" width="110" height="56" rx="2" ry="2"/>
        <text class="cls-11" transform="translate(1409.3262 2346.6799)"><tspan x="0" y="0">100</tspan></text>
        <text class="cls-12" transform="translate(1399.1973 2358.6799)"><tspan x="0" y="0">#f1f0ee</tspan></text>
        <text class="cls-14" transform="translate(449 2406.6799)"><tspan class="cls-50" x="0" y="0">NEUTRA</tspan><tspan class="cls-56" x="57.09" y="0">L</tspan><tspan class="cls-46" x="65.45" y="0"> </tspan><tspan class="cls-136" x="70.27" y="0">V</tspan><tspan class="cls-51" x="78.98" y="0">ARIAN</tspan><tspan class="cls-47" x="123.06" y="0">T</tspan><tspan class="cls-51" x="132.04" y="0" xml:space="preserve"> — N</tspan><tspan class="cls-46" x="165.52" y="0">V</tspan></text>
        <rect class="cls-16" x="449" y="2412.68" width="110" height="56" rx="2" ry="2"/>
        <text class="cls-11" transform="translate(497.3262 2478.6799)"><tspan x="0" y="0">900</tspan></text>
        <text class="cls-12" transform="translate(487.1973 2490.6799)"><tspan x="0" y="0">#1d1c16</tspan></text>
        <rect class="cls-40" x="563" y="2412.68" width="110" height="56" rx="2" ry="2"/>
        <text class="cls-11" transform="translate(611.3262 2478.6799)"><tspan x="0" y="0">800</tspan></text>
        <text class="cls-12" transform="translate(601.1973 2490.6799)"><tspan x="0" y="0">#383529</tspan></text>
        <rect class="cls-18" x="677" y="2412.68" width="110" height="56" rx="2" ry="2"/>
        <text class="cls-11" transform="translate(725.3262 2478.6799)"><tspan class="cls-104" x="0" y="0">7</tspan><tspan x="4.81" y="0">00</tspan></text>
        <text class="cls-12" transform="translate(715.1973 2490.6799)"><tspan x="0" y="0">#595546</tspan></text>
        <rect class="cls-38" x="791" y="2412.68" width="110" height="56" rx="2" ry="2"/>
        <text class="cls-11" transform="translate(839.3262 2478.6799)"><tspan x="0" y="0">600</tspan></text>
        <text class="cls-12" transform="translate(829.1973 2490.6799)"><tspan class="cls-92" x="0" y="0">#</tspan><tspan x="6.07" y="0">75715c</tspan></text>
        <rect class="cls-152" x="905" y="2412.68" width="110" height="56" rx="2" ry="2"/>
        <text class="cls-11" transform="translate(953.3262 2478.6799)"><tspan x="0" y="0">500</tspan></text>
        <text class="cls-12" transform="translate(943.1973 2490.6799)"><tspan x="0" y="0">#918c73</tspan></text>
        <rect class="cls-149" x="1019" y="2412.68" width="110" height="56" rx="2" ry="2"/>
        <text class="cls-11" transform="translate(1067.3262 2478.6799)"><tspan x="0" y="0">400</tspan></text>
        <text class="cls-12" transform="translate(1057.1973 2490.6799)"><tspan x="0" y="0">#aaa692</tspan></text>
        <rect class="cls-65" x="1133" y="2412.68" width="110" height="56" rx="2" ry="2"/>
        <text class="cls-11" transform="translate(1181.3262 2478.6799)"><tspan x="0" y="0">300</tspan></text>
        <text class="cls-12" transform="translate(1171.1973 2490.6799)"><tspan x="0" y="0">#c5c2b5</tspan></text>
        <rect class="cls-62" x="1247" y="2412.68" width="110" height="56" rx="2" ry="2"/>
        <text class="cls-11" transform="translate(1295.3262 2478.6799)"><tspan x="0" y="0">200</tspan></text>
        <text class="cls-12" transform="translate(1285.1973 2490.6799)"><tspan x="0" y="0">#deddd3</tspan></text>
        <rect class="cls-113" x="1361" y="2412.68" width="110" height="56" rx="2" ry="2"/>
        <text class="cls-11" transform="translate(1409.3262 2478.6799)"><tspan x="0" y="0">100</tspan></text>
        <text class="cls-12" transform="translate(1399.1973 2490.6799)"><tspan x="0" y="0">#f2f1ed</tspan></text>
      </g>
    </g>
  </g>
</svg>