<?xml version="1.0" encoding="UTF-8"?>
<svg id="Layer_1" data-name="Layer 1" xmlns="http://www.w3.org/2000/svg" viewBox="0 0 859.15 246.77">
  <defs>
    <style>
      .cls-1 {
        fill: #2b3a4a;
      }
    </style>
  </defs>
  <g>
    <g>
      <rect class="cls-1" x="222.93" y="179.72" width="192.29" height="14.31" rx="1.3" ry="1.3"/>
      <rect class="cls-1" x="492.47" y="179.72" width="366.68" height="14.31" rx="1.3" ry="1.3"/>
      <path class="cls-1" d="M252.98,160.82c16.57,0,30.05-13.48,30.05-30.05s-13.48-30.05-30.05-30.05c-5.6,0-10.99,1.55-15.73,4.49v-41.37c0-.72-.58-1.3-1.3-1.3h-11.71c-.72,0-1.3.58-1.3,1.3v66.92c0,16.57,13.48,30.05,30.05,30.05ZM237.25,130.77c0-8.68,7.06-15.74,15.73-15.74s15.74,7.06,15.74,15.74-7.06,15.73-15.74,15.73-15.73-7.06-15.73-15.73Z"/>
      <path class="cls-1" d="M319.36,160.82c16.57,0,30.05-13.48,30.05-30.05s-13.48-30.05-30.05-30.05-30.05,13.48-30.05,30.05,13.48,30.05,30.05,30.05ZM303.62,130.77c0-8.68,7.06-15.74,15.74-15.74s15.74,7.06,15.74,15.74-7.06,15.73-15.74,15.73-15.74-7.06-15.74-15.73Z"/>
      <path class="cls-1" d="M479.45,104.27h-11.71c-.72,0-1.3.58-1.3,1.3v27.8c0,7.24-5.89,13.13-13.13,13.13s-13.13-5.89-13.13-13.13v-27.8c0-.72-.58-1.3-1.3-1.3h-11.71c-.72,0-1.3.58-1.3,1.3v27.8c0,15.13,12.31,27.45,27.45,27.45,4.62,0,9.11-1.15,13.13-3.36v1.38c0,4.9-1.51,20.88-20.94,20.88h-15.08c-.72,0-1.3.58-1.3,1.3v11.71c0,.72.58,1.3,1.3,1.3h15.08c24.35,0,35.25-17.68,35.25-35.19v-53.27c0-.72-.58-1.3-1.3-1.3Z"/>
      <path class="cls-1" d="M521.24,160.29c14.97,0,27.16-12.18,27.16-27.16s-12.18-27.16-27.16-27.16c-7.38,0-14.26,2.93-19.35,8.15v-49.05c0-.72-.58-1.3-1.3-1.3h-5.21c-.72,0-1.3.58-1.3,1.3v68.06c0,14.97,12.18,27.16,27.16,27.16ZM501.89,133.13c0-10.67,8.68-19.35,19.35-19.35s19.35,8.68,19.35,19.35-8.68,19.35-19.35,19.35-19.35-8.68-19.35-19.35Z"/>
      <rect class="cls-1" x="617.99" y="63.77" width="7.81" height="96.4" rx="1.3" ry="1.3"/>
      <path class="cls-1" d="M581.7,160.29c7.38,0,14.26-2.93,19.35-8.15v6.73c0,.72.58,1.3,1.3,1.3h5.21c.72,0,1.3-.58,1.3-1.3v-25.74c0-14.97-12.18-27.16-27.16-27.16s-27.16,12.18-27.16,27.16,12.18,27.16,27.16,27.16ZM562.35,133.13c0-10.67,8.68-19.35,19.35-19.35s19.35,8.68,19.35,19.35-8.68,19.35-19.35,19.35-19.35-8.68-19.35-19.35Z"/>
      <path class="cls-1" d="M661.05,160.29c7.38,0,14.26-2.93,19.35-8.15v6.73c0,.72.58,1.3,1.3,1.3h5.21c.72,0,1.3-.58,1.3-1.3v-25.74c0-14.97-12.18-27.16-27.16-27.16s-27.16,12.18-27.16,27.16,12.18,27.16,27.16,27.16ZM641.7,133.13c0-10.67,8.68-19.35,19.35-19.35s19.35,8.68,19.35,19.35-8.68,19.35-19.35,19.35-19.35-8.68-19.35-19.35Z"/>
      <path class="cls-1" d="M780.44,160.29c7.26,0,14.08-2.82,19.2-7.95.51-.51.51-1.33,0-1.84l-3.68-3.68c-.24-.24-.58-.38-.92-.38s-.68.14-.92.38c-7.54,7.54-19.82,7.54-27.36,0-7.54-7.54-7.54-19.82,0-27.37,3.65-3.65,8.51-5.67,13.68-5.67s10.03,2.01,13.68,5.67c.51.51,1.33.51,1.84,0l3.68-3.68c.51-.51.51-1.33,0-1.84-5.13-5.13-11.95-7.96-19.2-7.96s-14.07,2.82-19.2,7.96c-10.59,10.59-10.59,27.82,0,38.4,5.13,5.13,11.95,7.95,19.2,7.95Z"/>
      <path class="cls-1" d="M699.13,160.17h5.21c.72,0,1.3-.58,1.3-1.3v-28.78c0-8.99,7.32-16.31,16.31-16.31s16.31,7.32,16.31,16.31v28.78c0,.72.58,1.3,1.3,1.3h5.21c.72,0,1.3-.58,1.3-1.3v-28.78c0-13.3-10.82-24.12-24.12-24.12s-24.12,10.82-24.12,24.12v28.78c0,.72.58,1.3,1.3,1.3Z"/>
      <path class="cls-1" d="M414.48,62.55h-11.71c-.72,0-1.3.58-1.3,1.3v41.37c-4.75-2.95-10.14-4.49-15.74-4.49-16.57,0-30.05,13.48-30.05,30.05s13.48,30.05,30.05,30.05,30.05-13.48,30.05-30.05V63.85c0-.72-.58-1.3-1.3-1.3ZM385.73,115.04c8.68,0,15.74,7.06,15.74,15.74s-7.06,15.73-15.74,15.73-15.74-7.06-15.74-15.73,7.06-15.74,15.74-15.74Z"/>
      <path class="cls-1" d="M831.39,105.99s-.04,0-.06,0c-15.53.68-26.38,12.13-26.38,27.83s14.02,26.48,27.02,26.48c14.02,0,22.37-7.97,25.26-14.8.17-.4.13-.86-.11-1.23-.24-.36-.65-.58-1.09-.58h-5.89c-.45,0-.86.23-1.1.61-1.55,2.46-6.31,8.2-17.06,8.2-7.34,0-17.8-5.08-19.08-16.31h44.97c.72,0,1.3-.58,1.3-1.3v-2.6c0-14.74-12.2-26.28-27.77-26.28ZM850.92,128.37h-37.56c2.02-8.63,8.86-14.16,18.13-14.58,9.61,0,17.54,6.05,19.43,14.58Z"/>
    </g>
    <g>
      <path class="cls-1" d="M715.15,220.25h-16.96c-.31,0-.57.11-.78.32s-.32.47-.32.78v23.82c0,.31.11.57.32.78s.47.32.78.32h16.96c.31,0,.57-.11.78-.32s.32-.47.32-.78v-2.28c0-.31-.11-.57-.32-.78s-.47-.32-.78-.32h-11.98c-.31,0-.57-.11-.78-.32s-.32-.47-.32-.78v-3.91c0-.31.11-.57.32-.78s.47-.32.78-.32h10.38c.31,0,.57-.11.78-.32s.32-.47.32-.78v-2.31c0-.31-.11-.57-.32-.78s-.47-.32-.78-.32h-10.38c-.31,0-.57-.11-.78-.32-.21-.21-.32-.47-.32-.78v-4.3c0-.31.11-.57.32-.78.21-.21.47-.32.78-.32h11.98c.31,0,.57-.11.78-.32s.32-.47.32-.78v-2.2c0-.31-.11-.57-.32-.78s-.47-.32-.78-.32Z"/>
      <path class="cls-1" d="M746.47,223.52c-2.39-2.18-5.45-3.27-9.17-3.27h-9.17c-.31,0-.56.11-.76.32s-.3.47-.3.78v23.82c0,.31.1.57.3.78s.46.32.76.32h9.17c1.82,0,3.52-.27,5.08-.82,1.52-.52,2.88-1.33,4.09-2.42,1.3-1.18,2.26-2.59,2.88-4.23.33-.83.58-1.7.75-2.61.17-.91.25-1.89.25-2.93,0-1.97-.33-3.82-1-5.55-.64-1.61-1.6-3.01-2.88-4.19ZM744.62,237.67c-.52,1.14-1.16,2-1.92,2.59-.78.64-1.64,1.07-2.56,1.28-.97.21-1.91.32-2.81.32h-4.23c-.31,0-.56-.11-.76-.32-.2-.21-.3-.47-.3-.78v-14.93c0-.31.1-.57.3-.78.2-.21.46-.32.76-.32h4.23c.88,0,1.8.11,2.77.32.95.21,1.81.63,2.6,1.24.76.59,1.4,1.46,1.92,2.59.5,1.14.75,2.61.75,4.41s-.25,3.28-.75,4.37Z"/>
      <path class="cls-1" d="M763.49,220.29h-2.81c-.31,0-.56.11-.76.32s-.3.47-.3.78v23.78c0,.31.1.57.3.78s.46.32.76.32h2.81c.31,0,.57-.11.78-.32.21-.21.32-.47.32-.78v-23.78c0-.31-.11-.57-.32-.78-.21-.21-.48-.32-.78-.32Z"/>
      <path class="cls-1" d="M781.31,227.11c.73-.81,1.62-1.46,2.67-1.96,1.06-.47,2.18-.71,3.34-.71.73,0,1.44.11,2.13.32.33.12.66.25.99.39.33.14.65.31.96.5s.6.39.87.6c.27.21.54.45.8.71.12.12.24.24.36.37.12.13.24.25.36.37.19.24.44.4.76.48s.61.06.87-.05l2.63-1.07c.28-.12.48-.3.57-.55.1-.25.06-.5-.11-.77-.43-.64-.94-1.27-1.53-1.88-.4-.4-.84-.79-1.3-1.16-.46-.37-.96-.71-1.47-1.01-1-.59-2.09-1.05-3.27-1.39-1.21-.33-2.42-.5-3.63-.5-1.85,0-3.59.36-5.23,1.07-1.61.71-3.05,1.67-4.3,2.88-1.21,1.26-2.17,2.69-2.88,4.3-.71,1.63-1.07,3.38-1.07,5.23s.36,3.59,1.07,5.23c.71,1.64,1.67,3.06,2.88,4.27,1.23,1.23,2.67,2.2,4.3,2.92s3.38,1.07,5.23,1.07c1.21,0,2.42-.17,3.63-.5.59-.17,1.16-.37,1.71-.6.55-.24,1.07-.51,1.57-.82,1.06-.61,1.99-1.34,2.77-2.17.28-.28.55-.59.8-.91.25-.32.49-.65.73-.98.17-.26.2-.52.11-.78-.09-.26-.28-.45-.57-.57l-2.63-1.07c-.26-.12-.55-.13-.87-.03s-.58.26-.76.5c-.12.12-.24.24-.36.37s-.24.25-.36.37c-.26.26-.53.5-.8.73-.27.22-.56.43-.87.62s-.63.36-.96.5c-.33.14-.66.27-.99.39-.69.21-1.4.32-2.13.32-1.21,0-2.32-.25-3.34-.75-1.04-.45-1.93-1.09-2.67-1.92-.76-.83-1.36-1.76-1.81-2.81-.45-1.04-.68-2.17-.68-3.38s.22-2.31.68-3.38c.45-1.04,1.05-1.98,1.81-2.81Z"/>
      <path class="cls-1" d="M859.16,242.19c-.21-.21-.47-.32-.78-.32h-11.55c-.31,0-.57-.11-.78-.32-.21-.21-.32-.47-.32-.78v-19.41c0-.31-.11-.57-.32-.78-.21-.21-.48-.32-.78-.32h-2.77c-.31,0-.57.11-.78.32-.21.21-.32.47-.32.78v23.82c0,.31.11.57.32.78.21.21.48.32.78.32h16.53c.31,0,.57-.11.78-.32.21-.21.32-.47.32-.78v-2.2c0-.31-.11-.57-.32-.78Z"/>
      <path class="cls-1" d="M827.28,222.81c-.92-.92-2.1-1.66-3.52-2.2-1.33-.52-2.86-.78-4.59-.78s-3.27.26-4.62.78c-1.4.54-2.57,1.28-3.52,2.2-.97.97-1.72,2.12-2.24,3.45-.26.69-.46,1.4-.59,2.15-.13.75-.2,1.53-.2,2.36v14.4c0,.31.11.57.32.78.21.21.48.32.78.32h2.77c.31,0,.57-.11.78-.32.21-.21.32-.47.32-.78v-5.97c0-.65.5-1.1,1.1-1.1h10.17c.55,0,1.1.51,1.1,1.1v5.97c0,.31.11.57.32.78.21.21.48.32.78.32h2.81c.28,0,.53-.11.75-.32.21-.21.32-.47.32-.78v-14.4c0-1.68-.26-3.19-.78-4.51-.52-1.35-1.28-2.5-2.28-3.45ZM824.26,233.69h-10.17c-.55,0-1.1-.55-1.1-1.1v-1.79c0-1.3.21-2.38.64-3.24.43-.85.96-1.53,1.6-2.03.62-.52,1.29-.87,2.03-1.03.76-.19,1.4-.28,1.92-.28.28,0,.59.02.91.07s.67.12,1.05.21c.69.17,1.36.51,2.03,1.03.61.52,1.14,1.2,1.56,2.03.43.85.64,1.93.64,3.24v1.78c0,.55-.48,1.1-1.1,1.1Z"/>
      <path class="cls-1" d="M683.65,222.81c-.92-.92-2.1-1.66-3.52-2.2-1.33-.52-2.86-.78-4.59-.78s-3.27.26-4.62.78c-1.4.54-2.57,1.28-3.52,2.2-.19.19-.33.42-.5.62-.18-.2-.32-.43-.52-.62-.92-.92-2.1-1.66-3.52-2.2-1.33-.52-2.86-.78-4.59-.78s-3.27.26-4.62.78c-1.4.54-2.57,1.28-3.52,2.2-.97.97-1.72,2.12-2.24,3.45-.26.69-.46,1.4-.59,2.15-.13.75-.2,1.53-.2,2.36v14.4c0,.31.11.57.32.78s.47.32.78.32h2.77c.31,0,.57-.11.78-.32s.32-.47.32-.78v-14.36c0-1.3.21-2.38.64-3.24s.96-1.53,1.6-2.03c.62-.52,1.29-.87,2.03-1.03.76-.19,1.4-.28,1.92-.28.28,0,.59.02.91.07.32.05.67.12,1.05.21.69.17,1.36.51,2.03,1.03.62.52,1.14,1.2,1.56,2.03.37.73.54,1.67.59,2.74,0,.16-.04.3-.04.46v14.4c0,.31.11.57.32.78.21.21.47.32.78.32h2.89c.28,0,.53-.11.75-.32s.32-.47.32-.78v-14.4c0-.16-.03-.3-.04-.46.05-1.07.23-2,.59-2.74.43-.85.96-1.53,1.6-2.03.62-.52,1.29-.87,2.03-1.03.76-.19,1.4-.28,1.92-.28.28,0,.59.02.91.07.32.05.67.12,1.05.21.69.17,1.36.51,2.03,1.03.62.52,1.14,1.2,1.56,2.03.43.85.64,1.93.64,3.24v14.36c0,.31.11.57.32.78s.47.32.78.32h2.81c.28,0,.53-.11.75-.32s.32-.47.32-.78v-14.4c0-1.68-.26-3.19-.78-4.51-.52-1.35-1.28-2.5-2.28-3.45Z"/>
    </g>
  </g>
  <g>
    <g>
      <path class="cls-1" d="M91.67,210.53c30.56,0,55.42-24.7,55.42-55.06s-24.86-55.06-55.42-55.06c-6.62,0-13.1,1.18-19.2,3.41v19.97c5.76-3.42,12.37-5.27,19.2-5.27,20.57,0,37.31,16.57,37.31,36.94s-16.74,36.94-37.31,36.94-37.31-16.57-37.31-36.94V0h-18.11v155.48c0,30.36,24.86,55.06,55.42,55.06Z"/>
      <path class="cls-1" d="M91.67,63.43c-6.52,0-12.93.69-19.2,2.03v18.63c6.22-1.68,12.64-2.54,19.2-2.54,40.56,0,73.56,33,73.56,73.56s-33,73.56-73.56,73.56S18.11,195.66,18.11,155.1V0H0v155.1c0,50.55,41.12,91.67,91.67,91.67s91.67-41.12,91.67-91.67-41.12-91.67-91.67-91.67Z"/>
    </g>
    <circle class="cls-1" cx="91.67" cy="155.7" r="19.17"/>
  </g>
</svg>