<?xml version="1.0" encoding="UTF-8"?>
<svg id="Layer_1" data-name="Layer 1" xmlns="http://www.w3.org/2000/svg" viewBox="0 0 600 600">
  <defs>
    <style>
      .cls-1 {
        fill: #ebcc8e;
      }
    </style>
  </defs>
  <path class="cls-1" d="M300,511.89c74.3,0,134.75-60.05,134.75-133.86s-60.45-133.87-134.75-133.87c-16.09,0-31.86,2.87-46.67,8.3v48.56c14-8.33,30.09-12.82,46.67-12.82,50.02,0,90.71,40.3,90.71,89.83s-40.69,89.82-90.71,89.82-90.72-40.3-90.72-89.82V0h-44.04v378.02c0,73.81,60.45,133.86,134.75,133.86Z"/>
  <path class="cls-1" d="M300,154.23c-15.85,0-31.44,1.68-46.67,4.93v45.29c15.11-4.08,30.73-6.18,46.67-6.18,98.62,0,178.85,80.23,178.85,178.85s-80.23,178.85-178.85,178.85-178.85-80.23-178.85-178.85V0h-44.04v377.11c0,122.9,99.99,222.89,222.89,222.89s222.88-99.99,222.88-222.89-99.99-222.89-222.88-222.89Z"/>
  <circle class="cls-1" cx="300" cy="378.57" r="46.6"/>
</svg>