<?xml version="1.0" encoding="UTF-8"?>
<svg id="Layer_1" data-name="Layer 1" xmlns="http://www.w3.org/2000/svg" viewBox="0 0 600 600">
  <defs>
    <style>
      .cls-1 {
        fill: #1c1a17;
      }
    </style>
  </defs>
  <g>
    <g>
      <path class="cls-1" d="M300.48,306.2c20.12,0,36.49-16.26,36.49-36.25s-16.37-36.26-36.49-36.26c-4.36,0-8.63.78-12.64,2.25v13.15c3.79-2.26,8.15-3.47,12.64-3.47,13.55,0,24.57,10.91,24.57,24.33s-11.02,24.33-24.57,24.33-24.57-10.91-24.57-24.33v-102.38h-11.93v102.38c0,19.99,16.37,36.25,36.5,36.25Z"/>
      <path class="cls-1" d="M300.48,209.33c-4.29,0-8.51.45-12.64,1.33v12.27c4.09-1.1,8.32-1.67,12.64-1.67,26.71,0,48.44,21.73,48.44,48.44s-21.73,48.44-48.44,48.44-48.44-21.73-48.44-48.44v-102.13h-11.93v102.13c0,33.29,27.08,60.37,60.37,60.37s60.36-27.08,60.36-60.37-27.08-60.37-60.36-60.37Z"/>
    </g>
    <g>
      <rect class="cls-1" x="148.74" y="400.56" width="91.43" height="6.81" rx=".62" ry=".62"/>
      <rect class="cls-1" x="276.9" y="400.56" width="174.36" height="6.81" rx=".62" ry=".62"/>
      <path class="cls-1" d="M163.03,391.57c7.88,0,14.29-6.41,14.29-14.29s-6.41-14.29-14.29-14.29c-2.66,0-5.23.73-7.48,2.14v-19.67c0-.34-.28-.62-.62-.62h-5.57c-.34,0-.62.28-.62.62v31.82c0,7.88,6.41,14.29,14.29,14.29ZM155.55,377.28c0-4.13,3.36-7.48,7.48-7.48s7.48,3.36,7.48,7.48-3.36,7.48-7.48,7.48-7.48-3.36-7.48-7.48Z"/>
      <path class="cls-1" d="M194.59,391.57c7.88,0,14.29-6.41,14.29-14.29s-6.41-14.29-14.29-14.29-14.29,6.41-14.29,14.29,6.41,14.29,14.29,14.29ZM187.11,377.28c0-4.13,3.36-7.48,7.48-7.48s7.48,3.36,7.48,7.48-3.36,7.48-7.48,7.48-7.48-3.36-7.48-7.48Z"/>
      <path class="cls-1" d="M270.71,364.68h-5.57c-.34,0-.62.28-.62.62v13.22c0,3.44-2.8,6.24-6.24,6.24s-6.24-2.8-6.24-6.24v-13.22c0-.34-.28-.62-.62-.62h-5.57c-.34,0-.62.28-.62.62v13.22c0,7.2,5.85,13.05,13.05,13.05,2.19,0,4.33-.55,6.24-1.6v.66c0,2.33-.72,9.93-9.96,9.93h-7.17c-.34,0-.62.28-.62.62v5.57c0,.34.28.62.62.62h7.17c11.58,0,16.76-8.41,16.76-16.73v-25.33c0-.34-.28-.62-.62-.62Z"/>
      <path class="cls-1" d="M290.58,391.32c7.12,0,12.91-5.79,12.91-12.91s-5.79-12.91-12.91-12.91c-3.51,0-6.78,1.39-9.2,3.88v-23.32c0-.34-.28-.62-.62-.62h-2.48c-.34,0-.62.28-.62.62v32.36c0,7.12,5.79,12.91,12.91,12.91ZM281.38,378.4c0-5.07,4.13-9.2,9.2-9.2s9.2,4.13,9.2,9.2-4.13,9.2-9.2,9.2-9.2-4.13-9.2-9.2Z"/>
      <rect class="cls-1" x="336.59" y="345.42" width="3.71" height="45.84" rx=".62" ry=".62"/>
      <path class="cls-1" d="M319.33,391.32c3.51,0,6.78-1.39,9.2-3.88v3.2c0,.34.28.62.62.62h2.48c.34,0,.62-.28.62-.62v-12.24c0-7.12-5.79-12.91-12.91-12.91s-12.91,5.79-12.91,12.91,5.79,12.91,12.91,12.91ZM310.13,378.4c0-5.07,4.13-9.2,9.2-9.2s9.2,4.13,9.2,9.2-4.13,9.2-9.2,9.2-9.2-4.13-9.2-9.2Z"/>
      <path class="cls-1" d="M357.06,391.32c3.51,0,6.78-1.39,9.2-3.88v3.2c0,.34.28.62.62.62h2.48c.34,0,.62-.28.62-.62v-12.24c0-7.12-5.79-12.91-12.91-12.91s-12.91,5.79-12.91,12.91,5.79,12.91,12.91,12.91ZM347.86,378.4c0-5.07,4.13-9.2,9.2-9.2s9.2,4.13,9.2,9.2-4.13,9.2-9.2,9.2-9.2-4.13-9.2-9.2Z"/>
      <path class="cls-1" d="M413.83,391.32c3.45,0,6.69-1.34,9.13-3.78.24-.24.24-.63,0-.87l-1.75-1.75c-.12-.12-.27-.18-.44-.18s-.32.07-.44.18c-3.59,3.59-9.43,3.59-13.01,0-3.59-3.59-3.59-9.42,0-13.01,1.74-1.74,4.05-2.69,6.51-2.69s4.77.96,6.51,2.69c.24.24.63.24.88,0l1.75-1.75c.24-.24.24-.63,0-.87-2.44-2.44-5.68-3.78-9.13-3.78s-6.69,1.34-9.13,3.78c-5.03,5.03-5.03,13.23,0,18.26,2.44,2.44,5.68,3.78,9.13,3.78Z"/>
      <path class="cls-1" d="M375.17,391.26h2.48c.34,0,.62-.28.62-.62v-13.68c0-4.28,3.48-7.76,7.76-7.76s7.76,3.48,7.76,7.76v13.68c0,.34.28.62.62.62h2.48c.34,0,.62-.28.62-.62v-13.68c0-6.32-5.14-11.47-11.47-11.47s-11.47,5.14-11.47,11.47v13.68c0,.34.28.62.62.62Z"/>
      <path class="cls-1" d="M239.82,344.84h-5.57c-.34,0-.62.28-.62.62v19.67c-2.26-1.4-4.82-2.14-7.48-2.14-7.88,0-14.29,6.41-14.29,14.29s6.41,14.29,14.29,14.29,14.29-6.41,14.29-14.29v-31.82c0-.34-.28-.62-.62-.62ZM226.15,369.8c4.13,0,7.48,3.36,7.48,7.48s-3.36,7.48-7.48,7.48-7.48-3.36-7.48-7.48,3.36-7.48,7.48-7.48Z"/>
      <path class="cls-1" d="M438.06,365.5s-.02,0-.03,0c-7.38.32-12.54,5.77-12.54,13.23s6.67,12.59,12.85,12.59c6.67,0,10.64-3.79,12.01-7.04.08-.19.06-.41-.05-.58-.12-.17-.31-.28-.52-.28h-2.8c-.21,0-.41.11-.52.29-.73,1.17-3,3.9-8.11,3.9-3.49,0-8.46-2.41-9.07-7.76h21.38c.34,0,.62-.28.62-.62v-1.24c0-7.01-5.8-12.5-13.2-12.5ZM447.35,376.14h-17.86c.96-4.1,4.21-6.73,8.62-6.93,4.57,0,8.34,2.87,9.24,6.93Z"/>
    </g>
    <g>
      <path class="cls-1" d="M281.56,419.83h-8.06c-.15,0-.27.05-.37.15s-.15.23-.15.37v11.33c0,.15.05.27.15.37s.22.15.37.15h8.06c.15,0,.27-.05.37-.15s.15-.22.15-.37v-1.08c0-.15-.05-.27-.15-.37s-.23-.15-.37-.15h-5.7c-.15,0-.27-.05-.37-.15s-.15-.23-.15-.37v-1.86c0-.15.05-.27.15-.37s.23-.15.37-.15h4.94c.15,0,.27-.05.37-.15s.15-.23.15-.37v-1.1c0-.15-.05-.27-.15-.37s-.23-.15-.37-.15h-4.94c-.15,0-.27-.05-.37-.15-.1-.1-.15-.23-.15-.37v-2.05c0-.15.05-.27.15-.37s.23-.15.37-.15h5.7c.15,0,.27-.05.37-.15s.15-.23.15-.37v-1.05c0-.15-.05-.27-.15-.37s-.23-.15-.37-.15Z"/>
      <path class="cls-1" d="M296.45,421.38c-1.14-1.04-2.59-1.56-4.36-1.56h-4.36c-.15,0-.27.05-.36.15s-.14.23-.14.37v11.33c0,.15.05.27.14.37s.22.15.36.15h4.36c.87,0,1.67-.13,2.42-.39.72-.25,1.37-.63,1.94-1.15.62-.56,1.08-1.23,1.37-2.01.16-.39.28-.81.36-1.24s.12-.9.12-1.39c0-.94-.16-1.81-.47-2.64-.3-.77-.76-1.43-1.37-1.99ZM295.58,428.11c-.25.54-.55.95-.91,1.23-.37.3-.78.51-1.22.61-.46.1-.91.15-1.34.15h-2.01c-.15,0-.27-.05-.36-.15-.1-.1-.14-.23-.14-.37v-7.1c0-.15.05-.27.14-.37.1-.1.22-.15.36-.15h2.01c.42,0,.86.05,1.32.15.45.1.86.3,1.23.59.36.28.66.69.91,1.23.24.54.36,1.24.36,2.1s-.12,1.56-.36,2.08Z"/>
      <path class="cls-1" d="M304.55,419.85h-1.34c-.15,0-.27.05-.36.15s-.14.23-.14.37v11.31c0,.15.05.27.14.37s.22.15.36.15h1.34c.15,0,.27-.05.37-.15.1-.1.15-.22.15-.37v-11.31c0-.15-.05-.27-.15-.37-.1-.1-.23-.15-.37-.15Z"/>
      <path class="cls-1" d="M313.02,423.09c.35-.38.77-.69,1.27-.93.51-.22,1.04-.34,1.59-.34.35,0,.69.05,1.01.15.16.06.32.12.47.19.16.07.31.15.46.24s.28.19.41.29c.13.1.26.21.38.34.06.06.11.12.17.18.06.06.11.12.17.18.09.11.21.19.36.23s.29.03.41-.03l1.25-.51c.14-.06.23-.14.27-.26.05-.12.03-.24-.05-.36-.2-.3-.44-.6-.73-.9-.19-.19-.4-.37-.62-.55s-.45-.34-.7-.48c-.47-.28-.99-.5-1.56-.66-.58-.16-1.15-.24-1.72-.24-.88,0-1.71.17-2.48.51-.77.34-1.45.79-2.05,1.37-.58.6-1.03,1.28-1.37,2.05-.34.78-.51,1.61-.51,2.48s.17,1.71.51,2.48c.34.78.79,1.45,1.37,2.03s1.27,1.05,2.05,1.39,1.61.51,2.48.51c.58,0,1.15-.08,1.72-.24.28-.08.55-.17.81-.29.26-.11.51-.24.74-.39.51-.29.95-.64,1.32-1.03.14-.14.26-.28.38-.43.12-.15.23-.31.35-.47.08-.12.1-.25.05-.37-.04-.12-.14-.21-.27-.27l-1.25-.51c-.12-.06-.26-.06-.41-.02s-.27.12-.36.24c-.06.06-.11.12-.17.18s-.11.12-.17.18c-.12.12-.25.24-.38.35-.13.11-.27.21-.41.3s-.3.17-.46.24c-.16.07-.31.13-.47.19-.33.1-.66.15-1.01.15-.58,0-1.1-.12-1.59-.36-.5-.21-.92-.52-1.27-.91-.36-.39-.65-.84-.86-1.34-.22-.5-.32-1.03-.32-1.61s.11-1.1.32-1.61c.21-.5.5-.94.86-1.34Z"/>
      <path class="cls-1" d="M350.04,430.26c-.1-.1-.22-.15-.37-.15h-5.49c-.15,0-.27-.05-.37-.15-.1-.1-.15-.23-.15-.37v-9.23c0-.15-.05-.27-.15-.37-.1-.1-.23-.15-.37-.15h-1.32c-.15,0-.27.05-.37.15-.1.1-.15.23-.15.37v11.33c0,.15.05.27.15.37.1.1.23.15.37.15h7.86c.15,0,.27-.05.37-.15.1-.1.15-.22.15-.37v-1.05c0-.15-.05-.27-.15-.37Z"/>
      <path class="cls-1" d="M334.88,421.05c-.44-.44-1-.79-1.67-1.05-.63-.25-1.36-.37-2.18-.37s-1.56.12-2.2.37c-.66.26-1.22.61-1.67,1.05-.46.46-.82,1.01-1.07,1.64-.12.33-.22.67-.28,1.02-.06.35-.09.73-.09,1.12v6.85c0,.15.05.27.15.37.1.1.23.15.37.15h1.32c.15,0,.27-.05.37-.15.1-.1.15-.23.15-.37v-2.84c0-.31.24-.52.52-.52h4.84c.26,0,.52.24.52.52v2.84c0,.15.05.27.15.37.1.1.23.15.37.15h1.34c.14,0,.25-.05.36-.15.1-.1.15-.23.15-.37v-6.85c0-.8-.12-1.52-.37-2.15-.25-.64-.61-1.19-1.08-1.64ZM333.44,426.22h-4.84c-.26,0-.52-.26-.52-.52v-.85c0-.62.1-1.13.3-1.54s.46-.73.76-.96c.29-.25.61-.41.96-.49.36-.09.66-.14.91-.14.14,0,.28.01.43.03s.32.06.5.1c.33.08.65.24.96.49.29.25.54.57.74.96.2.41.3.92.3,1.54v.85c0,.26-.23.52-.52.52Z"/>
      <path class="cls-1" d="M266.59,421.05c-.44-.44-1-.79-1.67-1.05-.63-.25-1.36-.37-2.18-.37s-1.56.12-2.2.37c-.66.26-1.22.61-1.67,1.05-.09.09-.16.2-.24.29-.08-.1-.15-.21-.25-.29-.44-.44-1-.79-1.67-1.05-.63-.25-1.36-.37-2.18-.37s-1.56.12-2.2.37c-.66.26-1.22.61-1.67,1.05-.46.46-.82,1.01-1.07,1.64-.12.33-.22.67-.28,1.02-.06.35-.09.73-.09,1.12v6.85c0,.15.05.27.15.37s.23.15.37.15h1.32c.15,0,.27-.05.37-.15s.15-.23.15-.37v-6.83c0-.62.1-1.13.3-1.54s.46-.73.76-.96c.29-.25.61-.41.96-.49.36-.09.67-.14.91-.14.14,0,.28.01.43.03.15.02.32.06.5.1.33.08.65.24.96.49.29.25.54.57.74.96.17.35.26.79.28,1.3,0,.08-.02.14-.02.22v6.85c0,.15.05.27.15.37s.23.15.37.15h1.38c.14,0,.25-.05.35-.15s.15-.23.15-.37v-6.85c0-.08-.02-.14-.02-.22.02-.51.11-.95.28-1.3.2-.41.46-.73.76-.96.29-.25.61-.41.96-.49.36-.09.67-.14.91-.14.14,0,.28.01.43.03.15.02.32.06.5.1.33.08.65.24.96.49.29.25.54.57.74.96.2.41.3.92.3,1.54v6.83c0,.15.05.27.15.37s.23.15.37.15h1.34c.14,0,.25-.05.35-.15s.15-.23.15-.37v-6.85c0-.8-.12-1.52-.37-2.15-.25-.64-.61-1.19-1.08-1.64Z"/>
    </g>
  </g>
  <circle class="cls-1" cx="300.48" cy="270.09" r="12.62"/>
</svg>