<?xml version="1.0" encoding="UTF-8"?>
<svg id="Layer_1" data-name="Layer 1" xmlns="http://www.w3.org/2000/svg" xmlns:xlink="http://www.w3.org/1999/xlink" viewBox="0 0 600 600">
  <defs>
    <style>
      .cls-1 {
        fill: url(#linear-gradient);
      }

      .cls-2 {
        fill: #1c1a17;
      }
    </style>
    <linearGradient id="linear-gradient" x1="0" y1="600" x2="600" y2="0" gradientUnits="userSpaceOnUse">
      <stop offset="0" stop-color="#676637"/>
      <stop offset=".17" stop-color="#6b6939"/>
      <stop offset=".34" stop-color="#777241"/>
      <stop offset=".52" stop-color="#8c824f"/>
      <stop offset=".7" stop-color="#a99962"/>
      <stop offset=".88" stop-color="#ceb57b"/>
      <stop offset="1" stop-color="#ebcc8e"/>
    </linearGradient>
  </defs>
  <rect class="cls-1" x="0" width="600" height="600"/>
  <g>
    <path class="cls-2" d="M300,386.82c30.44,0,55.21-24.6,55.21-54.85s-24.77-54.85-55.21-54.85c-6.59,0-13.05,1.17-19.12,3.4v19.9c5.74-3.41,12.33-5.25,19.12-5.25,20.49,0,37.17,16.51,37.17,36.8s-16.67,36.8-37.17,36.8-37.17-16.51-37.17-36.8v-154.89h-18.04v154.89c0,30.24,24.77,54.85,55.21,54.85Z"/>
    <path class="cls-2" d="M300,240.27c-6.49,0-12.88.69-19.12,2.02v18.56c6.19-1.67,12.59-2.53,19.12-2.53,40.41,0,73.28,32.87,73.28,73.28s-32.87,73.28-73.28,73.28-73.28-32.87-73.28-73.28v-154.51h-18.04v154.51c0,50.36,40.97,91.32,91.32,91.32s91.32-40.97,91.32-91.32-40.97-91.32-91.32-91.32Z"/>
    <circle class="cls-2" cx="300" cy="332.19" r="19.09"/>
  </g>
</svg>