<?xml version="1.0" encoding="UTF-8"?>
<svg id="Layer_1" data-name="Layer 1" xmlns="http://www.w3.org/2000/svg" viewBox="0 0 1920 3240">
  <defs>
    <style>
      .cls-1 {
        fill: #deddd3;
      }
    </style>
  </defs>
  <path class="cls-1" d="M1688.74,456.06c-33.66-.3-67.25-.75-100.89-.02-33.59.72-67.23,2.01-100.83,1.53-66.51-.96-132.8-7.15-199.35-6.85-135.25.61-270.39-5.77-405.6-8.24-131.93-2.41-265.65-2.7-396.64,15.25-107.06,14.67-220.38,54.42-269.57,159-21.37,45.43-24.74,97.25-6.15,144.21,17.87,45.15,53.52,81.46,94.62,106.3,105.51,63.77,237.97,45.08,355.06,39.94,133.72-5.87,267.64-8.33,401.46-4.7,119.86,3.25,240.71,9.71,359.57,26.21,95.23,13.21,198.85,38.44,266.7,111.59,75.01,80.88,120.24,200.68,105.04,311.05-7.59,55.08-28.67,107.96-57.17,155.47-27.74,46.24-63.73,91.89-108.92,122.19-45.79,30.7-99.98,46.57-153.1,59.16-61.22,14.51-123.01,26.8-184.57,39.77-125.1,26.37-250.27,53.04-373.42,87.59-60.74,17.04-120.96,36.01-180.24,57.65-54.71,19.97-109.39,41.28-160.37,69.66-92.47,51.47-173.35,128.42-220.25,224.23-25.34,51.77-37.67,108.54-27.78,165.91,9.78,56.73,38.59,107.83,74.22,152.27,63.95,79.77,146.65,140.49,245.08,170.09,121.7,36.6,250.66,43.6,376.92,47.26,240.94,6.99,482.34,1.35,723.07-9.9,55.67-2.6,111.33-5.59,166.96-8.96,10.3-.62,9.63-23.73-.57-23.12-237.3,14.38-475.17,22.46-712.92,21.54-119.29-.46-239.51-1.09-358.26-13.43-113.48-11.79-231.51-33.63-326.23-101.11-42.02-29.93-78.56-66.82-110.09-107.56-34.96-45.16-62.8-98.78-65.98-156.78-3.21-58.7,20.36-114.58,51.63-163.03,29.24-45.31,65.62-85.87,107.46-119.88,87.28-70.94,196.16-110.13,301.62-145.26,121.3-40.4,245.67-70.64,370.48-97.95,61.71-13.5,123.57-26.34,185.37-39.44,56.1-11.89,112.9-22.51,167.98-38.65,51.48-15.08,101.82-36.97,141.51-73.92,38.98-36.29,71.31-80.31,95.85-127.49,24.4-46.91,42.2-98.09,47.73-150.87,5.66-53.96-1.82-108.75-18.39-160.23-17.17-53.35-44.96-103.36-80.18-146.89-30.02-37.11-67.82-65.24-111.04-85.3-86.61-40.19-184.46-49.33-278.37-57.86-131.87-11.98-264.21-17.05-396.61-16.75-66.2.15-132.4,1.51-198.56,3.99-64.38,2.41-128.72,7.11-193.12,8.72-108.87,2.73-235.17-14.54-297.9-115.72-27.32-44.07-29.71-96.4-8.74-143.56,21.68-48.74,63.2-86.95,110.17-110.94,53.24-27.2,112.68-38.66,171.6-45.47,64.5-7.45,129.51-10.89,194.4-12.51,133.22-3.32,266.43,2.27,399.6,5.45,66.78,1.59,133.49,2.01,200.28,1.78,65.02-.22,129.89,5.59,194.91,5.56,64.33-.04,128.65-3.44,192.85-7.18,6.12-.36,5.81-13.74-.34-13.8h0Z"/>
  <path class="cls-1" d="M1753.6,2532.85c9.32,37.46,29.94,71.82,57.8,98.43,19.36,18.49,78.03,69.32,75.43,13.75-2.17-46.27-5.23-92.5-9.19-138.65-1.65-19.2-3.53-38.7-10.76-56.56-4.04-9.97-9.68-19.25-13.33-29.36-12.37-34.27-.43-72.24-3.26-108.56-4.74-61.06-50.32-111.92-61.58-172.12-5.34-28.58-2.69-57.96-1.13-86.99,1.56-29.03,1.91-58.87-7.73-86.3-9.63-27.43-31.15-52.34-59.58-58.45-74.97-16.11-94.35,78.95-77.97,131.99,7.9,25.61,22.96,48.55,30.96,74.13,13.5,43.17,5.87,89.67.62,134.59-5.25,44.93-7.32,93.26,15.39,132.38,11.91,20.51,29.93,37.06,40.95,58.06,15.01,28.6,15.56,62.32,23.36,93.67Z"/>
  <path class="cls-1" d="M1639.96,2679.17c-3.74,7.05-9.31,11.13-17.25,10.83-6.6-.25-12.77-3.39-18.16-7.2-12.29-8.68-21.54-20.91-30.59-32.94-26.08-34.68-60.51-60.28-75.01-102.73-6.61-19.34-9.28-39.81-15.33-59.33-17-54.84-59.79-99.73-71.97-155.84-11.26-51.89,5.27-105.87.96-158.79-3.17-38.88-17.47-75.94-24.6-114.3-10.31-55.46,11.01-170.96,91.09-120.87,16.94,10.6,30.19,26.07,42.8,41.58,30.93,38.03,52.58,90.85,56.72,139.87,3.02,35.72-2.53,72.27,5.63,107.18,6.16,26.37,19.86,50.38,27.61,76.32,6.98,23.36,9.03,48.18,5.98,72.37-2.77,21.96-9.68,43.43-10.02,65.56-.5,31.98,12.65,62.32,22.14,92.86,6.45,20.77,26.97,113.49,10.01,145.43Z"/>
  <path class="cls-1" d="M1294.62,2572.94c-1.47-6.01-3.04-11.99-5.14-17.73-14.05-38.49-54.68-63.48-78.27-96.28-25.68-35.7-43.92-76.13-61.73-116.13-22.55-50.67-45.23-101.71-57.98-155.69-9.71-41.09-10.77-90.97,21.52-118.17,35.33-29.76,92.69-16.87,117.28,19.33,28.49,41.94,37.88,93.12,63.08,136.77,19.85,34.37,48.99,62.77,67.96,97.63,16.09,29.56,24.1,62.52,29.36,95.53,4.45,27.89,12.92,57.49,9.76,85.56-2.07,18.44-6.83,37.25-2.38,55.26,5.88,23.83,18.95,43.48,20.46,68.3,1.42,23.41,2.24,48.57,1.99,71.62-11.64,2.63-23.4-3.54-31.9-11.36-9.83-9.04-16.96-20.68-26.65-29.88-15.96-15.14-38.38-23.23-51.33-41.01-9.23-12.68-12.27-28.34-16.03-43.75Z"/>
  <path class="cls-1" d="M1051.03,2563.79c-18.58-23.73-46.07-39.57-63.3-64.3-18.96-27.2-23.22-61.65-34.36-92.88-9.34-26.18-23.63-50.28-34.91-75.69-11.28-25.41-19.65-53.19-16.05-80.75,3.59-27.56,21.56-54.65,48.35-62.09,27.22-7.56,56.86,6.83,74.82,28.64,17.96,21.81,26.44,49.75,33.2,77.19,6.75,27.43,12.37,55.62,25.9,80.43,14.67,26.89,37.78,48.18,54.61,73.78,18.18,27.65,28.73,60.26,30.2,93.32,1.09,24.65-2.65,50.16,5.42,73.48,6.99,20.21,36.56,50.33,27.45,73.01-8.99,22.39-40.13,18.83-55.15,6.69-18.15-14.67-38.9-37.64-52.74-56.22-17.27-23.18-25.55-51.77-43.42-74.6Z"/>
  <path class="cls-1" d="M836.63,2624.81c-6-19.47-6.88-40.32-13.83-59.47-6.38-17.58-17.58-32.94-26.07-49.61-9.27-18.21-15.27-37.87-21.21-57.42-10.81-35.54-21.61-71.07-32.42-106.61-7.33-24.12-13.46-53.74,4.22-71.7,18.28-18.57,50.61-11.31,71.25,4.59,21.38,16.47,36.65,40.7,42.26,67.11,5.08,23.9,2.55,49.41,11.3,72.24,8.34,21.76,26.03,38.67,36.11,59.68,16.34,34.09,10.83,74.44,19.9,111.14,3.96,16.01,10.71,31.35,13.14,47.66,4.79,32.29-16.25,63.23-51.69,50.91-25.31-8.8-45.64-44.72-52.96-68.5Z"/>
  <path class="cls-1" d="M617.11,2589.93c-3.79-16-2.86-32.81-5.29-49.1-6.02-40.31-31.98-74.4-40.97-114.09-4.63-20.44-4.6-41.71-4.54-62.73.06-20.9.11-41.8.17-62.7.06-23.64,4.64-53.74,26.35-59.21,11.99-3.02,24.37,3.65,33.59,12.31,16.19,15.23,26.39,37.4,27.74,60.3,1.29,21.97-5.1,44.92,2.12,65.55,6.54,18.68,23.02,31.57,31.29,49.46,16.91,36.61-4.83,79.78-2.8,120.47,1.11,22.19,9.35,43.24,13.12,65.1,5.05,29.25,5.22,65.3-29.48,43.62-22.92-14.32-44.77-41.51-51.28-68.99Z"/>
  <path class="cls-1" d="M431.74,2486.27c-1.44-12.02-.1-24.21-.94-36.29-2.11-30.14-17.65-57.92-21.29-87.92-4.31-35.52,8.32-70.68,20.95-104.15,4.76-12.62,9.71-25.48,18.32-35.87s21.7-18.03,35.12-16.6c17.16,1.82,30,18.17,33.05,35.15,3.05,16.98-1.62,34.36-7.22,50.68-5.6,16.32-12.23,32.63-13.26,49.86-1.64,27.51,11.11,55.78,2.7,82.03-3.91,12.22-12.11,22.66-16.45,34.74-5.9,16.41-4.25,34.57-.64,51.63,2.2,10.4,4.95,21.91-.36,31.11-18.23,31.57-48.46-41.64-49.98-54.35Z"/>
  <path class="cls-1" d="M380.17,2155.93c8.98-17.26,18.65-35.3,35.03-45.81,14.82-9.5,33.13-11.5,49.4-18.2,18.28-7.52,33.61-20.8,51.27-29.69,35.96-18.11,81.3-16.04,115.47,5.27,12.01,7.49,23.49,18.89,23.73,33.04.33,19.9-21.04,32.9-40.4,37.52-25.7,6.13-52.48,5.17-78.82,7.3-61.51,4.98-127.43,30.8-161.97,84.61-13.3,20.72-17.72,38.96-43.06,49.3-2.76-45.6,29.51-85.18,49.36-123.33Z"/>
  <path class="cls-1" d="M602.63,1979.46c26.73,9.51,47.52,30.49,71.57,45.55,10.29,6.45,21.32,11.9,30.43,19.92,18.22,16.04,26.63,40.35,32.2,63.98,5.56,23.62,9.18,48.18,20.68,69.55,11.5,21.37,33.36,39.38,57.58,37.8,6.56-.43,13.35-2.49,17.74-7.37,3.64-4.05,5.2-9.5,6.54-14.78,6.03-23.66,9.98-47.86,11.78-72.21,1.96-26.39.72-55.04-15.38-76.04-13.73-17.91-36.51-27.72-48.51-46.83-12.24-19.49-14.26-48.93-35.97-56.58-16.47-5.8-33.53,5.5-50.61,9.13-24.91,5.29-50.05-6.07-75.4-8.49-29.87-2.85-75.61,9.35-91.04,37.8,23.04-5.66,44.89-9.79,68.39-1.44Z"/>
  <path class="cls-1" d="M806.04,1929.99c8.23,15.82,11.47,35.28,25.34,46.49,10.61,8.57,25.17,10.27,37.07,16.94,17.24,9.68,27.02,28.67,33.31,47.42,6.28,18.75,10.17,38.56,20.11,55.65,9.94,17.09,28.08,31.4,47.75,29.45,22.95-2.28,38.89-26.41,39.44-49.46.55-23.05-10.51-44.71-22.74-64.26-12.23-19.55-26.14-38.62-32.44-60.8-4.63-16.31-5.7-35.16-18.16-46.66-12.14-11.21-31.11-11.37-44.6-20.92-6-4.25-10.66-10.19-16.76-14.3-10.3-6.93-23.43-7.84-35.85-7.79-13.14.05-96.06,1.8-94.13,21.81.93,9.58,22.85,11.17,30.83,15.55,12.93,7.1,23.97,17.72,30.81,30.86Z"/>
  <path class="cls-1" d="M992.16,1868.62c15.92,26.69,18.14,65.2,46.25,78.46,7.23,3.41,15.46,4.58,22.32,8.69,13.75,8.24,18.35,25.53,26.49,39.33,11.15,18.9,30.84,32.54,52.45,36.32,7.06,1.24,14.59,1.41,21.14-1.52,13.84-6.19,18.43-23.38,19.98-38.46,1.84-17.89,1.45-37.04-7.95-52.38-11.9-19.42-35.63-28.65-49.13-46.99-16.18-21.99-17.77-56.55-42.58-67.94-9.23-4.24-19.79-4.04-29.94-3.77-14.88.4-99.02-7.1-106.68,3.32-4.56,6.19,41.88,33.38,47.65,44.92Z"/>
  <path class="cls-1" d="M1215.77,1788.09c-19.34-20.21-48.12-15.89-73.57-16.92,16.42,18.24,38.84,35.57,45.79,59.1,6.01,20.34,1.72,45.27,21.11,59.55,7.29,5.37,16.64,7.55,23.57,13.36,13.94,11.69,13.35,32.71,15.33,50.8,2.92,26.61,14.17,52.25,31.77,72.42,10.7,12.26,27.08,23.19,42.34,17.54,13.96-5.17,19.88-21.67,21.5-36.46,2.02-18.47,0-37.37-5.86-55-7.27-21.87-20.4-41.9-23.97-64.66-3.64-23.19.43-52.53-19.59-64.79-16.51-10.11-39.74-.71-56.34-10.68-9.43-5.66-14.48-16.32-22.08-24.27Z"/>
  <path class="cls-1" d="M1356.9,1773.13c11.17,23.93,8.86,56.69,31.08,70.96,12.61,8.1,29.38,6.98,42.34,14.52,9.41,5.48,15.73,14.86,22.39,23.48,11.09,14.34,24.58,27.7,41.64,33.82,17.06,6.13,38.28,3.39,50.06-10.39,5.19-6.07,8.23-13.81,9.36-21.73,3.99-27.96-17.27-56.04-44.51-63.45-7.04-1.91-14.5-2.71-20.94-6.13-23.6-12.53-20.68-51.25-43.36-65.39-8.01-5-17.82-5.89-27.23-6.66-36.01-2.93-74.99-10.46-110.89-8.29,12.03,15.04,38.26,15.66,50.06,39.26Z"/>
  <path class="cls-1" d="M1534.48,1761.16c5.75,13.51,9.1,29.32,20.91,38.05,13.57,10.04,32.88,6.65,48.41,13.25,33.09,14.07,38.71,67.46,73.9,74.85,26.1,5.48,50.18-23.25,47.27-49.76-2.9-26.52-25.01-47.48-49.42-58.24-14.29-6.3-30.31-10.35-41.22-21.52-17.04-17.43-18.3-48.93-40.24-59.56-8.04-3.9-17.33-3.99-26.26-4.01-28.81-.05-80.21-9.78-105.5,2.44,5.28,12.87,29.48,16.69,40.68,25.01,13.66,10.15,24.8,23.8,31.47,39.5Z"/>
  <path class="cls-1" d="M1667.69,1683.43c10.02,14.61,14.2,33.03,26.27,45.98,15.27,16.39,39.6,20.41,57.99,33.2,24.87,17.28,35.95,48.18,43.42,77.53,7.47,29.35,13.37,60.45,32.28,84.11,11.4,14.27,30.4,25.47,47.54,19.13,8.01-2.96,14.3-9.31,19.52-16.07,29.14-37.65,30.68-94.29,3.63-133.47-14.57-21.1-35.48-36.67-52.52-55.59-16.29-18.09-23.75-41.29-39.35-59.69-8.52-10.05-19.89-17.67-32.43-21.72-17.26-5.58-35.85-4.37-53.99-4.78-23.09-.52-38.61-10.7-59.51-16.1-4.24-1.1-60.4-1.71-55.91,8.46,5.15,11.66,19.7,10.08,30.34,14.17,13.09,5.04,24.71,13.16,32.72,24.84Z"/>
  <path class="cls-1" d="M1746.31,1600.09c11.43,5.96,21.21,14.63,32.27,21.23,11.07,6.6,24.4,11.13,36.8,7.61,8.28-2.35,15.22-8.03,23.23-11.17,12.44-4.87,27.29-3.01,38.13,4.79,8.18,5.88,17.23,15.42,26.31,11.05,3.79-1.82,6.11-5.71,7.78-9.57,8.02-18.54,5.18-41.33-7.15-57.33-12.33-16-33.65-24.56-53.62-21.52-9.34,1.42-18.7,5.17-27.96,3.26-7.84-1.62-14.28-7.07-21.59-10.32-14.58-6.49-31.91-3.76-46.24,3.27-23.62,11.59-39.88,33.36-63.69,44.25,13.49,11.37,39.01,5.75,55.72,14.46Z"/>
  <path class="cls-1" d="M1835.93,1423.67c22.46-13.6,31.74-45.29,56.82-53.04,3.08-.95,6.42-1.48,9.53-.6,5.25,1.48,8.65,6.54,10.84,11.54,10.85,24.72,1.31,56.64-21.34,71.34-8.23,5.34-18.05,8.77-24.24,16.39-4.54,5.59-6.56,12.81-10.58,18.78-11.02,16.37-37.77,18.41-55.26,19.99-9.7.88-58.72,2.76-62.29,8.8,13.66-23.12,28.89-47.44,46.74-67.52,13.62-15.32,33.14-15.6,49.78-25.68Z"/>
  <path class="cls-1" d="M1873.58,1214.7c8.63-6.66,20.69-11.01,30.37-5.99,6.57,3.41,10.52,10.4,12.83,17.43,5.76,17.57,3.05,37.71-7.14,53.14-6.93,10.49-16.45,18.94-20.51,31.14-7.94,23.85-9.84,38.48-32.92,53.21-13.75,8.78-65.36,28.97-64.84,50.43-1.1-44.76,25.17-86.53,44.41-124.85,13.1-26.1,12.64-55.09,37.8-74.51Z"/>
  <path class="cls-1" d="M1788.25,1149.93c2.01-15.65,8.49-31.32,20.73-41.27,6.58-5.34,14.73-9.02,19.68-15.9,4.72-6.56,5.76-14.96,7.2-22.9,4.14-22.82,12.81-44.8,25.34-64.31,5.21-8.11,12.6-16.59,22.24-16.38,13.26.29,19.99,16.19,21.11,29.41,2.04,24.25-3.81,49.11-16.46,69.9-2.88,4.74-6.2,9.5-6.85,15.01-.81,6.74,2.51,13.24,3.37,19.97,1.67,13.04-6.06,25.66-15.85,34.45-14.36,12.9-34.37,20.42-47.82,34.06-7.37,7.48-32.07,43.31-29.32,53.98-8.43-32.7-7.59-63.17-3.36-96.01Z"/>
  <path class="cls-1" d="M1728.56,1034.19c.72-24.99,5.34-49.93,3.38-74.85-1.81-23.03-8.99-47.49,1.05-68.29,6.44-13.34,18.91-22.57,28.3-34.02,25.75-31.4,26.33-76.17,43.42-113.01,4.99-10.76,12.58-21.72,24.13-24.4,13.99-3.25,27.74,7.18,35.43,19.31,10.91,17.2,14.15,39.07,8.69,58.69-5.14,18.49-17.52,34.93-19.17,54.05-1.08,12.55,2.61,25.09,2.12,37.69-1.66,42.27-46.66,67.99-67.39,104.86-9.77,17.39-14.01,37.25-18.13,56.77-5.19,24.55-8.94,50.09-15.97,74.11-16.62-26.79-26.78-59.29-25.87-90.9Z"/>
  <path class="cls-1" d="M1604.92,916.72c-3.6-22.89,9.65-47.15,1.51-68.85-3.36-8.95-10.03-16.29-13.92-25.02-13.61-30.61,10.23-64.29,13.18-97.65,2.06-23.36-6.36-46.57-5.36-70,1.01-23.43,18.05-49.87,41.3-46.85,16.89,2.19,28.03,18.84,33.52,34.96,7.6,22.32,8.75,46.79,3.3,69.72-4.17,17.53-12.14,35.58-7.03,52.87,2.56,8.65,8.17,16.02,12.07,24.16,11.24,23.45,7.44,51.42-.88,76.06-6.88,20.39-18.35,35.54-20.09,57-2.19,27.07.64,55.51,4.84,82.25-26.84-20.86-56.95-53.7-62.45-88.65Z"/>
  <path class="cls-1" d="M1474.35,885.13c-7.64-7.56-15.49-15.44-19.3-25.48-5.08-13.37-2.26-28.59-6.39-42.29-6.81-22.55-30.66-36.17-39.44-58.02-8.51-21.19-1.16-45.15-2.81-67.92-1.34-18.48-8.65-36.14-9.87-54.62-1.22-18.48,6.3-39.95,23.92-45.67,16.81-5.46,35.27,6.49,43.39,22.2,8.12,15.7,8.56,34.09,9.19,51.76.62,17.67,1.87,36.19,11.23,51.18,6.06,9.7,15.08,17.16,22,26.27,10.04,13.21,15.41,29.91,14.94,46.5-.41,14.33-5,28.43-4.13,42.75.58,9.47,3.53,18.61,6.46,27.64,9.86,30.38,20.28,60.66,29.52,91.23-25.38,5.79-62.71-49.68-78.71-65.52Z"/>
  <path class="cls-1" d="M1361.14,904.75c-24.96-9.2-48.67-22.73-58.61-44.33-5.91-12.83-6.03-27.51-13.52-39.68-9.84-16.02-30.91-25.22-39.19-41.92-9.66-19.5,1.2-42.21-2.46-63.25-2.42-13.94-11.07-26.32-17.08-39.38-6.04-13.11-9.48-27.15-10.12-41.29-.92-20.19,9.86-45.4,32.72-46.02,21.17-.57,34.05,20.47,38.52,38.77,4.05,16.6,5.47,33.71,4.2,50.66-.43,5.7-1.1,11.72,1.73,16.86,3.29,5.98,10.46,9.31,16.28,13.52,23.11,16.68,24.9,46.96,22.82,73.26-.76,9.66-1.65,19.93,3.5,28.47,4.95,8.2,14.52,13.22,22.09,19.66,20.67,17.59,33.51,60.39,34.41,85.32-11.13-2.83-23.35-6.25-35.28-10.65Z"/>
  <path class="cls-1" d="M1109.15,836.76c-10.24-20.47-12.11-45.11-26.25-63.11-8.2-10.44-20.13-18.01-26.16-29.84-10.74-21.04.8-47.07-5.07-69.94-4.32-16.83-17.53-29.93-24.17-45.99-6.64-16.06-2.15-39.93,15.01-42.68,6.07-.97,12.22,1.07,17.73,3.8,26.35,13.09,41.96,41.1,51.14,69.06,3.53,10.75,6.53,22.07,13.71,30.82,6.99,8.51,17.17,13.62,26.08,20.08,21.07,15.27,35.63,39.24,39.46,64.98,2.17,14.62,1.02,29.52,1.98,44.27,1.94,29.88,13.56,54.57,27.95,80.06-39.19,23.57-95.07-28.83-111.41-61.49Z"/>
  <path class="cls-1" d="M933.65,832.48c-8.06-16.99-11.11-37.26-24.82-50.13-7.97-7.48-18.84-11.64-25.78-20.08-14.24-17.33-6.01-43.53-12.06-65.13-4.44-15.87-16.38-28.38-24.34-42.81-7.96-14.43-11.04-34.48.84-45.9,13.42-12.91,36.97-5.5,49.04,8.68,18.68,21.93,20.48,55.05,40.58,75.68,14.36,14.74,37.06,21.98,45.46,40.77,8.91,19.93-2.35,44.79,7.24,64.4,3.35,6.84,8.91,12.27,13.74,18.15,16.81,20.51,28.39,50.43,32.12,76.45-41.47,12.11-85.29-24.8-102.03-60.09Z"/>
  <path class="cls-1" d="M762.16,834.64c-4.15-7.19-7.06-15.2-12.49-21.49-9.28-10.74-24.64-14.98-33.2-26.29-12.28-16.23-5.92-39.75-12.51-59-6.37-18.59-23.79-30.75-35.74-46.35-11.94-15.6-16.52-41.7,0-52.33,8.66-5.58,20.04-4.52,29.88-1.46,20.66,6.42,38.67,20.99,49.26,39.86,9.31,16.61,13.27,36.54,26.38,50.35,10.98,11.56,26.84,17.11,39.22,27.15,21.92,17.78,29.44,45.97,37.67,71.68,4.52,14.11,8.6,28.65,15.73,41.73,2.84,5.21,21.94,23.73,21.55,28.24-1.13,13.08-41.3-2.28-49.96-4.89-28.94-8.74-59.77-19.51-75.78-47.22Z"/>
  <path class="cls-1" d="M584.3,812c-10.08-15.52-27.8-26.57-32.35-44.51-3.01-11.87.47-24.6-2.16-36.56-2.42-11-9.7-20.16-15.49-29.82-8.02-13.37-13.49-29.12-10.78-44.47,2.72-15.35,15.52-29.56,31.1-29.94,19.65-.47,33.62,19.41,39.17,38.26,5.55,18.86,6.99,39.76,18.88,55.41,6.73,8.87,16.24,15.17,23.99,23.17,11.2,11.55,18.6,26.72,20.8,42.65,2.14,15.48-.15,32.59,8.66,45.51,4.88,7.16,12.49,11.86,19.3,17.21,14.55,11.43,28.34,27.93,33.57,45.79-28.44,9.91-51.13-6.11-76.82-15.89-38.58-14.68-37.48-35.43-57.86-66.82Z"/>
  <path class="cls-1" d="M464.12,848.55c-6.41-11.87-19.58-19-25.72-31.01-7.61-14.88-2.56-32.87-4.48-49.47-3.21-27.77-26-54.77-15.43-80.65,5.17-12.66,18.53-21.51,32.21-21.33,13.68.18,26.8,9.38,31.63,22.17,6.42,16.99-1.14,37.15,6.4,53.67,5.91,12.95,19.77,20.57,26.98,32.84,8.14,13.84,6.56,31.02,6.59,47.08.03,19.26,2.96,38.75,10.45,56.58,5.28,12.58,15.72,20.39.84,26.18-34.7,13.5-58.65-36.03-69.47-56.06Z"/>
  <path class="cls-1" d="M327.91,770.39c-7.12-24.9-7.6-51.66-1.4-76.81,3.84-15.55,13.16-32.81,29.11-34.24,10.6-.95,20.86,6.16,25.64,15.66,4.79,9.5,4.76,20.85,2.14,31.16-3.96,15.59-13.53,31.78-7.29,46.62,2.12,5.04,5.88,9.2,8.67,13.91,10.59,17.88,5.81,40.56.06,60.53-3.36,11.65-7.26,23.81-7.71,36.02-.2,5.46,6.81,26.46,4.7,29.88-5.22,8.47-15.67-2.27-21.72-7.44-39.37-33.64-19.78-71.77-32.22-115.29Z"/>
  <path class="cls-1" d="M232.33,705.23c.45-9.37-.54-18.79.27-28.14,1.12-12.82,5.7-25.32,13.13-35.83,3.9-5.51,8.87-10.67,15.3-12.69,10.16-3.2,21.77,2.79,26.89,12.13,5.12,9.34,4.52,21.05.47,30.9-3.82,9.3-10.51,17.48-12.46,27.34-3.82,19.31,11.54,38.61,7.69,57.92-1.58,7.94-6.26,14.85-10.01,22.02-8.42,16.11-10.82,32.88-11.89,50.69-49.88-29.17-31.71-76.6-29.4-124.33Z"/>
  <path class="cls-1" d="M273.68,592.77c9.34-.02,18.79,3.67,27.83,1.31,6.57-1.72,11.95-6.43,18.32-8.77,10.02-3.69,21.2-1.14,31.34,2.22,10.14,3.35,20.38,7.54,31.05,7.04,10.67-.5,22-7.45,23.27-18.05,1.21-10.14-7.38-19.38-17.11-22.49-9.73-3.11-20.26-1.61-30.36-.07.09-8.16-7.78-14.69-15.87-15.82-8.08-1.14-16.15,1.78-23.63,5.04-14.92,6.5-99.57,54.95-86.02,73.08,12-10.86,23.52-23.43,41.2-23.47Z"/>
  <path class="cls-1" d="M468.36,510.11c-18.95-2.48-32.28-12.58-49.97-20.32-8.93-3.9-18.41-7.38-28.13-6.81-22.02,1.28-34.26,25.74-12.94,38.68,14.63,8.88,35.14,2.87,47.87,16.04,2.93,3.04,4.97,6.81,7.49,10.19,12.3,16.52,30.79,14.49,46.98,23.86,15.82,9.16,16.75,33.77,32.44,43.15,13.02,7.78,31.98-.44,36.86-14.8,4.88-14.36-3.51-31.32-17.15-37.95-7.13-3.47-15.5-4.61-21.63-9.64-7.7-6.33-9.87-17.08-15.23-25.49-5.83-9.14-15.84-15.51-26.59-16.92Z"/>
  <path class="cls-1" d="M575.55,546.43c6.69,3.34,14.63,3.37,21.37,6.61,12.11,5.83,17.11,20.01,22.59,32.28,4.53,10.16,10.5,20.25,19.92,26.18,9.42,5.93,23.02,6.4,30.85-1.5,9.41-9.5,6.48-25.72-.38-37.2-6.86-11.47-16.96-21.17-21.31-33.81-2.88-8.37-3.43-18.42-9.75-25.22-6.68-7.18-18.95-8.11-26.31-16.81-7-8.29-12.52-17.99-21-24.76-17.68-14.11-42.89-11.9-65.32-8.96-14.41,1.88-30.54.78-44.06,3.81,16.41,10.76,38.12,9.35,54.2,21.16,19.72,14.48,17.39,47.34,39.22,58.23Z"/>
  <path class="cls-1" d="M700.39,485.85c11.08,18.55,7.5,47.11,26.56,57.29,3.71,1.98,7.9,2.93,11.64,4.87,14.3,7.39,17.68,25.75,23.06,40.92,4.39,12.37,11.11,23.9,19.72,33.81,6.44,7.4,17.6,14.16,25.3,8.09,3.69-2.91,5.02-7.83,6.14-12.39,4.13-16.93,7.98-35.98-1.15-50.82-6.33-10.29-18.14-16.95-22.2-28.33-10.5-29.42,1.47-36.06-28.42-53.42-25.18-14.63-51.56-25.89-80.15-31.92-9.22-1.94-19.03-3.86-28.17-2.01,6.54,17.75,36.86,15.94,47.68,33.92Z"/>
  <path class="cls-1" d="M876.87,503.99c8.25,19.63,9.1,43.54,24.55,58.19,6.66,6.31,15.37,10.1,22.17,16.26,21.15,19.14,21.94,58.52,48.93,67.75,5.72,1.96,12.7,1.87,17.09-2.28,3.34-3.16,4.49-7.95,5.48-12.44,2.9-13.19,5.74-27.34.73-39.88-4.54-11.37-14.8-19.44-20.86-30.08-10.84-19.02-7.44-44.59-21.28-61.55-12.4-15.2-34.14-18.12-51.24-27.73-9.6-5.39-17.81-12.98-27.3-18.58-10.29-6.07-29.4-15.8-41.62-10.93-20.86,8.31-5.96,18.82,5.83,25.44,16.82,9.44,29.13,15.89,37.51,35.84Z"/>
  <path class="cls-1" d="M1023.85,491.75c17.19,4.77,36.51,7.1,48.8,20.03,15.93,16.74,14.82,46.3,33.86,59.39,6.2,4.26,13.8,6.11,19.99,10.38,12.47,8.59,16.63,24.69,23.73,38.06,7.1,13.37,22.74,25.83,36.21,18.93,9.43-4.83,12.55-16.89,12.31-27.48-.36-15.78-6.05-31.38-15.94-43.69-5.96-7.42-13.56-13.98-16.54-23.01-4.77-14.46,3.19-32.65-6.58-44.33-9.66-11.55-28.04-7-42.72-10.35-8.69-1.98-16.34-6.95-24.14-11.26-24.38-13.47-61.66-27.2-90.11-22.09-33.32,5.99,3.4,30.5,21.12,35.41Z"/>
  <path class="cls-1" d="M1213.94,492.68c10.26,7.34,23.93,9.74,32.5,19,10.16,10.99,10.47,28.87,21.47,39.01,10.35,9.54,26.98,9.21,37.7,18.33,9.56,8.14,12.08,21.57,15.5,33.65,3.42,12.08,10.02,25.28,22.26,28.06,2.69.61,5.62.63,8.09-.6,4.46-2.22,6.13-7.63,7.35-12.46,4.75-18.78,8.86-40.8-3.4-55.79-5.56-6.81-13.83-11.06-19.12-18.08-8.27-10.98-7.67-26.31-13.86-38.58-6.55-12.97-21.12-21.45-35.63-20.72-4.53.23-9.06,1.27-13.57.69-10.12-1.29-17.29-10.08-25.47-16.16-26.43-19.63-74.85-5.71-33.82,23.64Z"/>
  <path class="cls-1" d="M1364.82,494.86c10.89,5.29,23.34,7.94,32.45,15.9,12.64,11.04,15.72,29.39,25.35,43.14,2.72,3.88,6.06,7.47,10.3,9.58,11.2,5.59,25.06-.34,37.07,3.22,8.65,2.56,15.1,9.67,20.66,16.76,5.57,7.09,10.99,14.72,18.85,19.14,7.86,4.42,19.07,4.47,24.74-2.55,1.85-2.29,2.94-5.09,3.73-7.92,6.02-21.56-6.43-46.67-27.24-54.93-6.12-2.43-12.98-3.66-17.9-8.03-9.6-8.53-7.58-24.84-16.06-34.49-8.47-9.64-23.79-8.78-35.95-4.69-2.9.98-5.85,2.11-8.91,2.06-6.05-.09-10.97-4.58-15.69-8.36-13.71-10.98-36.58-21.88-54.84-19.54-24.37,3.12-14.36,22.05,3.43,30.7Z"/>
  <path class="cls-1" d="M1545.78,486.98c7.73,10.6,12.41,23.07,19.1,34.35,2.77,4.67,6.19,9.38,11.26,11.32,8.05,3.07,16.83-1.9,25.45-2.04,11.03-.18,20.66,7.6,27.35,16.38,6.68,8.78,11.54,18.94,19.1,26.98,14.86,15.82,37.76,21.11,55.06,34.23,18.5,14.03,33.87,38.17,57.01,36.3,3.14-.25,6.35-1.08,8.76-3.11,4.35-3.66,4.97-10.09,4.66-15.77-1.4-25.51-15.58-50.01-37.01-63.93-8.61-5.59-18.41-9.66-25.51-17.08-9.1-9.52-12.91-23.72-23.62-31.39-11.29-8.09-26.75-6.44-40.21-3-7.57,1.94-15.56,4.33-23.03,2.05-6.96-2.13-12.07-7.89-17.01-13.24-11.35-12.29-24.01-23.83-39.28-30.66-6.77-3.03-31.92-12.07-37.1-2.44-4.31,8.01,10.3,14.57,15.02,21.05Z"/>
  <path class="cls-1" d="M1693.53,488.84c6.43-.68,12.94-2.44,19.27-1.1,5.18,1.1,9.71,4.18,13.74,7.61,17.36,14.77,28.68,37.45,49.78,46.08,17.07,6.98,38.27,3.55,52.66,15.08,6.89,5.51,11.12,13.75,17.79,19.53,6.66,5.78,18.08,8.18,23.64,1.32,2.27-2.81,3.01-6.52,3.56-10.09,3.01-19.67,2.33-40.5-6.19-58.49-8.52-17.98-25.95-32.53-45.82-33.72-4.65-.28-9.41.14-13.88-1.16-12.8-3.72-17.51-18.87-25.14-29.8-13.21-18.91-40.41-26.5-61.5-17.17-4.6,2.04-9.08,4.82-14.11,5.11-6.48.38-12.38-3.43-18.63-5.21-16.59-4.73-33.51,5-48.02,14.32-37.44,24.05,31.8,49.9,52.85,47.67Z"/>
  <path class="cls-1" d="M1568.79,345.09c6.31-18.27,15.97-38.3,34.52-43.7,6.8-1.98,14.13-1.7,20.81-4.04,8.56-2.99,15.08-9.9,20.97-16.79,10.47-12.24,20.09-25.2,28.78-38.75,5.04-7.86,10.17-16.32,18.47-20.6,18.54-9.56,41.87,9.5,43.21,30.31,1.35,20.81-12.28,39.7-27.76,53.67-13.22,11.93-28.99,22.82-34.79,39.65-1.93,5.61-2.62,11.58-4.5,17.21-4.14,12.4-14.32,22.63-26.7,26.82-8.13,2.75-16.9,2.98-25.23,5.08-21.26,5.36-38.9,29.97-55.26,43.24-5.98,4.85-69.53,34.39-67.38,25.81,5.54-22.08,13.47-49.82,32.95-63.86,23.07-16.62,32.15-25.8,41.9-54.05Z"/>
  <path class="cls-1" d="M1365.32,368.86c3.34-8.72,4.07-18.8,10.15-25.89,6.77-7.9,18.07-9.71,27.33-14.45,21.17-10.83,30.07-35.67,39.8-57.36,9.72-21.7,26.31-44.92,50.09-45.01,20.03-.08,37.54,20.37,34.37,40.15-2.54,15.9-15.61,28.09-20.64,43.38-6.81,20.66,1.56,45.14-9.33,63.97-16.24,28.09-60.86,22.31-84.1,44.95-8.11,7.89-12.87,18.64-20.53,26.97-16.49,17.94-88.34,41.39-95.66,5.53-7.68-37.65,56.66-51.25,68.52-82.24Z"/>
  <path class="cls-1" d="M1150.46,419.96c11.57-5.26,25.31-5.31,35.94-12.26,20.88-13.66,20.34-46.81,40.27-61.82,5.97-4.49,13.24-6.88,19.63-10.73,16.76-10.1,25.87-28.99,33.12-47.16,7.25-18.17,14.08-37.47,28.47-50.72,14.39-13.26,39.23-17.62,52.89-3.6,14.12,14.49,8.59,39.3-3.26,55.7-11.85,16.4-28.83,28.99-38.43,46.8-6.92,12.83-9.53,27.53-15.21,40.96-5.68,13.43-15.95,26.5-30.34,28.88-6.18,1.02-12.61-.03-18.72,1.36-13.71,3.12-21.57,16.98-30.81,27.58-17.38,19.94-45.85,30.85-72.15,27.63-31.71-3.89-28.15-30.46-1.41-42.6Z"/>
  <path class="cls-1" d="M1004.79,418.11c9.69-8.13,22.55-13.26,28.78-24.27,4.38-7.74,4.66-17.07,7.51-25.49,3.87-11.44,12.73-21.08,23.8-25.89,6.54-2.84,13.87-4.13,19.61-8.36,8.83-6.51,11.7-18.16,14.79-28.69,4.48-15.24,10.65-29.99,18.36-43.88,7.75-13.97,17.85-27.73,32.61-33.84,14.76-6.12,34.89-1.44,41.02,13.3,5.23,12.57-1.08,26.9-8.74,38.16-7.66,11.26-17.1,22.25-18.87,35.76-1.28,9.79,1.72,19.82.04,29.55-3.26,18.93-22.44,30.4-40.24,37.62-6.91,2.8-14.03,5.42-19.91,10.01-13,10.15-17.36,27.65-26.68,41.27-12.9,18.85-38.32,30.52-61.13,27.19-23.34-3.42-30.33-26.16-10.97-42.41Z"/>
  <path class="cls-1" d="M863.58,404.84c13.74-17.03,10.27-45.55,28.23-58.05,7.13-4.96,16.27-6.16,23.69-10.66,15.79-9.59,19.3-30.4,24.31-48.19,4.2-14.89,10.49-29.18,18.64-42.32,6.98-11.26,17.57-22.76,30.79-21.85,18.28,1.27,26.07,25.27,21.49,43.01-4.58,17.74-16.46,33.13-19.68,51.17-2.07,11.64-.51,24.23-5.85,34.78-10.41,20.56-41.65,23.64-51.46,44.5-2.97,6.31-3.51,13.49-6.1,19.97-7.36,18.39-28.52,26.38-47.41,32.36-12.5,3.95-54.17,15.77-57-7.68-1.95-16.22,31.68-26.28,40.36-37.03Z"/>
  <path class="cls-1" d="M672.55,416.68c7.21-5.75,16.37-8.94,23.62-14.65,27.02-21.3,18.83-68.98,48.98-86.08,7.26-4.12,15.83-5.72,23.26-9.55,14.52-7.5,22.82-22.37,29.7-36.63,6.88-14.27,13.73-29.44,26.89-38.94,13.16-9.5,34.92-10.31,44.19,2.68,7.59,10.64,3.68,25.35-3.49,36.24-7.17,10.89-17.28,20.04-22.92,31.72-8.96,18.57-6.56,43-22.94,56.25-14.59,11.8-37.82,8.86-52.91,20.09-8.54,6.35-13.08,16.24-17.68,25.57-8.56,17.36-18.89,34.7-35.12,46.11-10.8,7.59-37.57,17.93-50.27,8.18-12.92-9.92-2.12-32.37,8.69-40.98Z"/>
  <path class="cls-1" d="M579.17,328.25c6.88-8.04,16.52-13.09,24.98-19.46,11.46-8.63,20.92-19.92,27.41-32.71,8.84-17.42,15.11-40.26,34.03-45.16,17.02-4.41,34.53,11.26,36.73,28.71,2.21,17.45-7.3,34.56-19.92,46.81-8.38,8.14-18.37,14.95-24.47,24.91-11.76,19.21-6.67,46.17-21.06,63.5-16.63,20.01-47.06,16.29-66.25,32.47-10.57,8.91-15.2,22.75-26.13,31.72-3.3,2.7-35.56,15.37-35.08,13.81,4.04-13.21,6.17-30.58,11.99-42.77,5.9-12.36,17.64-19.05,26.28-29.31,17.79-21.14,13.79-51.82,31.5-72.51Z"/>
  <path class="cls-1" d="M319.87,471.51c12.19-16.76,26.81-32.19,34.66-51.37,7.08-17.3,8.31-36.91,17.8-53.01,9.83-16.7,27.28-27.49,38.94-42.97,17.02-22.59,20.23-52.97,35.6-76.71,8.45-13.05,23-24.51,38.26-21.54,15.79,3.08,25.16,20.94,24.1,36.99-1.06,16.05-9.88,30.45-18.95,43.73-5.53,8.1-11.4,16.44-13,26.12-2.06,12.52,3.38,25.33,1.51,37.88-4.2,28.12-39.97,38.77-55.12,62.83-8.64,13.73-10.27,31.59-21.38,43.41-13.48,14.36-35.62,14.77-54.48,20.46-18.06,5.45-30.62,22.22-48,29.09,1.83-19.61,8.38-38.89,20.04-54.92Z"/>
  <path class="cls-1" d="M217.17,526.33c2.05-13.47,6.66-26.71,6.05-40.32-1.4-31.31-29.81-57.1-29.19-88.44.36-18.19,10.6-34.86,12.51-52.96,2.02-19.21-5.45-37.95-10.17-56.69-4.72-18.73-6.13-40.48,5.97-55.53,4.6-5.72,11.2-10.12,18.5-10.87,18.43-1.88,31.35,19.23,32,37.75,1.09,30.83-3.7,52.78,5.12,82.71,7.72,26.2,22.17,59.96,17.1,87.56-2.69,14.61-11.2,28.33-10.13,43.15.89,12.38,8.43,23.63,8.85,36.03.56,16.62-11.05,28.98-19.24,42.18-8.64,13.93-11.25,29.81-20.5,43.07-19.76-4.05-19.21-52.22-16.87-67.64Z"/>
  <path class="cls-1" d="M155.98,639.28c-3.08-12.78-3.97-26.22-9.31-38.24-11.19-25.19-39.76-39.54-50.18-65.05-7.72-18.9-4.07-40.56-9.08-60.35-9.45-37.33-48.22-63.41-52.46-101.68-1.22-11.04.62-22.24-.55-33.29-2.22-20.95-14.94-39.21-20.87-59.43-5.93-20.22-1.42-47.23,18.51-54.05,40.77-13.95,44.29,48.26,58.28,70.39,10.41,16.47,22.79,31.79,31.21,49.36,15.87,33.12,11.4,65.43,15.78,100.3,3.78,30.07,25.78,45.06,43.02,67.95,18.66,24.77,19.35,58.25,19.27,89.27-.05,18.37,2.25,36.73,2.35,55.11.06,10.55-7,56.77-3.01,62.53-18.48-26.7-35.25-50.87-42.97-82.84Z"/>
  <path class="cls-1" d="M105.01,648.81c-10.62-10.55-25.08-16.69-35.28-27.65-10.08-10.84-16.41-26.58-30.36-31.53-18.57-6.59-38.35,12.65-39.31,32.33-.97,19.68,10.84,37.63,23.68,52.58,12.84,14.95,27.58,29.1,34.62,47.5,8.09,21.15,5.08,45.71,15.32,65.9,15.65,30.85,55.43,39.81,90.02,39.83,34.23.02,68.94-4.21,101.1,10.32-23.31-27.16-47.32-56.98-75.35-79.51-18.99-15.26-38.36-28.04-51.26-49.36-11.89-19.66-16.45-43.78-33.18-60.41Z"/>
  <path class="cls-1" d="M414.35,901.8c-12.63,2.63-38.89-12.16-51.81-16.28-18.64-5.95-37.91-11.22-56.78-2.71-6.66,3.01-12.59,7.64-19.58,9.77-16.16,4.92-33.48-4.58-50.23-2.37-21.76,2.87-36.66,24.25-57.68,30.55-18.46,5.53-38.59-1.44-57.52,2.17-10.92,2.08-20.85,7.57-30.43,13.2-23.31,13.7-47.25,30.46-56.49,55.88-9.24,25.42,4.81,60.37,31.78,62.45,28.68,2.21,49.91-31.27,78.67-31.66,15.66-.21,29.86,9.63,45.46,11.02,21.41,1.9,40.78-12.2,56.33-27.03,15.55-14.83,30.65-31.79,51.2-38.11,11.35-3.49,23.78-3.48,34.49-8.61,13.58-6.51,22.07-20.07,32.6-30.85,13.48-13.8,31.12-23.47,50-27.41Z"/>
  <path class="cls-1" d="M572.3,900.09c-28.66.63-81.54,5.86-104.15,25.05-11.42,9.69-15.82,25.18-26.76,35-10.52,9.45-19.04,8.14-31.98,12.37-21.98,7.19-41.48,21.77-54.58,40.83-10.75,15.63-17.32,34.14-30.12,48.15-14.14,15.47-34.52,23.95-49.29,38.82-19.3,19.42-26.86,47.27-33.69,73.79-7.67,29.81-15.34,59.62-23.01,89.43-5.42,21.07-9.92,46.24,4.8,62.26,15.23,16.57,43.92,12.74,60.97-1.95,17.05-14.69,25.4-36.79,33.31-57.86,3.21-8.55,6.64-17.37,13.2-23.72,6.57-6.36,15.51-9.5,23.44-14.03,15.3-8.75,27.19-23.28,32.74-40,10.08-30.36-.42-65.43,13-94.46,7.77-16.83,22.52-29.16,34.7-43.13,22-25.22,33.97-79.52,67.79-89.85,5.3-1.62,10.88-2.04,16.24-3.44,22.84-5.94,43.5-37.08,53.38-57.24Z"/>
  <path class="cls-1" d="M597.73,994.5c-9.82,5.65-20.84,9.02-30.49,14.95-19.53,12-31.49,33.25-39.5,54.74-8.01,21.48-12.96,44.14-22.87,64.81-12.99,27.1-33.87,49.5-50.42,74.58-16.56,25.08-29.1,55.51-22.23,84.76,1.24,5.3,3.25,10.66,7.24,14.37,10.46,9.72,27.5,3.22,39.07-5.15,17.46-12.63,32.41-28.7,43.73-47.03,3.25-5.27,6.39-10.91,11.54-14.35,6.8-4.54,15.58-4.28,23.68-5.4,35.58-4.91,60.52-37.68,75.46-70.34,14.94-32.66,24.67-68.8,48.65-95.54,16.38-18.26,38.47-30.93,53.63-50.22,17.15-21.81,24.01-50.26,40.85-72.3,10.14-13.27,21.4-20.58,36.35-26.79,13.3-5.52,23.29-5.14,28.28-21.98-47.65-16.34-115.52-10.24-158.71,15.9-34.99,21.17-49.01,64.69-84.27,84.99Z"/>
  <path class="cls-1" d="M846.05,970.95c-6.13,16.38-8.01,34.06-13.5,50.66-11.17,33.79-36.3,60.73-58.89,88.23-22.59,27.5-44.07,58.9-45.42,94.46-.21,5.43.1,11.01,2.25,16,3.92,9.1,13.37,14.72,22.95,17.27,20.18,5.36,43.06-1.14,57.41-16.31,20.52-21.7,23.44-57.73,48.23-74.39,7.4-4.97,16.11-7.66,23.64-12.42,37.11-23.43,29.36-81.14,55.06-116.72,15.81-21.89,43.14-33.49,58.19-55.91,15.07-22.44,16.66-54.7,40.84-70.46-32.13-.1-60.01,2.78-88.27,18.73-22.12,12.48-37.29,18.39-61.72,23.72-20.53,4.48-33.38,17.4-40.77,37.14Z"/>
  <path class="cls-1" d="M1264.82,898.25c-66.33-5.1-114.31,28.64-168.35,61.86-17.41,10.7-34.54,25.18-38.98,45.13-2.51,11.28-.66,23.15-2.79,34.5-5.73,30.48-36.87,48-57.22,71.4-16.09,18.51-26.01,42.3-27.81,66.76-.68,9.22-.11,18.97,4.66,26.89,7.36,12.23,23.46,17.11,37.52,14.67,14.06-2.44,26.36-10.87,37.1-20.27,21.85-19.11,39.34-43.17,50.78-69.85,2.71-6.32,5.29-13.07,10.56-17.47,4.59-3.83,10.6-5.36,16.21-7.43,28.3-10.43,49.44-38.07,52.09-68.12,1.5-16.98-2.27-35.08,5.04-50.48,3.54-7.47,9.4-13.55,15.16-19.48,22.01-22.7,44.03-45.4,66.04-68.1Z"/>
  <path class="cls-1" d="M1367.08,937.36c-21.04,10.12-42.08,20.24-63.12,30.36-10.32,4.96-21.27,10.5-26.83,20.51-6.19,11.14-4.13,24.85-6.29,37.41-8.03,46.6-71.4,69.75-75.28,116.87-.36,4.37-.13,8.92,1.67,12.92,3.33,7.4,11.33,11.55,19.16,13.69,41.32,11.3,83.78-20.24,103.38-58.34,5.72-11.12,11.19-23.94,22.73-28.76,5.61-2.34,11.89-2.38,17.79-3.86,16.96-4.24,28.73-19.76,35.92-35.69,7.19-15.93,11.28-33.3,20.3-48.27,21.37-35.47,61.44-46.46,97.28-60.95-21.83-7.6-41.89-3.57-64.11-3.6-31.37-.03-52.72-6.67-82.59,7.7Z"/>
  <path class="cls-1" d="M1620.23,1037.72c-15.56,2.31-28.79-6.44-42.77-11.8-30.52-11.7-67.6-3.76-90.64,19.41-11.91,11.98-20.27,27.51-33.89,37.5-8.74,6.41-19.1,10.12-29.08,14.36-22.3,9.46-43.34,21.9-62.38,36.88-7.5,5.9-15.18,13.06-16.45,22.52-1.81,13.49,10.21,24.92,22.48,30.82,20.24,9.73,44.26,11.31,65.61,4.32,22.12-7.24,40.32-22.8,59.78-35.58,19.46-12.77,42.67-23.26,65.43-18.39,7.45,1.6,14.63,4.81,22.25,5.02,27.12.76,42.03-31.56,59.6-47.14,24.17-21.4,59.31-24.94,89.51-26.83-5.08.32-31.97-32.72-44.57-35.85-21-5.21-44.07,1.66-64.87,4.74Z"/>
  <path class="cls-1" d="M1638.77,1172.74c-5.35.23-10.78.76-15.7,2.88-7.49,3.23-13.04,9.81-20.2,13.73-17.32,9.49-38.44,1.49-57.76-2.6-21.26-4.5-44.7-3.58-63.06,8.05-18.36,11.63-29.6,35.86-21.68,56.1,7.37,18.84,28.58,29.1,48.77,30.43,20.19,1.33,40.08-4.39,59.91-8.39,19.84-4,41.13-6.18,59.73,1.77,11.88,5.08,21.91,14,34.08,18.35,32.37,11.57,73.33-10.99,100.6,9.94,16.81,12.9,19.64,36.49,34.73,50.43,13.39-96.25-58.25-185.11-159.43-180.69Z"/>
  <path class="cls-1" d="M1712.21,1495.8c-1.69-23.7-13.14-45.45-24.35-66.4-8.44-15.78-17.46-32.2-32.36-42.11-8.58-5.71-18.58-8.86-27.74-13.59-18.1-9.33-32.41-24.47-48.79-36.56-18.88-13.94-40.71-23.86-63.62-28.93-15.8-3.5-34.04-4.12-46.36,6.37-15.83,13.48-13.85,40.15-.78,56.32,13.07,16.17,33.76,23.97,53.88,29.25,17.32,4.55,35.99,8.28,48.83,20.77,12.9,12.54,17.62,31.93,31.16,43.78,8.38,7.33,19.25,10.99,29.08,16.21,37.37,19.86,54.01,66.82,54.26,107.12,13.9-26.95,28.99-61.32,26.79-92.23Z"/>
  <path class="cls-1" d="M1541.22,1545.26c-2.21-3.88-4.25-7.84-5.89-11.97-9.37-23.62-5.28-51.91-18.92-73.35-10.58-16.62-28.77-24.91-44.41-35.74-16.15-11.18-25.85-26.5-41.03-38.23-10.06-7.77-21.86-15.37-34.46-13.75-14.88,1.91-25.59,17.11-26.08,32.1-.48,15,7.26,29.21,17.34,40.33,15.41,16.99,37.16,29.52,45.3,50.95,10.39,27.33-5.46,58.13-.43,86.93,5.65,32.39,23.1,55.64,24.44,89.93.92,23.56,5.55,40.09,30.65,25.79,7.74-4.41,20.28-12.39,23.96-20.92,4.29-9.92-2.86-18.46,7.35-27.87,5.93-5.46,13.61-8.57,20.2-13.22,17.09-12.04,25.53-35.13,20.23-55.36-3.39-12.96-11.59-23.94-18.25-35.63Z"/>
  <path class="cls-1" d="M1334.93,1562.86c2.14-31.88-21.39-60.44-23.11-92.34-1.94-36,24.12-70.05,18.53-105.67-2.06-13.14-8.32-25.19-12.84-37.7-7.46-20.71-10.24-43.05-19.59-62.98-9.34-19.93-28.1-37.96-50.08-36.91-21.46,1.03-38.51,20.38-43.86,41.19-5.35,20.81-1.55,42.76,2.67,63.82,4.21,21.07,8.84,42.69,5.07,63.84-3.23,18.14-12.58,35.48-11.2,53.86,2.59,34.52,40.64,56.01,50.56,89.18,7.91,26.46-3.52,55.44,2.62,82.37,2.42,10.62,7.48,20.42,11.53,30.53,5.82,14.55,9.54,29.93,11.1,45.52.63,6.29-3.34,30.65,1.26,35.02,10,9.49,23.96-12.16,29.09-19.94,14.88-22.56,14.15-40.01,11.14-65.92-3.59-30.93,15.12-54.04,17.12-83.87Z"/>
  <path class="cls-1" d="M1137.62,1726.33c1.51-22.38-12.83-43.92-9.74-66.14,3.58-25.78,29.73-45.49,28.92-71.5-.68-21.66-19.86-38.09-26.35-58.77-4.72-15.03-2.43-31.24-.23-46.84,6.16-43.69,11.23-88.36,3.03-131.72-8.2-43.35-31.67-85.85-70.39-107-15.03-8.22-33.65-12.87-49.19-5.66-13.68,6.35-22.05,20.54-26.95,34.81-4.78,13.93-7.07,29.06-3.98,43.47,5.3,24.77,25.71,44.92,28.12,70.14,1.75,18.28-6.36,36.36-5.04,54.68,2.98,41.3,51.61,69.45,51.47,110.86-.05,15.94-7.64,31.2-7.21,47.13.71,25.81,22.13,47.72,22.38,73.54.16,16.34-8.31,32.06-6.91,48.35,1,11.63,7.84,20.61,10.46,31.53,2.78,11.61-1.82,25.31-3.68,36.73-.46,2.81,34.66-11.59,38.96-15.52,12.93-11.84,25.14-30.26,26.34-48.08Z"/>
  <path class="cls-1" d="M930.21,1758.6c-.32-12.69-3.69-25.17-3.97-37.86-.76-34.35,20.94-68.53,11.07-101.44-5.39-17.97-19.59-32.39-24.35-50.53-4.68-17.83.35-36.56,1.36-54.97,2.11-38.45-13.41-75.36-21.55-112.99-4.32-19.94-6.6-40.37-12.68-59.85-6.09-19.48-16.58-38.45-33.55-49.78-16.97-11.33-41.31-13.1-57.17-.26-14.64,11.85-18.83,32.5-18.39,51.33.41,17.38,3.93,34.69,10.35,50.85,5.84,14.7,14.1,28.64,17.01,44.19,6.1,32.57-12.24,66.35-4.84,98.65,6.82,29.79,34.26,52.12,38.98,82.31,4.31,27.54-11.31,56.43-2.53,82.88,3.11,9.36,9.03,17.47,13.99,26,21.75,37.39,24.48,85.23,7.13,124.85,4.47-10.2,43.19-24.14,53.02-33.26,16.44-15.26,26.68-37.56,26.11-60.12Z"/>
  <path class="cls-1" d="M708.04,1798.66c.03-25.24,17.67-46.91,23.57-71.45,10.38-43.15-16.46-86.18-19.61-130.45-2.41-33.88,9.2-67.7,5.94-101.51-2.69-27.86-15.38-54.27-16.1-82.25-.37-14.66,2.48-29.97-2.98-43.58-9.26-23.11-40.73-31.25-63.45-21.06-22.72,10.18-36.99,33.64-43.62,57.64-5.69,20.61-6.76,42.5-3.09,63.56,4.04,23.22,13.72,45.41,15.24,68.93,1.61,24.91-6.05,49.43-7.96,74.32-2.09,27.31,2.9,55.14,14.35,80.02,9.32,20.24,23.14,39.77,23.02,62.06-.09,18.54-10.03,36.13-9.15,54.65.48,10.06,4.13,19.66,6.97,29.32,8.39,28.63,7.31,56.11,5.02,85.28,20.81-2.24,50.72-15.68,63.32-33.53,21.31-30.22,8.5-59.12,8.54-91.96Z"/>
  <path class="cls-1" d="M552.71,1896.91c-2.45-15.91-12.66-29.4-18.69-44.32-18.42-45.56,3.5-99.26-12.24-145.81-6.66-19.7-19.76-36.94-24.88-57.1-4.67-18.4-2.34-37.76-.28-56.64,5.63-51.57,7.88-107.79-21.08-150.83-9.41-13.98-21.81-25.96-29.59-40.91-10.31-19.8-12.31-44.32-27.78-60.42-19.63-20.42-55.7-18.01-76.9.78-21.2,18.79-28.79,49.45-25.8,77.61,4.46,42,29.4,80.34,30.43,122.57.54,22.03-5.33,45.31,3.74,65.4,10.32,22.87,36.83,34.23,50.07,55.54,23.12,37.22-1.52,90.18,20.9,127.83,12.07,20.27,35.68,31.83,46.9,52.58,6.79,12.54,8.33,27.16,9.73,41.36,4.35,43.99,8.55,87.99,13.05,131.96,10.56-13.8,24.64-20.01,31.43-38.47,9.44-25.66,35.34-52.9,30.99-81.13Z"/>
  <path class="cls-1" d="M386.6,1886.45c-6.1-14.38-18.67-24.77-28.82-36.64-14.02-16.41-23.78-36.42-28.09-57.56-4.46-21.92-3.36-45.54-13.84-65.3-8.67-16.34-24.25-27.93-34.41-43.4-12.49-19.02-15.87-42.35-21.13-64.49-14.26-60.09-46.9-118.71-100.36-149.65-8.61-4.98-18.17-9.31-28.1-8.68-12.62.8-23.65,9.71-30.01,20.64-6.36,10.93-8.73,23.69-10.27,36.24-3.33,27.22-2.36,57.34,15.04,78.54,5.71,6.96,12.97,12.63,18.02,20.09,11.42,16.89,9.36,39.02,10.1,59.4,1.33,36.8,14.68,74.82,43.32,97.96,21.05,17.01,49.87,26.02,63.41,49.45,8.89,15.38,9.31,34.12,15.13,50.89,9.03,26.01,30.46,45.74,53.04,61.49,5.74,4,11.75,7.97,15.73,13.73,4.85,7.04,6.08,15.87,7.34,24.32,2.45,16.45,5.6,33.02,12.66,48.09,8.79,18.77,22.64,33.34,27.98,53.55,4.85,18.35,10.2,38.74,13.15,57.73-.39-2.51,18.45-21.6,20.65-25.94,4.61-9.1,7.79-21.6,9.21-31.63,3.95-28.03-7.8-56.01-17.93-81.48-14.09-35.44,2.4-73.8-11.84-107.35Z"/>
  <path class="cls-1" d="M315.53,2155.82c-24.52-35.73-16.42-87.52-43.67-121.21-10.83-13.39-26.29-22.48-36.91-36.04-12.75-16.29-17.3-37.31-25.36-56.36-15.24-36.05-43.08-65.03-70.32-93.12-22.1-22.8-50.28-47.59-81.3-40.8-30.82,6.74-46.95,43.79-41.68,74.9,5.27,31.11,25.86,57.14,46.17,81.29,20.3,24.15,41.69,49.19,49.15,79.85,2.71,11.16,3.47,22.75,6.65,33.79,5.26,18.25,17.29,34.47,33.23,44.8,19.3,12.51,43.08,16.15,63.37,26.99,14.93,7.98,27.52,19.61,39.94,31.11,12.37,11.46,66.12,71.95,77.35,60.46,4.93-5.05,2.75-32.12,2.65-39.12-.29-21.93-10.17-28.32-19.27-46.51Z"/>
  <path class="cls-1" d="M256.91,2317.5c-12.66-9.98-28-15.96-41.36-24.97-14.9-10.06-27.01-23.66-38.81-37.23-17.99-20.69-36.09-42.02-59.53-56.24-23.44-14.22-53.72-20.27-78.45-8.44-27.44,13.13-41.8,46.91-36,76.77,5.81,29.86,29.29,54.6,57.48,66.01,23.05,9.33,50.14,11.35,68.32,28.31,16.37,15.27,21.39,38.99,33.77,57.65,13.69,20.64,36.97,34.62,61.62,37.02,23.29,2.26,49.09-4.75,68.73,7.97,7.3,4.73,12.82,11.74,19.64,17.13,19.73,15.57,45.98,15.45,69.67,18.86,15.8,2.27,32.92,11.58,47.87,11.8-11.8-27.5-54.55-49.97-77.66-67.66-44.79-34.29-52.55-93.27-95.28-126.98Z"/>
  <path class="cls-1" d="M648.52,2647.21c-6.47-.46-19.41-12.06-26.26-14.89-10.56-4.36-21.72-7.14-32.94-9.15-20.22-3.63-38.78-5.42-59.13-4.69-45.81,1.66-92.03-8.19-132.33-30.31-29.27-16.07-59.04-36.22-93.8-35.73-17.26.24-33.99,5.72-51.12,7.8-29.02,3.53-58.21-2.72-87.25-6.09-29.04-3.37-60.09-3.46-85.51,10.98-35.47,20.15-51.15,69.09-33.98,106.1,17.16,37.01,64.64,56.66,102.94,42.61,31.91-11.71,58.5-43.32,92.23-39.14,16.18,2,30.03,12.21,45.32,17.88,19.28,7.15,41.22,6.84,60.29-.86,15.36-6.2,29.1-17.04,45.49-19.46,23.88-3.53,46.43,11.55,70.39,14.51,33.29,4.11,64.29-15.19,95.77-26.78,28.62-10.54,59.48-14.93,89.9-12.77Z"/>
  <path class="cls-1" d="M692.8,2695.87c-23.33,10.41-45.91,26-71.45,25.53-18.02-.33-35.71-8.82-53.5-5.91-34.84,5.69-48.67,48.91-77.94,68.63-14.19,9.56-31.46,13.14-48.24,16.52-48.59,9.78-97.19,19.56-145.78,29.33-39.82,8.01-84.33,19.23-104.83,54.3-4.53,7.74-7.6,16.31-12.67,23.72-25.47,37.24-90.54,33-110.01,73.69-1.45,3.04-2.59,6.45-1.84,9.73.75,3.27,3.26,5.83,5.87,7.93,15.14,12.12,36.01,13.78,55.39,13.1,37.04-1.3,75.25-10,103.99-33.4,18.89-15.38,34.25-37.26,57.81-43.45,17.92-4.71,36.75.84,55.26,1.53,40.15,1.49,78.13-20.36,106.39-48.93,10.32-10.43,19.83-21.94,32.16-29.88,33.98-21.89,80.1-11.64,116.98-28.18,33.94-15.22,81.22-14.79,104.84-48.77,5.37-7.72,8.93-16.51,13.23-24.87,18.33-35.7,50.86-63.86,88.82-76.88-38.91-2.37-78.45.19-114.48,16.26Z"/>
  <path class="cls-1" d="M834.27,2755.55c-12.12,10.96-27.81,16.93-42.8,23.45-29.78,12.95-59.35,30-77.23,57.12-12.29,18.64-18.53,41.29-33.81,57.57-14.26,15.19-34.54,22.87-52.3,33.77-17.76,10.9-34.61,28.2-33.86,49.02.73,20.04,18.72,36.51,38.38,40.44,19.66,3.92,40.1-2.45,57.61-12.22,17.68-9.87,33.38-23.27,45.91-39.17,10.98-13.93,21.13-30.93,38.29-35.39,7.51-1.95,15.44-1.15,23.18-1.71,37.34-2.68,65.29-36.22,79.71-70.77,14.43-34.55,20.18-72.6,38.07-105.49,14.97-27.53,38.46-50.95,66.48-65.12-26.33-5.74-47.06-1.62-71.39,8.97-34.3,14.92-49.61,35.48-76.23,59.56Z"/>
  <path class="cls-1" d="M1229.82,2692.15c-7.2,7.11-62.65,1.55-75.2,4.12-25.29,5.19-48.56,16.71-63.26,38.67-6.52,9.73-11.4,20.97-20.58,28.24-7.24,5.74-16.39,8.36-25.23,11.06-21.47,6.56-43.72,15.14-57.63,32.76-9.61,12.18-14.23,27.47-21.68,41.07-20.34,37.13-60.3,59.52-84.32,94.37-11.45,16.61-19.01,38.6-10.29,56.8,12.36,25.82,50.95,27.88,74.7,11.9,23.75-15.97,36.7-43.27,50.27-68.47,3.62-6.72,7.49-13.55,13.41-18.36,11.55-9.4,27.93-9.1,42.11-13.66,35.8-11.53,52.8-51.48,64.38-87.26,2.98-9.2,5.93-18.53,10.96-26.8,5.11-8.4,12.18-15.4,19.18-22.31,27.74-27.38,55.47-54.77,83.21-82.15Z"/>
  <path class="cls-1" d="M1239.46,2800c-7.05,9.68-9.88,21.7-14.85,32.59-25.17,55.05-99.74,72.82-127.02,126.84-7.71,15.27-10.35,35.47.98,48.3,9.47,10.74,25.45,12.71,39.74,11.71,41.03-2.88,80.25-25.29,103.61-59.15,9.54-13.82,16.67-29.53,28.65-41.29,20.32-19.95,52.29-26.31,69-49.37,14.42-19.9,13.49-46.72,21.08-70.09,15.53-47.86,58.03-82.86,93.15-115.61-23.2,2.92-51.42,1.97-72.6,11.88-25.73,12.04-43.32,26.36-62.46,47.21-22.31,24.3-60.36,31.03-79.27,56.98Z"/>
  <path class="cls-1" d="M1536.76,2781.42c-20.46,16.14-49.22,19.87-67.85,38.1-25.23,24.69-23.31,66.96-44.95,94.85-12.12,15.62-30.47,25.16-44.02,39.55-13.55,14.39-21.28,38.51-8.21,53.34,5.4,6.13,13.36,9.4,21.29,11.38,40.71,10.15,87.1-12.56,104.05-50.94,10.24-23.19,11.99-52.47,32.53-67.32,7.36-5.32,16.27-7.97,24.43-11.96,18.07-8.83,32.57-24.72,39.72-43.51,5.56-14.61,6.73-30.46,9.86-45.78,10.12-49.55,40.35-87.52,80.26-116.74-28.48-2.9-59.69-4.42-83.16,14.15-28.66,22.69-35.38,62.34-63.95,84.88Z"/>
  <path class="cls-1" d="M1746.85,2783.62c-1.9,6.85-3.8,13.93-8.12,19.58-7.14,9.35-19.28,12.96-30.33,17-59.33,21.7-107.44,72.03-126.43,132.28-1.56,4.96-2.95,10.11-2.45,15.29,1.36,13.9,15.65,22.9,29.25,26.1,29.36,6.91,62.23-4.39,81.15-27.89,7.48-9.3,13.09-20.45,22.78-27.43,10.55-7.59,24.28-9.03,35.97-14.73,19.14-9.33,31.07-29.41,36.6-49.97,5.53-20.57,5.7-42.12,7.67-63.33.64-6.92,1.81-14.48,7-19.09,20.91-18.57,30.63-20.57,28.95-51.68-.51-9.37,4.22-69.84,14.82-69.84-52.87,25.55-81.12,56.93-96.85,113.7Z"/>
</svg>