<?xml version="1.0" encoding="UTF-8"?>
<svg xmlns="http://www.w3.org/2000/svg" xmlns:xlink="http://www.w3.org/1999/xlink" viewBox="0 0 1920 3240">
  <defs>
    <style>
      .cls-1 {
        fill: none;
      }

      .cls-2 {
        isolation: isolate;
      }

      .cls-3 {
        clip-path: url(#clippath-1);
      }

      .cls-4 {
        fill: #deddd3;
      }

      .cls-5 {
        mix-blend-mode: difference;
        opacity: .5;
      }

      .cls-6 {
        fill: #f2f1ed;
      }

      .cls-7 {
        clip-path: url(#clippath);
      }
    </style>
    <clipPath id="clippath">
      <rect class="cls-1" x="0" y="-3260" width="1920" height="3240"/>
    </clipPath>
    <clipPath id="clippath-1">
      <path class="cls-1" d="M765.85-24.68v-3237.78h377.2V-24.68c0,424.22,348.56,769.35,776.97,769.35S2696.96,399.54,2696.96-24.68s-348.54-769.37-776.94-769.37c-142.04,0-279.84,38.45-399.75,109.77v-415.92c126.85-46.51,261.97-71.05,399.75-71.05,636.41,0,1154.14,514.35,1154.14,1146.57s-517.73,1146.55-1154.14,1146.55S765.85,607.53,765.85-24.68ZM1920.02-1941.52c-135.74,0-269.27,14.38-399.75,42.2v387.93c129.46-34.94,263.17-52.93,399.75-52.93,844.64,0,1531.81,687.17,1531.81,1531.83s-687.17,1531.83-1531.81,1531.83S388.17,812.17,388.17-32.49v-3229.97H10.97V-32.49c0,1052.63,856.39,1909.03,1909.05,1909.03S3829.03,1020.14,3829.03-32.49s-856.39-1909.03-1909.01-1909.03ZM1920-419.13c-220.44,0-399.15,178.71-399.15,399.15s178.71,399.15,399.15,399.15,399.15-178.71,399.15-399.15-178.71-399.15-399.15-399.15Z"/>
    </clipPath>
  </defs>
  <g class="cls-2">
    <g id="Layer_1" data-name="Layer 1">
      <g class="cls-7">
        <g>
          <g>
            <path class="cls-6" d="M1920.02,1121.87c636.41,0,1154.14-514.34,1154.14-1146.55s-517.73-1146.57-1154.14-1146.57c-137.77,0-272.89,24.54-399.75,71.05v415.92c119.9-71.32,257.7-109.77,399.75-109.77,428.4,0,776.94,345.13,776.94,769.37s-348.54,769.35-776.94,769.35S1143.04,399.54,1143.04-24.68v-3237.78h-377.2V-24.68c0,632.21,517.76,1146.55,1154.17,1146.55Z"/>
            <path class="cls-6" d="M1920.02-1941.52c-135.74,0-269.27,14.38-399.75,42.2v387.93c129.46-34.94,263.17-52.93,399.75-52.93,844.64,0,1531.81,687.17,1531.81,1531.83s-687.17,1531.83-1531.81,1531.83S388.17,812.17,388.17-32.49v-3229.97H10.97V-32.49c0,1052.63,856.39,1909.03,1909.05,1909.03S3829.03,1020.14,3829.03-32.49s-856.39-1909.03-1909.01-1909.03Z"/>
            <circle class="cls-6" cx="1920" cy="-19.98" r="399.15"/>
          </g>
          <g class="cls-5">
            <g class="cls-3">
              <image width="5659" height="8073" transform="translate(.2586 -3276.4635) scale(.683 .6366)" xlink:href="../Scan-9.jpg"/>
            </g>
          </g>
        </g>
      </g>
      <path class="cls-4" d="M1451.25,1877.54c14.63-17.17,28.79-34.57,47.74-47.27,18.57-12.44,39.38-19.18,61.63-20.52,23.13-1.39,46.21,1.32,69.3,2.11,22.8.78,46.41-.6,67.5-10.13,19.16-8.66,34.52-23.48,50.3-36.98,15.1-12.92,30.92-23.86,50.89-27.26,20.55-3.5,42.64-3.37,59.8-16.86,18.55-14.58,24.6-41.66,28.96-63.57,5.1-25.66,5.97-53.17-1.49-78.46-6.19-21-17.51-40.9-34.63-54.92-16.58-13.58-37.72-20.06-59.07-18.65-46.73,3.09-82.54,35.87-108.74,71.97-26.65,36.73-46.31,79.38-80.81,109.86-8.07,7.13-16.78,13.36-26.37,18.29-11.18,5.74-23.16,9.63-34.81,14.25-19.33,7.67-37.34,18.38-53.42,31.58-28.51,23.38-51,54.83-63.69,89.57.14-15.19-.67-30.4-2.42-45.52,20.26-25.99,39.74-53.81,55.51-83.36.73.05,1.49-.13,2.26-.65,16.8-11.22,31.28-25.34,47.26-37.69,15.65-12.1,32.27-22.18,50.15-30.64,16.99-8.05,34.57-15.9,48.54-28.81,12.69-11.72,21.78-26.73,29.87-41.83,0-12.7,21.12-39.39,29.43-48.56,10.16-11.21,23.29-20.75,34.57-30.9,25.59-23.01,60.58-34.3,91.64-48.63,38.99-17.99,74.12-49.7,79.37-94.77,3.71-31.87,4.9-74.69-11.86-103.36-21.87-37.41-65.39-29.16-98.26-9.89-9.93,5.82-19.17,13.25-25.34,22.96-6.28,9.9-9.14,21.79-16.21,31.14-13.68,18.1-39.03,25.25-56.82,38.54-18.39,13.74-33.38,29.85-46.07,49.07-10.97,16.62-21.39,33.3-35.36,47.62-13.21,13.54-27.89,25.61-40.41,39.83-26.83,30.48-36.2,68.88-42.32,108.06-1.7,10.88-3.35,21.87-5.42,32.74,4.65-40.65-3.38-80.5-6.4-120.92-2.2-29.46.46-58.04,9.41-85.64,2.26-1.41,4.59-2.59,6.44-3.51,6.88-3.45,14.59-6.24,22.32-6.75,12.11-.79,24.2,1.75,36.32.77,11.29-.91,21.36-5.31,30.56-11.73,17.67-12.33,36.59-35.64,26.78-58.43-9.61-22.32-42.16-19-59.16-8.39-7.83,4.88-15.01,10.86-22.01,16.98,2.43-2.81,4.91-5.59,7.42-8.34,1.51-.05,2.99-.91,4.08-2.6,1.43-2.21,2.93-4.37,4.47-6.5,2.49-2.59,5.01-5.16,7.54-7.72.97-.92,1.91-1.86,2.81-2.83,2.03-2.04,4.06-4.07,6.1-6.11,4.59-4.58,9.15-9.18,13.63-13.85,6.49-4.8,13.41-9.03,20.74-12.59,24.46-11.89,53.6-12.43,76.52-27.57,21.86-14.44,32.11-39.82,52.64-55.53,21.09-16.14,50.25-16.12,72.27-30.87,53.39-35.77,83.92-98.12,78.17-162.63-.88-9.85-2.65-19.85-7.56-28.43-17.93-31.35-53.07-18.6-77.45-2.18-14.51,9.77-33.16,18.55-45.98,30.11-11.81,10.65-18.58,27.37-26.68,40.75-17.25,28.5-34.51,57-51.77,85.5-7.01,11.58-14.24,23.09-21.4,34.65,4.19-19.23,6.73-38.88,8.37-58.66,10.8-9.34,14.93-23.05,16.49-37.38.81-7.41,1.04-14.87,1.75-22.29.74-7.83,1.62-12.76,4.07-19.27,9.41-25.04,33.27-45.53,50.39-66.93,8.93-11.16,16.81-23.33,21.56-36.89,5.36-15.3,3.81-31.98,14.45-44.25,9.71-11.19,22.45-19.29,31.97-30.69,12.57-15.06,17.15-33.46,16.96-52.85-.1-9.84-1.37-19.66-2.71-29.39-1.23-8.89-2.74-17.9-6.26-26.22-3.64-8.62-9.35-15.88-17.43-20.66-7.71-4.57-16.44-6.33-25.23-7.56-34.32-4.8-70.55,4.14-99.32,23.27-29.47,19.59-51.05,49.77-60.56,83.87-4.9,17.57-7.14,35.91-5.69,54.13,1.58,19.95,7.89,40.3,4.86,60.37-3,19.87-11.15,38.41-11.06,58.81.08,15.98,4.52,31.7,10.63,46.35,11.31,27.14,30.39,52.84,35.33,81.68.24,1.41.45,2.96.63,4.58-2.4,18.11-5.94,36.05-11.32,53.71-8.31,27.26-21.43,51.41-38.92,73.2.28-1.19.56-2.38.81-3.57,7.94-36.69,3.16-75.73,1.53-112.88-.7-16-.58-32.22-3.03-48.08-2.18-14.13-9.18-23.77-12.77-37.26-7.14-26.83,1.62-55.51-7.42-82.19-4.86-14.35-14.4-26.68-19.92-40.79-15.27-39.02,4.23-80.39-5.77-119.61-7.27-28.48-10.43-73.4-31.57-95.74-15.7-16.59-40.2-20.9-62.98-22.62-20.85-1.57-42.92-1.45-61.19,8.72-17.88,9.96-29.8,28.68-34.72,48.54-7.66,30.86-2,68.38,10.39,97.32,8.97,20.94,20.5,41.45,22.61,64.12,1.6,17.18-2.37,34.4-2.12,51.65.93,63.41,43.71,114.11,81,159.59,13.49,16.45,19.73,34.94,27.15,54.56,6.21,16.41,15.28,29.78,26.71,42.94,9.79,11.27,18.86,22.6,23.36,37.06,4.26,13.72,4.45,28.6,1.27,42.56-.51,2.23-1.1,4.45-1.77,6.67-13.57,13.97-26.56,28.44-37.27,44.88-7.23,11.1-13.5,22.89-18.73,35.13,1.66-7.83,2.94-15.68,3.41-23.75.66-11.16-.1-22.2-1.4-33.29-2.38-20.3-5.06-41.87-12.35-61.08-6.22-16.39-18.72-33.08-36.51-37.7-16.43-4.27-32.56,2.84-43.19,15.56-12.85,15.37-17.17,35.21-15.6,54.92,1.69,21.23,8.46,41.81,14.86,62,5.95,18.79,12.93,37.15,22.34,54.5,9.72,17.91,22.77,33.03,35.22,49.02,5.34,6.86,10.89,14.12,14.93,21.95,1.21,30.87,6.72,61.45,8.27,92.42,1.04,20.79-.96,41.05-5.46,60.86-.88-3.02-2.02-6.01-3.46-8.97-3.22-6.64-7.28-14.13-9.1-20.48-2.03-7.11-3.3-14.42-4.55-21.7-2.51-14.55-4.86-29.63-11.76-42.88-7.06-13.55-20.54-28.46-37.38-26.84-16.71,1.61-28.17,17.13-31.91,32.38-4.81,19.63,2.25,39.45,10.1,57.27,7.56,17.16,15.17,34.31,21.32,52.04,12.2,35.15,17.02,72.35,5.88,107.94-2.91,4.73-5.81,9.48-8.67,14.25-1.03,1.72-2.07,3.43-3.11,5.13-11.43-64.55-39.94-126.18-83.71-175-3.67-4.1-7.57-8.01-11.6-11.78,1.27-2.49,1.81-5.47,1.54-7.87-2.82-25.87-6.42-51.67-9.12-77.55-1.14-10.97-1.77-22.72,1.17-33.07,2.63-9.24,7.06-17.73,11.93-25.96,10.76-18.2,23.69-35.51,30.27-55.85,7.43-22.97,7.94-49.91-3.15-71.86-9.46-18.71-26.28-33.66-47.34-37.24-20.07-3.42-39.56,5.67-53.56,19.74-33.22,33.41-37.75,85.51-33.7,130.02,2.28,25,6.22,49.94,13.9,73.88,2.5,7.8,5.56,15.43,9.25,22.69-15.73-5.78-32.14-9.76-47.98-12.44-29.26-4.95-61.96-3.31-92.13-8.71,0-.01-.01-.02-.02-.04-.34-.64-.56-1.03-.69-1.25-.05-.12-.11-.26-.17-.42-.25-.61-.48-1.22-.71-1.84.1.15-.74-2.78-.87-3.39-.44-1.95-.79-3.91-1.17-5.87-1.82-9.36-2.83-18.22-1.24-27.72,3.35-20.01,15.84-37.33,27.76-53.18,13.14-17.48,26.92-34.56,35.42-54.92,8.6-20.6,11.08-44.66,3.09-65.84-6.62-17.54-22.14-32.23-40.91-35.3-19.01-3.12-35.42,8.57-45.76,23.58-11.78,17.1-14.76,37.59-19.93,57.22-2.67,10.12-6.56,19.37-11.38,28.62-5.35,10.27-10.08,20.5-12.32,31.94-4.81,24.54,1.77,50.09,11.61,72.55,2.34,5.34,4.83,10.72,7.54,15.97-2.12-1.56-4.19-3.23-6.22-5.02-33.87-29.9-44.56-78.26-62.52-117.9-7.29-16.1-16.12-31.14-26.13-45.28.69-1.6.97-3.44.88-4.9-1.25-20.33-5.59-39.89-11.55-59.01,13.85-23.69,38.84-38.56,65.27-44.8,35.88-8.47,73.01-.06,107.56,10.21,38.13,11.34,75.88,25.48,115.96,28,36.56,2.3,72.9-7.02,100.42-31.98,25.3-22.94,42.14-57.16,41.84-91.61-.16-18.43-6.15-37.73-20.56-49.99-13-11.06-30.76-14.8-47.45-14.62-39.9.44-77,19.53-113.54,33.27-37.95,14.26-77.35,25.02-118.11,25.81-37.66.73-78.25-3.66-112.3,16.01-15.23,8.8-27.05,21.43-34.05,37.64-3.5,8.1-5.51,16.67-6.45,25.39-.92-2.21-1.85-4.42-2.77-6.63-15.52-37.06-32.44-75.82-32.01-116.14.02-1.95.09-3.9.19-5.85.59-.31,2.41-1.16,3.24-1.51,3.48-1.46,7.12-2.43,10.76-3.39,8.46-2.23,16.47-5.59,24.77-8.34,19.29-6.39,39.19-10.65,59.4-12.82,20.65-2.22,41.52-2.3,62.18-.2,21.25,2.16,41.68,7.86,62.63,11.7,21.41,3.93,41.97,4.35,63.01-1.84,19.23-5.66,36.81-15.75,53.17-27.15,29.13-20.3,54.45-47.47,70.94-79.04,16.84-32.25,25.25-69.44,18.95-105.65-5.63-32.36-24.39-65.82-56.93-77.16-34.87-12.16-72.14,4.19-98.7,26.91-29.89,25.56-48.15,61.73-71.66,92.64-11.74,15.43-25.34,29.26-41.06,40.65-16.2,11.74-34.39,20.24-53.25,26.74-29.01,9.99-61.23,17.56-85.12,37.15,2.32-5.17,4.73-10.29,7.21-15.33,1.93-3.93,3.9-7.83,5.89-11.72,11.94-15.29,27.51-27.9,42.79-39.55,18.42-14.04,37.06-27.59,53.11-44.42,34.96-36.68,56.52-88.14,40.47-138.55-12.59-39.53-57.68-70.49-99.02-53.7-22.03,8.95-38.65,30.44-47.68,51.79-4.97,11.75-7.54,24.68-7.39,37.44.17,14.1,4.57,27.23,9.53,40.26,2.33,6.12,3.85,10.07,5.15,15.55,1.04,4.42,2.2,11.41,2.52,14.39,1.24,11.79,1.3,24.34.37,35.76-1.87,22.99-6.29,45.66-14.32,67.3-.15.29-.29.58-.44.86-4.06,8.07-8.01,16.25-11.74,24.54-1.21-10.92-3.76-21.73-7.39-32.17-3.78-10.86-9.16-21.31-15.59-30.83-6.51-9.65-14.43-18.41-20.19-28.56-11.12-19.62-9.85-43.9-14.14-65.44-3.8-19.09-12.63-39.86-28.78-51.74-18.58-13.68-41.16-9.87-58.99,3.17-17.36,12.69-27.77,33.27-32.34,53.85-5.59,25.16-1.6,51.59,5.87,75.89,7.02,22.85,17.1,45.5,34.91,62.03,9.4,8.72,20.43,15.38,31.2,22.23,11.48,7.3,22.45,15.26,33.01,23.82,10.5,8.52,20.8,17.35,30.86,26.39,4.04,3.63,8.04,7.37,11.36,11.7,2.64,3.45,5.59,8.42,6,11.53-.16,1.52-.31,3.04-.44,4.57-.02.29-.04.58-.06.87-.14.96-.21,1.93-.2,2.89-1.35,22.51,1.59,44.34,7.06,65.68-3.72-2.58-7.46-5.14-11.11-7.82-9.69-7.1-19.13-14.67-27.74-23.07-17.44-17.03-28.83-38.55-42.85-58.23-14.1-19.81-31.46-37.53-50.9-52.13-18.1-13.6-39.39-24.2-61.64-13.59-20.69,9.86-32.92,31.45-34.46,53.81-1.67,24.22,7.42,49.08,23.33,67.31,7.37,8.44,16.47,16.06,27.57,18.87,11.67,2.95,23.99.63,35.53,3.9,18.49,5.23,31.8,20.44,45.43,33.06,8.13,7.53,16.68,14.56,26.46,19.86,10.11,5.47,21.27,8.59,32.44,11.07,22,4.89,46.57,7.14,64.64,21.91.31.26.63.47.95.66,6.57,15.28,13.26,30.51,19.41,45.96,6.78,17,12.96,34.4,16.51,52.37-17.78-22-38.41-41.77-60.46-60.01-20.44-16.9-41.83-32.62-63.22-48.27-22.85-16.73-46.52-33.46-73.41-43.05-54.73-19.52-114.64-8.88-170-25.46-4.41-1.32-8.74-2.77-13.01-4.34-1.45-2.74-3.71-4.6-6.75-4.6-.06-.46-.18-1.2-.18-1.27-.08-1.1-.15-2.2-.19-3.3-.09-2.19-.11-4.39-.03-6.58.25-6.39,1.68-14.14,3.73-20.83,4.84-15.73,12.98-30.09,22.53-43.42,20.07-28.02,46.76-50.52,68.52-77.14,22.17-27.12,37.93-58.19,43.87-92.92,5.63-32.97,2.29-68.81-12.98-98.89-13.64-26.85-35.19-49.19-62.25-62.66-25.15-12.52-63.78-20.28-87.28-.53-24.68,20.74-24.08,58.95-19.59,87.81,5.32,34.26,18.87,67.47,19.98,102.35.52,16.32-2.98,31.42-9.33,46.39-6.71,15.82-15.39,30.75-21.57,46.81-11.24,29.21-12.42,62.3-2.74,92.1-16.64-13.53-31.49-29.4-44.36-47.22-3.83-5.3-7.54-10.72-11.21-16.21-.45-1-1.03-1.9-1.76-2.64-1.93-2.92-3.86-5.85-5.77-8.79-.6-1.48-1.45-2.87-2.55-4.1-.13-.14-.26-.28-.39-.42-3.57-5.48-7.14-10.98-10.77-16.42-.88-6.27.56-12.31,2.66-19.55,3.27-11.27,7.34-22.44,8.74-34.15,3.02-25.21-4.43-49.38-5.87-74.34-1.35-23.5,8.76-44.35,14.14-66.74,5.5-22.92,3.58-47.48-10.97-66.79-13.41-17.8-33.77-28.06-55.9-29.52-21.74-1.43-46.72,5.35-62.92,20.42-18.8,17.49-19.67,44.15-17.63,68.04,2.16,25.34,7.79,50.07,20.62,72.25,11.02,19.04,26.58,34.74,40.63,51.49,4.14,4.94,8.17,10,11.89,15.26-2.13-1.67-4.29-3.31-6.52-4.88-23.56-16.61-50.16-26.04-77.54-33.44-.85-1.25-1.98-2.23-3.44-2.73-22.16-7.47-38.86-23.34-48.77-44.42-11.56-24.58-10.22-52.94-20.82-77.94-19.22-45.31-71.21-74.66-119.71-73.28-24.92.7-47.62,11.55-62.09,32.06-13.09,18.57-18.29,43.04-16.4,65.48,4.34,51.62,43.09,89.37,86.66,112.62,27.16,14.5,58.21,24.95,89.36,23.3,15.6-.82,30.36-5.56,45.19-10.06,7.09-2.15,14.22-4.21,21.59-5.21,4.22-.57,8.51-.7,12.79-.74,13.79,3.53,27.48,7.36,40.8,12.23,22.25,8.13,42.67,19.3,60.1,35.18-8.84-5.03-18.19-9.14-27.97-11.32-18.43-4.11-35.59-.3-52.5,7.5-17.26,7.97-33.79,16.51-52.17,21.8-18.36,5.29-37.5,7.88-56.61,8.01-17.99.12-35.92-1.85-53.9-1.76-17.78.1-36.25,2.38-52.27,10.56-12.88,6.58-23.58,16.67-31.57,28.67-16.62,24.97-21.57,58.36-13.13,87.11,9.12,31.04,32.22,55.74,61.27,69.42,30.06,14.16,64.34,14.22,95.58,3.87,33.67-11.15,60.83-33.82,83.14-60.82,11.37-13.76,21.88-28.23,33.42-41.86,9.87-11.66,20.41-23.76,33.89-31.31,23.69-13.27,54.59-18.07,80.85-10.29,5.24,1.56,10.33,3.64,15.14,6.24,9.41,14.35,19.29,28.37,30.74,41.24,10.21,11.48,21.45,21.85,33.58,31.1-2.52-.2-5.05-.4-7.57-.6-23.02-1.77-46.69-2.8-68.47,6.24-32.62,13.54-53.71,44.06-74.8,70.81-10.57,13.41-21.7,26.61-35,37.42-15.79,12.83-35.02,20.22-54.83,24.19-50.29,10.08-99.75,9.67-146.91,32.34-40.38,19.41-72.78,55.89-85.43,99.06-6.82,23.26-7.74,49.97,5.63,70.18,11.28,17.05,30.71,26.68,49.68,34.3,23.48,9.44,48.16,17.11,73.46,17.2,64.25.23,105.75-45.86,158.52-73.27,36.24-18.83,64.74-46.92,86.08-81.52,10.2-16.54,19.72-34.1,34.33-47.25,16.47-14.82,38.48-18.56,58.23-27.17,19.53-8.52,36.05-23.38,45.85-42.4,5.66-10.99,8.8-22.69,11.98-34.57,2.67-9.98,5.45-20.01,11.22-28.7,4.76-7.18,11.62-12.8,19.75-15.64,7.17,1.96,14.43,3.6,21.78,4.89,27.43,4.83,55.3,5.25,82.98,7.65-6.37,2.86-12.47,6.4-18.27,10.5-29.26,20.67-46.82,53.25-63.83,83.81-9.02,16.2-18.21,32.66-30.1,46.97-12.08,14.54-27.02,26.41-42.68,36.88-30.29,20.26-63.81,37.45-87.37,66.04-11.64,14.13-20.42,30.11-24.19,48.12-3.45,16.49-2.23,33.92,3.07,49.86,4.89,14.72,14.5,27.86,27.87,35.87,16.37,9.8,36.43,10.73,54.91,8.26,75.16-10.04,129.91-70.25,165.42-132.9,20.11-35.48,36.42-73.06,53.5-110.05,9.09-19.69,18.19-39.39,27.28-59.08,3.21-6.95,5.29-11.98,9.67-18.15,3.74-5.28,7.63-10.16,11.7-15,3.49-4.15,7.03-8.3,10.88-12.13,1.74-1.73,2.86-3.97,3.46-6.4,18.86,11.97,36.63,25.91,54.43,39.24,31.07,23.26,62.01,47.94,87.6,77.27-1.45-.33-2.89-.67-4.36-.97-8.47-1.75-16.91-3.68-25.39-5.37-16.22-3.23-32.61-6.2-49.19-6.4-29.82-.36-59.37,9.75-77.21,34.73-8.39,11.75-13.17,26.89-12.27,41.36,1.06,17.09,9.29,30.77,24.27,39.04,28.34,15.65,60.65,5.55,86.91-9.06,15.12-8.41,29.53-18.16,45.56-24.83,7.83-3.26,15.93-5.87,24.38-6.85,8.62-.99,17.37,1.5,25.75-.2.57-.12,1.1-.29,1.59-.52,14.85,31.83,24.75,66.09,43.03,96.24-32.29-14.15-68.32-21.54-102.73-12.99-19.95,4.96-36.61,16.16-49.85,31.74-6.83,8.03-13.03,16.62-20.4,24.18-6.9,7.07-14.75,13.04-23.37,17.85-38.3,21.35-83.04,21.24-125.52,24.91-39.35,3.4-85.61,10.04-104.9,49.56-16.35,33.5-11.14,76.81,12.29,105.75,24.57,30.36,63.31,45.18,101.64,46.66,37.73,1.45,76.05-9.89,107.5-30.62,16-10.55,30.39-23.09,42.52-37.96,11.55-14.17,20.37-29.9,28.96-45.97,8.02-15,15.9-30.61,26.74-43.83,10.89-13.28,24.2-22.15,40.79-26.66,10.03-2.72,20.47-4.41,29.95-8.84,7.6-3.54,14.37-8.84,20.52-14.48,11.66-10.7,21.66-24.26,35.19-32.73,5.08-3.18,10.87-5.62,16.85-6.3,6.1,4.36,12.64,8.12,19.64,11.17,25.11,10.91,53.27,12.34,80.23,13.91,45.71,2.66,93.93,9.93,131.82,37.43-10.93-2.58-22.1-4.3-33.16-5.98-8.53-1.3-17.08-2.53-25.74-2.39-8.84.14-17.47,1.96-25.93,4.45-16.51,4.86-32.44,10.11-49.48,12.98-61.84,10.42-136.71,6.69-182.59,57.37-20.81,22.99-32.25,53.63-26.79,84.67,4.98,28.28,24.21,51.85,48.44,66.32,26.77,15.99,59.48,18.92,89.41,11.35,16.32-4.13,31.11-12.15,45.44-20.77,15.49-9.32,30.87-18.83,46.29-28.25,15.35-9.37,30.77-18.63,46.03-28.14,14.12-8.8,28.03-18.24,39.22-30.69,10.35-11.51,18.62-24.72,29-36.2,9.57-10.57,21.37-21.38,35.01-26.23,5.87-2.09,12.24-2.19,18.03.12,1.14.45,2.19.51,3.16.31,16.96,23.06,31.36,47.96,42.43,74.39,17.02,40.68,26.3,84.08,27.25,127.4.66,29.96-2.74,60.08-10.52,89.3-.97-14-2.88-27.97-4.94-41.45-3.63-23.74-8.57-47.78-17.97-69.99-8.9-21.03-22.3-40.83-41.75-53.37-20.65-13.32-44.62-18.45-68.69-21.52-25.18-3.21-50.48-2.32-71.03,14.36-18.95,15.39-32.8,41.99-31.3,66.68,1.36,22.39,14.1,41.31,32.46,53.65,18.84,12.65,39.85,17.65,61.81,22,25.39,5.03,51.39,10.31,70.74,28.78,9.11,8.69,16.21,19.33,22.73,30.03,6.5,10.68,14.4,22.12,17.07,34.51.38,1.76,1.2,3.83,2.42,5.46-7.8,12.94-16.94,25.04-27.48,35.94-16.71,17.28-35.94,31.84-55.39,45.84-12.25,8.82-24.98,17.6-37.42,26.82-.07-23.04-4.66-46.15-10.77-68.22-7.82-28.22-18.29-55.71-29.92-82.56-20.42-47.15-52.61-97.3-107.76-105.52-23.66-3.53-48.44,4.28-66.23,20.19-18.41,16.47-27.56,41.34-25.38,65.84,2.17,24.36,14,45.93,35.26,58.52,19.68,11.66,43.18,13.45,65.03,18.5,11.92,2.75,24.28,6.35,34.47,13.36,11.74,8.07,20.64,19.2,29.4,30.26,9.18,11.6,18.34,23.27,26.26,35.79,7.89,12.48,13.39,25.68,17.84,39.72-11.7,10.71-22.39,22.34-31.25,35.44-1.23-30.81-5.29-61.49-20.92-88.85-9.65-16.9-24.01-30.03-41.23-38.95-18.71-9.69-39.76-14.37-60.11-19.23-31.65-7.56-63.54-13.84-95.55-19.5-6.17-8.27-9.59-18.16-11.89-27.17-4.53-17.77-1.58-36.15-.04-54.16,1.58-18.59,4.11-37.42,3.75-56.1-.32-16.25-3.18-33.74-13-47.15-9.68-13.21-25.7-20.95-42.16-18.86-17.11,2.17-30.09,13.61-37.37,28.87-16.35,34.28-2.09,74.95,10.88,108.03,6.83,17.43,15.26,34.51,26.21,49.75,1.66,2.31,3.43,4.68,5.31,7.06-26.6-4.24-53.24-8.32-79.84-12.59-3.38-2.89-5.4-6.02-7.03-10.29-.53-1.38-1.23-4.1-1.72-6.87-.06-.32-.51-3.77-.52-3.64-.18-1.91-.29-3.83-.35-5.75-.51-14.71.87-28.79,3.7-44.06,3.52-18.98,9.76-37.35,12.85-56.41,3.07-18.96,2.87-39.37-9.46-55.21-10.12-13.01-25.52-21.87-40.95-27.15-8.31-2.84-17.31-3.58-25.29.7-7.3,3.92-13.01,10.45-16.71,17.8-8.98,17.85-7.28,38.45-3.13,57.38,2.09,9.53,4.75,18.93,6.43,28.55,1.61,9.22,2.14,18.57,3.04,27.88,2.02,21.03,6.59,40.6,17.23,59.03,1.65,2.85,3.46,5.73,5.42,8.57-25.84-4.53-51.99-9.37-76.96-17.55-.29-.83-.63-1.58-1.02-2.23-2.97-4.92-7.31-8.3-10.53-13.02-2.96-4.34-4.36-8.54-5.33-13.65.04.19-.43-2.76-.48-2.8-.13-1.23-.2-2.48-.24-3.72-.05-1.41-.06-2.83-.03-4.25.01-.44.02-.77.02-1.02.52-7.27,2.19-14.5,4.12-21.5,7.29-26.52,20.63-61.64.16-85.92-16.52-19.6-52.08-30.05-72.12-10.15-22.73,22.56-16.12,57.21-5.96,83.92,2.03,5.34,4.23,10.61,6.55,15.83-6.2-9.68-11.24-20.13-16-30.58-8.44-18.51-16.4-37.54-28.16-54.27-9.81-13.95-22.13-26.14-35.98-36.08-.42-1.21-.93-2.38-1.53-3.49-21.25-39.31-65.9-57.26-90.95-93.3-14.19-20.41-20.76-44.97-28.29-68.34-7.62-23.64-16.64-47.81-33.06-66.88-15.13-17.58-37.35-31.05-61.21-30.31-11.74.36-23.68,4.38-32.57,12.2-9.14,8.03-14.18,20.17-15.44,32.1-2.62,24.84,6.42,49.45,18.32,70.85,11.4,20.49,27.11,38.51,44.51,54.13,21.01,18.87,44.97,34.03,69.37,48.09,4.21,2.43,8.45,4.82,12.69,7.2-1.97-.1-3.95-.19-5.92-.25-16.22-.51-31.3-4.55-47.21-6.77-10.26-1.44-22.35.9-32.13-2.36-27.21-9.07-39.59-45.58-62.42-61.53-16.61-11.6-37.69-14.9-55.29-24.93-44.78-25.53-53.46-85.27-113.23-87.94-20.97-.94-42.69,7.79-55.32,24.56-11.86,15.76-14.73,36.31-17.21,55.88-6.38,50.26-11.01,106.98,21.37,145.95,36.23,43.61,112.28,46.76,164.18,40.49,29.76-3.6,58.88-11.75,87.52-20.31,31.38-9.38,62.88-19.42,93.44-31.22,4.7-1.81,9.27-3.89,13.78-6.09,18.39.37,36.68,2.31,54.63,6.65,8.59,2.07,17.14,4.7,25.5,7.9-14.74-2.51-29.99-2.9-44.45.18-20.9,4.45-36.07,16.42-48.05,33.8-10.71,15.54-18.82,32.07-33.59,44.37-31.29,26.07-74.33,31.61-112.56,40.91-46.83,11.39-84.02,39.52-124.4,64.82-29.03,18.18-60.04,38.78-71.18,71.17-4.58,13.3-5.36,27.6-5.24,41.67.15,17.29,1.75,35.16,9.99,50.36,9.56,17.64,27.52,29.93,46.97,34.89,19.45,4.96,40.21,3.05,59.36-2.94,30.73-9.61,53.33-20.07,85.6-19.18,30.88.85,61.63-5.84,88.02-22.3,17.06-10.64,31.74-24.19,43.66-40.39,12.85-17.46,21.88-37.59,29.23-57.88,13.91-38.37,21.74-79.81,43.48-114.89,10.01-16.16,23.17-29.75,38.48-40.97,14.19-10.4,31.44-19.42,49.23-20.87,8.05-.66,15.78.31,23.26,3.39.64.26,1.24.42,1.82.5,6.89,12.53,12.4,25.82,18.41,38.8,8.92,19.26,19.09,37.67,33.92,53.05,23.58,24.46,55.71,38.38,88.1,47.48-24.48,3.16-48.72,8.94-71.47,18.53-26.36,11.11-49.53,27.65-69.23,48.32-18.6,19.52-34.44,41.42-52.24,61.64-18.69,21.23-39.38,38.65-64.77,51.37-28.05,14.06-57.79,25.46-87.02,36.8-31.19,12.09-64.89,24.8-97.51,30.94-39.6,7.46-76.87,11.72-114.66,27.45-25.72,10.7-50.61,24.6-69.93,44.67s-32.65,46.95-32.24,74.8c.51,35.02,23.12,67.44,53.24,85.33s66.64,22.64,101.52,19.35c27.87-2.63,54.72-10.23,81.3-18.68,22.04-7.01,44.59-5.56,67.15-11.94,56.42-15.94,101.59-56.98,136.58-102.5,18-23.42,32.87-48.7,48.78-73.52,7.01-10.93,14.67-21.45,24.83-29.69,10.87-8.82,24.44-12.78,37.73-16.36,13.35-3.6,26.67-7.2,38.47-14.67,10.49-6.63,19.54-14.9,27.42-24.46,16.21-19.68,27.6-42.42,40.47-64.28,23.76-40.34,52.32-82.3,94.3-105.38,9.88-5.43,20.47-10.19,31.23-13.74,7.93,1.22,15.86,2.44,23.76,3.69,47.94,7.54,95.95,14.75,143.61,23.92,1,.19,2,.39,3,.58-15.43.4-30.83,2.15-45.95,5.33-60.65,12.77-117.67,46.53-155.64,95.91-20.28,26.37-31.36,60.35-21.01,93.06,8.94,28.25,34.75,44.69,63.66,45.71,66.88,2.36,101.16-67.07,142.57-107.22,23.16-22.45,51.75-35.08,82.75-42.85,15.12-3.79,30.53-6.4,45.9-8.95,14.69-2.43,30.07-5.6,42.91,3.9,2.15,1.59,4.36,3.4,6.14,5.29,1.05,1.11,2.01,2.62,3.29,3.62-.28-.22.4,1.27-.1-.6.37,1.39.96,3.01,1.84,4.39,2.37,9.94,3.89,20.16,4.97,30.18,1,9.27,2.26,18.43,2.93,27.73.02.33.06.68.11,1.04-3.79,8.39-6.7,17.11-8.58,26.19-2.9,14.01-2.59,28.36-3.71,42.56-1.7,21.5-8.7,40.1-23.77,56.6-21.67,23.72-50.2,37.06-80.61,43.92,12.97-10.31,24.34-22.63,33.77-36.25,19.98-28.84,30.77-65.91,23.65-100.82-3.46-16.96-11.61-33.71-24.81-45.2-11.77-10.25-28.72-17.09-44.46-14.35-40.43,7.03-44.29,58.68-42.96,91.27.91,22.32,6.43,44.21,6.72,66.56.21,15.87-4.35,33.64-15.92,45.11-23.39.09-46.77-1.36-70.15-2.08-5.42-.17-10.84-.26-16.27-.31.89-.6,1.78-1.19,2.66-1.8,9.95-6.84,19.97-14.8,22.38-27.34,2.46-12.82-2.9-26.91-14.18-33.78-21.77-13.26-49.15.88-62.44,19.36-6.85,9.51-11.74,19.35-21.85,25.95-10.45,6.83-22.26,12.34-33.55,17.61-12.79,5.98-25.68,9.82-39.34,13.19-2.8.69-5.5,1.47-8.08,2.38-.02,0-.05,0-.07.01-10.35,2.23-20.71,4.61-31,7.27,4.9-4.43,9.66-9,14.15-13.84,19.63-21.17,33.16-47.68,29.34-77.24-1.77-13.74-8.33-28.53-20.04-36.62-10.47-7.23-24.12-9.97-36.15-4.97-14.07,5.84-20.03,21-25.37,34.1-5.85,14.35-10.96,28.98-15.92,43.65-5.54,16.38-11.04,32.77-16.96,49.03-2.96,8.12-6.17,16.13-9.5,24.11-1.61,3.87-3.27,7.71-4.96,11.54-.83,1.9-1.57,3.86-2.3,5.82-6.85,4.64-13.33,9.8-19.25,15.58-7.92,7.74-24.86,38.54-20.2,49.97,8.86,21.76,51.66-2.01,73.27,1.44,22.98,3.67,42.91,16.38,61.83,29.17,19.88,13.43,39.68,27.57,62.65,35.23,24.11,8.04,50.39,10.31,75.46,5.96,21.03-3.65,41.82-12.28,55.39-29.41,14.58-18.42,14.98-44.78,1.62-64.01-14.17-20.39-38.16-27.7-61.89-28.93-13.78-.72-27.62.09-41.41.11-13.8.02-27.6-.28-41.39-.9-31.01-1.4-61.7-5-92.49-8.79-2.94-.36-6.01-.69-9.14-.94,17.77-7.03,36.33-12.19,54.82-16.82,24.95-6.25,50.29-10.98,75.79-14.34,44.46-.61,87.56,10.03,127.29,30.34,21.4,10.94,41.58,24.26,60.45,39.13,19.46,15.34,36.56,32.81,54.19,50.14,19.12,18.8,41.19,31.79,67.58,37.36,24.22,5.11,51.77,4.67,70.36-14.05,19.19-19.33,19.44-49.32,4.05-71.08-15.35-21.7-41.72-30.13-65.43-39.21-29.88-11.45-59.63-23.42-89.74-34.24-3.32-1.19-6.64-2.36-9.97-3.51,34.16-3.29,67.42-12.25,95.85-31.94,11.52,1.07,23.02-.75,34.59-.67,11.13.08,22.37,1,33.29,3.2.38.08.75.16,1.13.24.44.43.94.76,1.49.95,20.74,7.22,40.38,16.61,56.57,31.76,12.05,11.29,17.62,25.37,27.19,38.21,8.78,11.77,21.32,20.29,32.78,29.95,29.5,24.88,59,49.75,88.5,74.63,10.83,9.14,21.86,18.4,34.83,24.12,12.64,5.58,26.53,7.55,40.21,9.46,10.35,1.44,20.71,2.89,31.06,4.33,5.42.76,10.94,1.51,16.33.57,17.61-3.08,27.39-23.18,27.25-41.06-.19-24.17-13.15-46.83-30.36-63.81-19.48-19.21-42.28-29.27-65.61-41.9-25.05-13.56-46.15-30.04-73.53-39.85-6.19-2.22-12.46-4.17-18.8-5.9,3.44-1.24,6.84-2.58,10.2-4,19.68-8.34,38.01-19.23,56.08-30.58,23.22,2.77,46.78,2.69,68.44,12.95,20.41,9.67,35.85,27.26,50.33,44.07,39.79,46.19,93.46,84.8,144.51,118.26,35.24,23.1,75.71,46.49,116.99,38.06,15.86-3.24,31.37-11.89,39.1-26.11,11.12-20.46,3.15-46.85-11.91-64.61-15.06-17.76-35.96-29.28-55.22-42.37-25.42-17.28-45.74-37.57-67.12-58.66-20.11-19.84-50.86-21.87-76.7-31.05-34.92-12.41-69.41-35.17-106.05-44.65,14.13,3.65,30.87-17.34,41.3-23.17,16.95-9.47,37.16-13.32,56.35-10.06,16.23,2.76,31.27,10.11,46.05,17.38,21.31,10.48,42.62,20.96,63.93,31.44,32.38,15.92,88.48,42.75,124.86,27.13,25.84-11.09,39.01-42.17,35.7-70.09-1.95-16.46-11.22-28.45-13.58-44.61-2.7-18.48.16-37.21-5.13-55.43-7.16-24.66-27.79-44.53-52.2-52.46-24.42-7.93-51.97-4.31-74.45,8.09-18.3,10.1-33.41,25.62-52.53,34.05-36.67,16.17-81.44,7.38-115.03,32.4-10.89,8.11-18.77,19.68-26.04,30.96-7.41,11.51-14.7,22.78-24.58,32.37-9.98,9.7-21.41,17.75-33.19,25.1-1.71,1.07-3.41,2.17-5.09,3.29-3.81,1.75-7.59,3.56-11.31,5.47-35.57,18.28-67.41,42.98-103.1,61.05-16.52,8.36-34.08,15.49-52.45,18.43-20.11,3.22-39.82,1.07-59.28-4.62-23.66-6.93-46.36-17.21-70.67-21.81-12.91-2.44-26.03-3.66-39.18-3.06-3.65.17-7.34.4-11.01.8,7.7-8.61,14.28-18.24,19.23-28.65,19.82-12.54,45.67-9.77,68.07-11.4,15.99-1.16,31.81-4.9,47.56-7.77,16.66-3.05,33.32-6.09,49.99-9.14,33.38-6.1,67.15-11.16,100.26-18.59,14.88-3.34,28.97-8.1,41.71-16.65,12.17-8.16,22.69-18.17,32.36-29.15,20.09-22.79,39.33-52.95,26.07-84.2-12.27-28.91-43.79-38.29-72.81-36.85-29.88,1.48-59.81,10.06-86.14,24.19-13.06,7.01-25.18,15.52-36.68,24.84-11.26,9.12-22.18,18.9-34.71,26.27-12.85,7.56-27.13,11.7-41.26,16.14-14.27,4.49-27.63,9.86-39.95,18.47-17.62,12.32-31.29,29.43-42.87,47.54.58-11.7,1-23.56,4.52-34.8,7.28-23.28,23.23-42.59,40.75-59.04,17.82-16.72,37.73-30.97,57.6-45.11,8.63-6.14,17.27-12.28,25.78-18.61,1.05-.03,2.21-.41,3.47-1.29,31.46-21.89,63.27-46.63,101.97-53.55,39.74-7.1,80.13,1.95,119.23,8.78,19.95,3.49,40.07,6.6,60.36,7.02,21.38.44,42.36-3.12,63.47-5.97,10.66-1.44,21.38-2.65,32.15-2.87,11.03-.23,21.97.94,32.96,1.8,29,2.27,63.13-7.12,92.04-11.53,9.53-1.45,19.17-3.02,27.95-7,16.91-7.66,28.92-23.69,35.45-41.07,6.52-17.38,8.16-36.17,9.09-54.71,1.23-24.45-.81-53.24-21.24-66.72-6.09-4.02-13.2-6.14-20.2-8.22-37.84-11.21-85.03-16.61-123.66-5.66-37.89,10.75-68.65,35.84-102.71,54.44-17.18,9.38-35.24,16.85-54.64,20-21.05,3.42-42.44,3.34-63.65,5.12-33.65,2.82-66.55,12.88-93.86,32.69,3.31-9.36,6.17-18.88,8.61-28.51,11.39-17.09,24.56-33.15,37.83-48.73Z"/>
    </g>
  </g>
</svg>