<?xml version="1.0" encoding="UTF-8"?>
<svg xmlns="http://www.w3.org/2000/svg" xmlns:xlink="http://www.w3.org/1999/xlink" viewBox="0 0 1920 3240">
  <defs>
    <style>
      .cls-1 {
        fill: none;
      }

      .cls-2 {
        isolation: isolate;
      }

      .cls-3 {
        clip-path: url(#clippath-1);
      }

      .cls-4 {
        fill: #deddd3;
      }

      .cls-5 {
        mix-blend-mode: difference;
        opacity: .5;
      }

      .cls-6 {
        fill: #f2f1ed;
      }

      .cls-7 {
        clip-path: url(#clippath);
      }
    </style>
    <clipPath id="clippath">
      <rect class="cls-1" x="-1940" y="-3260" width="1920" height="3240"/>
    </clipPath>
    <clipPath id="clippath-1">
      <path class="cls-1" d="M-1174.15-24.68v-3237.78h377.2V-24.68c0,424.22,348.56,769.35,776.97,769.35S756.96,399.54,756.96-24.68,408.42-794.05-19.98-794.05c-142.04,0-279.84,38.45-399.75,109.77v-415.92c126.85-46.51,261.97-71.05,399.75-71.05,636.41,0,1154.14,514.35,1154.14,1146.57S616.43,1121.87-19.98,1121.87-1174.15,607.53-1174.15-24.68ZM-19.98-1941.52c-135.74,0-269.27,14.38-399.75,42.2v387.93c129.46-34.94,263.17-52.93,399.75-52.93,844.64,0,1531.81,687.17,1531.81,1531.83S824.66,1499.34-19.98,1499.34-1551.83,812.17-1551.83-32.49v-3229.97h-377.2V-32.49c0,1052.63,856.39,1909.03,1909.05,1909.03S1889.03,1020.14,1889.03-32.49,1032.64-1941.52-19.98-1941.52ZM-20-419.13c-220.44,0-399.15,178.71-399.15,399.15S-240.44,379.17-20,379.17,379.15,200.46,379.15-19.98,200.45-419.13-20-419.13Z"/>
    </clipPath>
  </defs>
  <g class="cls-2">
    <g id="Layer_1" data-name="Layer 1">
      <g class="cls-7">
        <g>
          <g>
            <path class="cls-6" d="M-19.98,1121.87c636.41,0,1154.14-514.34,1154.14-1146.55S616.43-1171.25-19.98-1171.25c-137.77,0-272.89,24.54-399.75,71.05v415.92c119.9-71.32,257.7-109.77,399.75-109.77,428.4,0,776.94,345.13,776.94,769.37S408.42,744.67-19.98,744.67-796.96,399.54-796.96-24.68v-3237.78h-377.2V-24.68c0,632.21,517.76,1146.55,1154.17,1146.55Z"/>
            <path class="cls-6" d="M-19.98-1941.52c-135.74,0-269.27,14.38-399.75,42.2v387.93c129.46-34.94,263.17-52.93,399.75-52.93,844.64,0,1531.81,687.17,1531.81,1531.83S824.66,1499.34-19.98,1499.34-1551.83,812.17-1551.83-32.49v-3229.97h-377.2V-32.49c0,1052.63,856.39,1909.03,1909.05,1909.03S1889.03,1020.14,1889.03-32.49,1032.64-1941.52-19.98-1941.52Z"/>
            <circle class="cls-6" cx="-20" cy="-19.98" r="399.15"/>
          </g>
          <g class="cls-5">
            <g class="cls-3">
              <image width="5659" height="8073" transform="translate(-1939.7414 -3276.4635) scale(.683 .6366)" xlink:href="../Scan-9.jpg"/>
            </g>
          </g>
        </g>
      </g>
      <path class="cls-4" d="M1917.86,2532.43c-22.64-41.49-51.57-78.73-85.88-111.25-16.7-15.83-34.65-30.3-53.62-43.34-3.11-2.14-6.25-4.22-9.41-6.28,6.32-29.03,16.45-57.17,26.86-85.11,12.11-32.52,24.36-67.45,49.25-92.67,6.23-6.32,13.12-11.68,20.55-16.5,8.76-5.69,17.09-11.55,22.74-20.56,10.42-16.61,9.63-37.2,6.01-55.72-3.41-17.42-10.19-34.85-11.38-52.38-1.27-18.79,2.08-37.34,5.05-55.89,3.07-19.19,6.15-38.91,4.42-58.39-1.72-19.26-7.12-40.16-21.54-53.98-6.25-5.99-15.08-10.18-23.9-9.2-9.74,1.09-18.22,6.83-24.92,13.72-13.32,13.7-22.39,30.85-30.81,47.81-8.09,16.28-15.8,33.26-27.3,47.5-11.02,13.66-25.52,24.06-38.52,35.69-13.91,12.45-25.99,26.79-32.31,44.6-6.95,19.56-7.15,40.69-6.1,61.18.98,19.2,3.42,38.79.51,57.91-3.15,20.71-11.66,40.18-14,61.09-2.6,23.2-.32,46.83,6.77,68.94-5.04-4.92-9.79-10.12-14.15-15.7-13.34-17.05-23.25-36.28-31.51-56.22-17.27-41.71-27.92-85.9-47.52-126.68-6.41-13.35-13.54-26.3-21.32-38.85,3.74-12.98,9.77-25.22,18.13-36.48,13.37-18.02,31.57-29.4,51.62-38.7,21.24-9.85,41.45-19.84,56.3-38.53,11.8-14.84,19.2-32.75,24.94-50.67,11.67-36.41,16.81-77.52,44.95-105.17,17.16-16.87,37.97-29.47,55.14-46.41,16.72-16.5,30.86-35.54,40.11-57.21,18.07-42.31,14.04-101.61-25.95-130.42-16.36-11.78-37.49-18.43-57.63-14.56-20.83,4-35.82,17.74-48.46,34.01-12.01,15.46-21.62,33.13-37.12,45.54-18.33,14.69-42.36,20.01-61.01,34.46-17.47,13.54-28.99,33.15-39.89,51.98-11.29,19.52-23,37.44-39.53,52.99-34.75,32.68-78.47,57.78-96.29,104.56-9.47,24.88-7.75,50.8,1.93,75.3-17.04-11.94-34.86-22.84-53.23-33.15-40.46-22.73-81.78-44.63-113.96-78.83-.29-.3-.56-.62-.84-.92,2.86-8.87,7.93-17.26,13.67-24.35,14.79-18.28,34.92-32.16,53.24-46.63,20.38-16.09,40.65-32.33,61.16-48.27,9.28-7.21,18.79-14.13,29.34-19.4,10.75-5.36,22.31-8.67,33.86-11.8,20.58-5.58,40.11-12.12,58.15-23.75,17.56-11.32,32.72-25.3,45.57-41.76,12.24-15.69,21.85-33.71,28.01-52.64,6.42-19.74,9.11-40.38,14.15-60.46,4.4-17.54,11.11-34.86,25.17-46.92,15.99-13.71,38.1-18.14,58.21-21.99,26.42-5.06,52.87-9.98,79.29-15.05,18.25-3.5,38.04-7.76,52.03-20.93,18.46-17.38,17.26-42.44,16.17-65.71-1.06-22.47,3.81-44.32,9.83-65.83,6.34-22.68,13.65-45.26,17.16-68.61,3.55-23.62,2.42-47.44-2.87-70.71-9.78-43.05-31.48-82.05-43.08-124.49-6.36-23.28-7.89-46.35-6.65-70.4,1.28-25,4.42-49.98,2.88-75.05-2.66-43.27-21.17-93.5-67.43-106.34-44.17-12.26-81.48,26.62-106.42,58.01-53.07,66.81-72.48,154.22-85.03,236.72-13.79,90.67-21.65,186.5-69.52,267.09-23.36,39.33-53.81,73.87-77.57,112.93-12.27,20.16-22.08,41.43-29.67,63.76-7.68,22.58-13.88,45.73-23.74,67.51-18.45,40.75-53.52,70.67-88.88,96.55-16.9,12.37-35.16,23.56-48.39,40.1-8.83,11.04-13.68,23.57-15.43,36.76-.93-1.76-1.86-3.52-2.79-5.27-12.64-23.95-25.05-48.19-39.06-71.42.74-.89,1.5-1.77,2.28-2.6,9.61-10.26,21.38-17.27,34.06-23.07,24.06-11,51.71-21.4,65.56-45.64,7.78-13.61,9.96-28.96,10.54-44.39.27-7.02.14-14.05.22-21.08.08-7.12.17-11.31,1.46-18.41,1.99-10.95,8.82-19.64,18.74-26.74,10.06-7.2,21.47-12.63,30.37-21.39,24.79-24.41,17.48-63.25,1.58-90.49-7.1-12.15-18.03-23.33-31.81-27.49-15.7-4.74-32.33-1.29-47.31,4.36-51.68,19.48-90.02,69.39-97.88,123.73-1.09,7.53-1.06,15.26-2.58,22.73-1.31,6.44-4.95,10.77-9.87,14.94-5.45,4.62-11.47,8.59-16.2,14-4.94,5.66-8.72,12.16-11.19,19.26-6.18,17.8-4.87,35.73-.46,53.22-21.01-21.17-44.87-39.24-70.77-54.61-24.89-14.77-50.97-26.81-77.73-37.23-.48-1.91-.91-3.9-1.27-5.87-.22-1.22-.43-2.45-.58-3.68-.04-.3-.07-.49-.09-.61,0-.26-.02-.57-.03-.97-.03-.96-.1-1.92-.12-2.88,0-.36.07-3.23,0-2.71.52-6.62,2.56-12.15,8.25-17.52,7.24-6.82,16.87-10.28,25.14-15.6,16.76-10.79,26.41-27.45,33.73-45.55,6.56-16.2,11.37-32.71,19.64-46.9,31.63-54.24,93.32-83.67,140.85-122.66,24.58-20.16,46.21-43.71,59.59-72.82,16.8-36.56,13.77-79.95,38.32-113.17,20.79-28.15,53.75-45.14,83.41-62.16,34.12-19.59,65.86-41.48,91.99-71.25,13.33-15.19,25.29-31.61,35.37-49.13,10.35-18,19.8-37.48,25.29-57.57,5.86-21.44,6.44-46.22-8.31-64.39-11.81-14.55-29.31-21.43-47.38-24.27-20.6-3.23-41.91-.12-62.25,3.46-22.29,3.92-44.44,9.15-67.06,10.87-22.51,1.7-43.45-1.56-64.71-8.95-20.66-7.18-40.7-15.94-62.39-19.68-35.9-6.18-74.37,2.29-105.05,21.73-31.93,20.24-54.2,51.02-65.66,86.89-11.33,35.45-12.93,73.07-12.78,110.01.08,18.57.63,37.13.74,55.7.05,9.33,0,18.66-.31,27.99-.3,9.46-.68,16.06-1.65,25.51-3.53,34.4-12.86,66.86-35.05,94.51-12.33,15.37-26.82,28.86-39.22,44.18-13.41,16.56-22.85,34.53-27.71,55.35-9.24,39.58-.52,83.49-22.27,119.66-5.92,9.85-12.46,19.22-17.24,29.71-4.24,9.31-6.91,19.51-7.84,29.7-1.93,21.01,2.01,41.95,9.98,61.41.91,2.22,1.87,4.41,2.87,6.56-31.45-9.57-63.19-18.33-94.44-27.91-15.7-4.81-31.52-9.92-47.24-15.46-17.05-18.27-30.74-39.58-40.29-62.68-5.32-12.85-9.29-26.12-11.9-39.78-1.16-6.1-2.71-12.74-2.42-18.98.27-5.78,5.47-9.69,9.73-12.88,24.41-18.31,55.28-27.37,82.72-40,25.43-11.7,49.7-26.93,66.9-49.43,19.75-25.83,22.47-57.66,18.65-88.94-3.66-30.03-12.61-59.44-6.76-89.8,5.88-30.52,21.8-58.31,34.48-86.34,13.71-30.31,24.91-62.44,28.68-95.65,3.47-30.56.82-61.79-11.23-90.31-10.29-24.34-27.01-46.96-49.64-61.07-26.89-16.76-57.58-17.98-88.36-15-17.05,1.65-34.05,3.83-50.99,6.35-16.05,2.39-32.53,4.46-48.08,9.24-14.73,4.54-26.86,12.96-36.34,25.05-8.78,11.2-14.48,24.78-18.89,38.21-10.71,32.63-16.53,66.75-18.42,101-.94,17-.63,33.99.61,50.97,1.27,17.39,3.19,34.76,3.06,52.21-.24,33.32-14.46,63.44-21.32,95.54-7.05,32.97-6.68,67.87.75,100.74,7.13,31.57,21.67,60.35,34.38,89.89,6.04,14.03,11.62,28.31,15.11,43.2,3.88,16.54,5.63,33.47,7.86,50.28,2.15,16.19,5.03,32.65,10.22,48.23-29.57-16.31-57.1-35.88-80.88-60.18-39.5-40.35-58.09-90.61-72.91-142.71,5.57-45.66,7.69-92.03-2.88-137.01-6.78-28.85-19.04-56.36-37.89-79.37-10.3-12.58-21.99-23.98-31.73-37.02-7.85-10.49-13.86-21.52-19.09-33.45-20.96-47.88-27.74-104.1-63.32-144.53-40.22-45.71-103.43-51.9-157.79-70.99-30.37-10.67-61.27-23.14-93.85-24.43-25.94-1.03-54.6,5.51-73.9,23.83-4.17,3.96-7.88,8.64-11.1,13.48-1.25.85-2.25,2.26-2.82,3.83-19.61,54.71-28.92,114.06-9.81,170.3,8.27,24.34,22.19,47.15,41.35,64.42,18.29,16.49,40.91,27.39,63.49,36.68,23.32,9.59,47.33,17.8,69.44,30.09,22.35,12.42,42.37,28.98,60.19,47.23,17.57,17.99,32.93,38.03,46.98,58.85,7.78,11.52,15.39,23.09,24.75,33.43,8.97,9.91,19.62,17.69,31.56,23.69,25.18,12.63,53.5,15.98,79.93,25.01,10.87,3.71,22.15,8.58,32.07,15.2,10.39,39.4,21.76,78.43,42.21,114.2,25.81,45.15,64.34,79.47,108,106.2-1.8-.25-3.6-.5-5.39-.76-30.56-4.52-61.99-10.33-89.67-24.67-26.27-13.61-46.54-36.13-70.9-52.59-24.41-16.49-51.5-28.8-80.11-35.89-30.47-7.55-60.97-8.26-92.15-6.38-15.83.95-31.67,2.13-47.54,1.89-16.49-.25-32.62-2.78-48.89-5.3-27.62-4.26-58.32-6.86-83.18,8.71-27.16,17.01-33.28,49.08-40.51,78.01-15.21,60.8-24.34,125.37-2.48,185.77,8.99,24.85,23.4,48.14,43.16,65.86,19.95,17.89,45.04,28.63,71.47,32.27,25.82,3.55,53.15-.52,76.52-12.19,21.68-10.83,40.1-27.17,58.44-42.74,17.11-14.53,34.75-29.57,56.14-37.35,9.87-3.59,20.25-5.04,30.73-4.27,14.47,1.06,28.16,6.75,41.79,11.32,13.67,4.58,27.85,8.27,42.39,7.73,13.1-.49,26.15-4.01,38.16-9.16,25.27-10.84,47.07-28.46,69.23-44.4,47.19-33.93,102.18-54.72,160.39-58.05.75-.04,1.49-.07,2.24-.11,68.37,22.63,138.93,38.64,205.77,65.87.3.12.6.25.9.37-10.27,3-20.29,6.86-29.88,11.57-19.28,9.48-36.99,22.32-51.87,37.82-15.78,16.44-29.32,35.93-48.82,48.35-38.3,24.39-87.43,26.12-131.36,29.77-45.16,3.75-90.71,6.74-134.68,18.43-21.24,5.65-41.96,13.5-61.03,24.48-19.44,11.2-35.9,27.17-55.92,37.33-22.91,11.63-48.4,8.94-73.21,7.54-27.03-1.52-54.06-3.04-81.09-4.57-26.52-1.49-53.09-3.56-79.66-4.14-24.45-.54-49.57,1.05-72.7,9.61-19.61,7.26-37.33,19.69-49.82,36.55-15.17,20.45-17.37,45.31-17.77,69.96-.88,53.41,1.23,106.87,6.29,160.05,2.53,26.6,5.56,53.23,9.73,79.63,3.68,23.23,9.01,46.78,20.08,67.71,9.13,17.26,21.68,32.02,38.33,42.41,15.34,9.57,32.27,15.28,50.2,17.46,35.18,4.28,72.33-7.28,96.4-33.83,15.27-16.84,25.57-37.65,41.43-53.94,14.53-14.92,33.28-23.87,53.14-29.47,20.34-5.73,41.53-7.91,62.47-10.22,21.87-2.41,43.61-5.25,65.07-10.22,42.05-9.73,83.28-27.51,113.03-59.74,26.77-29,43.19-65.9,70.26-94.56,14.51-15.37,31.43-25.93,51.61-32.32,22.36-7.08,45.83-9.86,68.11-17.25,38.34-12.72,73.19-36.79,99.31-67.54,13.75-16.19,25.14-33.87,34.1-53.13,10.32-22.2,15.89-46.03,21.7-69.7,9.76-39.81,23.88-88.47,66.63-104.06,4.38-1.6,9-2.76,13.69-3.42,5.64,4.08,11.18,8.32,16.56,12.78,33.92,28.06,59.11,63.3,80.74,101.34,21.46,37.76,39.76,77.32,62.95,114.1-3.32-.58-6.64-1.11-9.98-1.59-23.17-3.31-49.2-6.45-68.15,10.38-14.89,13.22-20.96,33.31-28.32,51.13-7.16,17.33-17.92,31.57-33.63,42.1-33.7,22.6-75.4,27.07-113.72,37.15-36.67,9.64-76.68,26.04-96.74,60.35-12.51,21.4-12.52,45.04-16.72,68.73-1.94,10.93-6.08,20.54-13.41,28.97-7.81,8.99-16.9,17.03-25.96,24.73-36.06,30.67-77.89,53.74-121.57,71.62-98.12,40.16-204.05,52.8-306.91,75.33-46.83,10.26-94.6,23.32-132.89,53.55-34.94,27.58-59.96,72.05-57.19,117.41,1.49,24.31,10.31,49.68,29.5,65.66,17.03,14.18,39.79,19.17,61.49,19.43,50.12.59,97.31-20.6,144.86-33.44,25.61-6.92,51.31-9.84,77.78-10.69,25.33-.81,50.5-1.48,75.58-5.51,46.42-7.46,91.52-23.17,132.44-46.32,20.68-11.7,40.41-25.24,58.68-40.43,17.69-14.71,33.4-31.59,50.95-46.43,17.69-14.96,37.41-26.26,60.63-29.59,24.41-3.51,49.16-.94,73.66-3,23.48-1.97,45.26-9.05,63.69-24.03,16.91-13.75,29.73-32.37,39.75-51.54,24.13-46.15,35.62-97.58,57.94-144.52,18.45-38.8,45.45-74.45,85.28-92.76,20.54-9.45,40.71-18.45,49.18-41.16,4.02-10.8,5.06-23,8.09-33.35,2.64-9,6.09-17.74,10.89-25.81,3.75-6.32,8.33-12.22,13.72-17.08,6.41,5.21,13.08,10.18,20.03,14.87,26.36,17.79,54.71,32.3,82.22,48.18-4.09,1.73-8.05,3.83-11.87,6.38-21.56,14.45-33.69,36.53-48.1,57.32-8.13,11.74-20,15.39-32.52,20.9-10.45,4.6-20.18,11.06-28.44,18.94-16.71,15.94-28.07,37.16-34.82,59.08-3.65,11.86-6.25,24.11-7.56,36.46-1.38,12.92-2.26,26.6,1.2,39.29,3.66,13.4,11.85,24.77,25.2,29.75,11.22,4.18,24.14,4.16,35.79,2.05,24.25-4.39,45.73-17.9,62.73-35.46,8.55-8.83,16.19-18.67,22.65-29.13,6.17-9.99,11.22-20.63,17.59-30.5,7.12-11.03,15.56-19.11,28.07-23.57,7.47-2.66,14.57-5.03,20.99-9.85,5.76-4.33,10.44-10.17,14.24-16.25,11.33-18.14,18.12-39.62,21.38-61.35,18.37,17.9,34.97,37.59,49.52,58.77,20.63,30.04,35.34,62.38,47.81,96.12-28.82-8.18-59.49-9.3-85.11,9.07-7.55,5.42-13.83,12.7-18.22,20.89-4.56,8.5-7.6,18.14-11.93,26.37-7.21,13.7-17.21,25.32-28.78,35.52-24.64,21.73-54.37,36.59-81.94,54.11-14.21,9.03-28.18,18.65-40.69,29.96-16.21,14.65-29.95,31.82-43.11,49.19-13.79,18.2-27.3,36.63-40.92,54.95-12.58,16.92-28.97,34.65-27.66,57.26,1.1,18.94,13.33,33.73,30.2,41.43,16.08,7.34,34.33,6.77,51.24,2.97,36.44-8.19,67.58-31.56,104.16-39.02,20.44-4.17,41.19-1.39,61.84-2.53,19.57-1.08,37.92-6.87,52.68-20.1,13.33-11.95,22.67-28.14,28.71-44.84,6.91-19.09,7.72-38.85,11.52-58.58,3.64-18.9,15.26-32.69,28.85-45.63,16.34-15.55,33.35-30.46,50.45-45.17,2.3-1.98,4.62-3.94,6.93-5.9,5.02,8.46,10.58,16.6,16.82,24.32,29.68,36.69,71.94,57.19,110.41,82.93,38.65,25.86,73.34,57.7,102.41,93.99,14.26,17.8,27.14,36.38,39.49,55.55,2.2,3.41,5.7,3.7,8.75,1.5,9.98-7.2,19.78-15.12,30.03-21.91,2.16.51,4.56-.58,6.06-2.76,2.9-4.22,1.93-10.03-.35-14.2Z"/>
    </g>
  </g>
</svg>