<?xml version="1.0" encoding="UTF-8"?>
<svg id="Layer_1" data-name="Layer 1" xmlns="http://www.w3.org/2000/svg" viewBox="0 0 1920 3240">
  <defs>
    <style>
      .cls-1 {
        fill: #deddd3;
      }
    </style>
  </defs>
  <path class="cls-1" d="M1915.88,2231.86c-2.88-18.54-7.07-37.49-15.23-54.39-8.76-18.12-21.27-32.64-38.57-42.43-16.33-9.24-34.87-13.24-52.92-17.18-43.17-9.41-86.88-18.93-131.22-18.65-42.78.27-85.29,9.37-127.74-.24-19.23-4.35-37.88-11.44-55.24-21-16.25-8.94-30.6-20.7-45.18-32.2-14.4-11.36-29.41-22.69-46.36-29.66-18.44-7.58-38.02-8.21-57.29-3.9-19.98,4.46-38.96,12.37-58.66,17.88-17.81,4.98-36.12,8.27-54.56,9.27-17.68.96-35.63-.19-52.76-5.02-17.66-4.98-32.37-13.79-47.08-24.76-7.72-5.76-15.89-11.55-25.06-14.52-10.02-3.24-20.54-3.27-30.85-1.83-20.47,2.85-40.9,8.53-60.45,15.29-15.23,5.26-29.92,11.83-44.17,19.38-.92-7.98-1.61-16-2.02-24.08-1.45-28.64,1.33-56.58,6.67-84.67,5.25-27.6,12.06-54.92,15.66-82.84,2.22-17.23,2.96-34.28,2.6-51.2,20.35-7.9,46.53-1.8,64.48,8.7,33.85,19.81,56.56,54.65,89.56,75.84,17.03,10.93,35.69,18.01,55.98,17.61,22.07-.44,43.41-7.68,65.43-8.96,42.25-2.45,81.52,11.68,116.22,35.88,33.81,23.58,64.1,52.65,101.35,70.7,18.07,8.76,37.77,14.78,57.84,15.34,18.51.52,36.63-4.48,53.65-11.68,31.91-13.49,62.75-36.3,98.39-36.89,20.92-.34,40.4,8.2,60,14.59,16.38,5.34,33.21,8.58,50.45,8.06,31.79-.97,64.1-13.46,84.21-39.7,25.37-33.11,22.28-77.07,13.88-115.84-4.34-20.03-9.94-39.76-13.51-59.96-3.89-22.04-3.78-44.43-2.29-66.72,2.87-42.73,9.04-86.11-1.14-128.37-4.61-19.13-12.25-37.91-24.45-53.26-6.38-8.03-13.65-15.05-22.66-19.83-9.16-4.86-19.83-5.79-29.97-5.33-40.32,1.84-81,13.33-117.28,31.33-18.24,9.04-35.27,20.25-51.59,32.55-15.45,11.64-31.42,23.83-51,26.15-21.09,2.49-42.46-2.11-63.63-1.64-20.91.47-41.66,3.7-61.89,9.16-19.45,5.25-38.32,12.85-56.04,22.65-18.58,10.28-35.37,24.14-55.01,32.33-19.76,8.25-41.44,9.06-62.49,8.94-22.8-.13-45.6-1.42-68.28-3.83-43.16-4.58-87.13-17.77-129.98-4.55-34.96,10.78-64.63,35.7-89.35,62.61-5.88,6.4-11.53,13.02-17.04,19.75-10.5-65.86-31.48-130.54-41.35-196.72,35.13-10.41,74.12-3.66,106.05,14.53,34.84,19.85,68.29,58.27,111.93,51.3,20.47-3.27,36.97-15.76,53.27-28.08,16.75-12.66,33.71-23.53,54.96-25.12,23.7-1.78,46.95,5,69.75,10.7,22.64,5.66,45.37,10.15,68.77,8.91,44.2-2.33,86.33-20.9,118.46-52.24,14.59-14.24,27.77-30.19,43.96-42.6,7.8-5.97,16.58-10.7,25.9-13.58,11.12-3.43,23.13-3.26,34.56-2,23.91,2.63,47.36,10.74,71.62,9.26,20.04-1.22,39.82-8.11,56.55-19.52,16.82-11.47,31.01-26.87,39.88-45.68,10.81-22.92,12.5-48.09,15.62-72.97,1.46-11.63,3.38-23.13,7.51-34.11,3.54-9.42,8.54-18.14,13.81-26.63,11.53-18.57,24.58-36.02,33.58-56.13,10.84-24.24,11.2-49.77,7.99-75.82-1.57-12.73-3.82-25.37-4.58-38.19-.8-13.59-.47-27.22.04-40.81,1.82-48.62,4.06-100.43-27.66-140.35-12.49-15.71-28.99-29.32-48.5-34.1-20.75-5.08-40.96.16-58.61,12.05-18,12.13-33.09,28.2-51.24,40.12-18.81,12.36-39.15,21.96-59.5,31.27-39.52,18.07-79.16,36.06-110.63,67.54-54.43,54.44-80.18,129.98-120.93,194.34-20.05,31.68-44.57,60.68-76.21,80.46-38.29,23.94-82.13,36.29-120.63,59.79-19.62,11.98-35.77,27.73-53.42,42.39-8.39,6.96-17.27,13.15-27.26,17.39-11,4.67-22.66,6.69-34.48,7.41-46.95,2.86-98.77-15.55-141.22,13.23-1.56,1.06-3.09,2.19-4.59,3.38.43-22.85,2.17-45.68,4.67-68.47,16.84-11.65,36.76-18.3,56.47-22.79,26.43-6.03,53.42-8.96,79.87-14.86,25.42-5.67,50.64-13.87,71.09-31.11,23.94-20.19,32.8-50.1,47.52-76.89,7.44-13.54,16.84-24.86,29.95-32.84,14.68-8.93,30.87-14.82,45.56-23.74,27.07-16.44,49.98-40.01,65.67-68.11,16.92-30.28,23.92-63.31,23.86-98.06-.03-17.68-1.34-35.78,2.47-53.18,3.21-14.67,11.19-26.97,21.43-37.44,21.43-21.92,49.04-36.38,69.46-59.46,22.9-25.9,35.42-60.06,35.72-95.04.29-32.96-10.88-73.1-41.87-88.51-15.19-7.55-33.44-8.14-50-7.65-15.55.46-30.94,2.8-46.07,6.49-59.28,14.46-114.19,53.55-144.8,108.39-9.05,16.2-15.4,33.7-21.81,51.13-6.55,17.82-14.13,34.6-23.76,50.88-9.83,16.62-20.49,32.72-29.1,50.07-8.3,16.72-15.13,34.14-20.74,52-11.07,35.23-17.94,71.65-26.14,107.65-7.57,33.21-15.93,68.33-32.49,98.18-7.58,13.67-17.56,26.22-31.44,33.4-15.19,7.86-32.32,10.34-47.13,19.21-6,3.59-11.56,7.77-16.65,12.42,3.36-22.31,6.5-44.58,8.89-66.83.16-1.48.31-2.96.47-4.44,2.04-3.04,4.15-6.04,6.28-9.01,10.46-14.6,21.61-29.25,27.09-46.77,3.53-11.28,4.42-23.01,4.16-34.81-.25-11.28-1.65-22.72.48-33.88,1.35-7.11,5.27-15.45,9.36-22.45,4.63-7.94,9.92-15.44,15.02-23.07,11.19-16.72,21.08-34.64,23.25-55.2,2.39-22.58-2.74-44.37-9.1-65.8-5.58-18.79-12.77-38.74-13.6-57.78-1.01-23.22,7.42-45.76,8.54-68.89,1.03-21.24-3.72-44.19-19.04-59.41-14.07-13.97-36.18-19.68-54.74-23.83-19.09-4.27-39.05-6.33-58.3-1.97-20.12,4.55-36.54,15.44-49.33,32.07-13.27,17.26-22.35,38.27-31.31,58.13-10.14,22.47-16.89,45.89-16.47,70.87.43,25.52,5.7,51.14,9.38,76.32,3.7,25.28,7.39,50.57,11.09,75.85,3.47,23.77,5.51,48.44,12.24,71.52,3.36,11.52,8.24,22.25,15.01,32.08,6.05,8.79,13.14,16.74,19.53,25.26,19.72,26.28,31.55,61.36,33.21,94.62-1.49,11.19-3.09,22.37-4.74,33.54-1.45-2.52-2.99-4.97-4.63-7.35-8.21-11.86-18.55-21.88-30.74-29.25-13.42-8.11-29.45-10.14-42.66-18.51-24.16-15.31-34.19-48.34-41.93-74.68-9.54-32.46-15.31-65.96-22.45-99.02-7.23-33.5-15.79-67.14-30.23-98.19-7.52-16.19-16.73-31.42-25.48-46.91-8.65-15.31-15.7-31.07-21.53-47.74-5.71-16.32-10.97-32.86-18.86-48.25-6.62-12.93-14.3-25.14-23.43-36.34-18.45-22.64-41-41.12-66.56-54.54-24.95-13.1-52.77-20.88-80.76-22.16-15.23-.7-32.02-.24-46.03,6.65-14.69,7.23-24.34,21.21-30.32,36.42-11.96,30.43-10.52,66.12,0,96.69,10.15,29.47,29.98,51.03,53.31,70.08,20.34,16.61,44.33,33.75,50.68,61.17,3.75,16.2,2.86,33.08,2.73,49.6-.13,16.56.67,33.1,4.22,49.31,6.45,29.44,20.04,57.24,39.44,79.86,9.71,11.32,20.55,21.45,32.83,29.73,13.11,8.85,27.59,14.88,41.11,22.94,12.42,7.4,21.51,17.59,28.49,30.41,6.67,12.27,11.34,25.6,17.43,38.17,6.39,13.2,13.95,25.49,24.43,35.65,8.61,8.35,18.95,14.9,29.7,19.89,44.45,20.65,95.84,16.29,140.26,37.13,2.87,1.34,5.64,2.82,8.35,4.4-2.13,15.61-4.04,31.24-5.58,46.9-.54-.42-1.09-.84-1.64-1.24-18.89-13.86-42-17.52-64.73-17.01-23.87.53-47.61,4.87-71.52,3.2-11.51-.81-22.79-3.21-33.32-8.19-9.35-4.42-17.51-10.89-25.28-17.77-8.48-7.5-16.45-15.6-24.99-23.03-8.23-7.16-17.07-13.46-26.27-19.21-18.49-11.57-38.24-20.61-57.93-29.74-19.41-9-39.02-18.09-56.77-30.3-14.82-10.2-28.4-22.53-40.09-36.4-48.23-57.17-70.43-130.78-111.02-193.34-21.54-33.19-48.04-61.06-81.48-81.44-37.1-22.62-79.03-36.18-114.65-61.45-17.38-12.33-31.64-28.81-49.38-40.59-17.5-11.62-36.91-16.62-57.24-10.52-40.05,12-63.39,57.45-68.74,97.23-3.52,26.18-1.96,52.63-1.07,78.93.43,12.59.76,25.24.02,37.82-.75,12.8-2.92,25.46-4.44,38.17-3.04,25.46-2.67,50.45,7.02,74.44,8.03,19.85,20.4,37.34,31.34,55.51,5.12,8.51,9.87,17.2,13.49,26.51,4.06,10.45,6.05,21.5,7.51,32.61,3.17,24.1,4,48.71,13.03,71.52,15.16,38.3,51.03,66.22,90.91,70.51,23.07,2.48,45.41-5.2,68.02-8.41,11.15-1.58,22.9-2.28,33.88.79,8.62,2.41,16.63,6.54,23.85,11.93,15.91,11.9,28.5,27.75,42.16,42.15,14.82,15.62,31.62,28.64,50.79,38.09,19.31,9.52,40.5,15.14,61.84,16.74,22.65,1.7,44.43-2.56,66.29-8.26,21.98-5.73,44.41-12.78,67.35-11.22,20.72,1.41,36.75,12.6,52.68,25.27,15.44,12.29,31.29,24.84,51.07,28,19.7,3.15,38.8-4.71,55.28-15.23,17.41-11.11,32.92-25.15,50.57-35.86,18.19-11.04,38.68-17.89,59.76-19.35,13.65-.95,27.13.44,40.02,4.32.02.86.02,1.72.05,2.58,1.57,56.79,14.26,111.76,27.52,166.62,5.42,22.43,10.9,45.01,15.36,67.76-13.39-14.7-27.8-28.35-43.96-39.85-14.81-10.54-30.9-19.37-48.25-24.49-20.45-6.04-41.53-6.46-62.55-3.96-22.72,2.7-45.21,6.92-67.98,9.27-22.95,2.37-46.02,3.62-69.09,3.63-20.83.01-41.94-1.28-61.36-9.78-19.47-8.52-36.25-22.33-54.9-32.47-36.2-19.68-77.26-30.26-118.16-30.87-21.15-.31-42.65,4.47-63.7,1.43-19.33-2.79-35.15-15.68-50.43-27.16-32.66-24.54-69.08-42.88-108.3-53.14-19.85-5.19-40.6-8.95-61.11-9.56-10.11-.3-20.57,1.13-29.51,6.29-8.85,5.11-15.88,12.36-22.1,20.52-23.97,31.48-29.5,73.91-28.71,112.77.93,45.56,10.08,90.73,1.8,136.12-7.33,40.13-22.99,80.01-18.57,121.51,2.06,19.3,8.5,38.44,20.66,53.5,10.24,12.68,23.33,22.32,38.08,28.67,31.48,13.55,65.73,11.54,97.62.97,19.55-6.48,38.91-14.57,59.82-13.88,17.33.58,33.83,6.89,49.48,14.15,33.03,15.32,65.15,35.98,102.75,34.31,41.42-1.83,77.97-25.65,110.28-50.37,32.72-25.03,64.37-52.39,104.13-64.58,20.01-6.13,41.21-8.26,62.02-6.73,21.68,1.6,42.77,8.8,64.58,8.79,40.9-.02,72.1-29.98,99.94-57.23,25.5-24.97,54.56-51.75,92.26-48.18,5.14.49,10.25,1.64,15.08,3.5.08,4.04.09,8.08.02,12.13-.98,57.38-21.76,111.96-25.05,169.13-.87,15.02-.68,30,.32,44.93-23.05-9.08-47.1-15.59-71.32-18.57-10.3-1.27-20.67-.85-30.53,2.73-9.1,3.3-17.05,9.3-24.78,15.1-14.78,11.1-30.28,19.58-48.1,24.27-34.74,9.15-72.53,4.15-106.61-5.56-19.56-5.58-38.45-13.7-58.43-17.66-19.59-3.88-38.81-3.01-57.37,4.96-34.02,14.61-59.18,44.59-91.66,62.11-36.89,19.9-76.74,26.47-118.02,24.15-21.8-1.22-43.53-3.89-65.39-3.88-22.2,0-44.33,2.46-66.23,6.09-21.5,3.56-42.82,8.21-64.12,12.88-18.19,4-36.93,8.17-53.23,17.8-34.29,20.25-46.42,59.71-52.15,97.73-5.14,34.1-5.61,69.82,1.73,103.63,6.99,32.2,21.77,63.56,47.2,84.46,26.36,21.67,60.76,28.88,93.73,23.64,34.45-5.48,66.43-22.18,92.08-46.38,12.96-12.23,25.65-26.62,43.28-31.36,18.97-5.1,38.72,2.12,56.17,9.39,17.69,7.36,34.87,15.69,53.52,20.23,18.17,4.42,36.88,6.35,55.54,5.49,36.53-1.67,72.61-13.52,102.93-34.64,28.8-20.06,52.85-49.28,86.27-61.54,19.25-7.06,39.6-4.6,59.62-5.2,19.8-.59,38.27-5.85,54.89-17.1,15.51-10.5,28.59-23.97,40.47-38.58,13.45-16.54,25.98-33.94,37.83-51.73,11.69-17.53,22.16-35.78,33.04-53.84,9.53-15.82,20.26-32.01,35.52-42.53,7.45-5.13,16.09-9.09,25.02-10.81,3.85,18.49,8.32,36.85,12.95,55.04-3.09,7.17-7.3,13.92-11.98,20.46-10.43,14.56-24.05,26.21-37.34,37.86-13.79,12.08-27.65,24.16-39.08,38.71-5.71,7.26-10.73,14.9-14.69,23.31-4.57,9.71-7.65,19.91-11.09,30.07-11.94,35.33-38.63,59.57-65.66,83.02-27.59,23.94-55.45,48.81-70.96,83.2-8.17,18.12-11.93,38.65-9.29,58.53,2.64,19.94,13.96,36.1,31.27,45.15,31.41,16.41,72.16,7.38,97.75-16.18,13.32-12.26,21.63-29.33,35.7-40.8,13.86-11.31,32.04-14.78,44.48-28.46,21.09-23.2,22.77-56.56,26.85-86.4.98-7.17,2.08-14.35,3.75-21.39.09-.34.26-1.04.29-1.14.23-.87.47-1.74.72-2.61.5-1.72,1.03-3.43,1.61-5.13.57-1.68,1.19-3.35,1.86-5,.82-2.02.86-2.15,1.73-3.84,5.7-11.04,14.81-19.28,22.68-28.57-5.92,24.04-11.74,47.96-13.61,72.84-2.12,28.21-.52,56.51,4.86,84.27,2.6,13.41,6.82,26.63,11.44,39.43,2.13,5.9,5.86,5.61,8.58,2.81.38.12.92.28,1.78.51,4.01,1.06,8.34,1.41,12.42,2.1,6.11,1.03,12.59,2.88,18.79,2.88,9.25,0,8.79-14.73,6.95-20.55-16.85-53.45-15.86-108.74-2.39-162.77,1.06-4.26,2.13-8.5,3.18-12.75,2.83,3.12,5.87,6.12,9.12,9.04,6.23,5.6,12.31,11.07,16.92,18.21.92,1.42,1.79,2.88,2.62,4.36.78,1.4.46.78,1.49,2.98,1.55,3.32,2.92,6.74,4.14,10.21.58,1.65,1.13,3.32,1.66,4.99.04.14.31,1.03.47,1.55.14.52.41,1.46.45,1.6.99,3.67,1.91,7.36,2.77,11.06,1.72,7.44,3.23,14.94,4.89,22.4,3.35,15.07,7.34,30.07,14.57,43.71,7.52,14.19,18.77,24.82,33.14,31.32,8.45,3.82,17.41,6.42,25.6,10.85,8.01,4.33,14.56,11.28,20.74,17.97,12.65,13.71,25.09,26.28,42.49,33.4,16.43,6.72,35.05,8.72,52.37,4.94,17.39-3.79,34.11-12.57,44.02-28.34,11.93-18.98,10.5-43.58,4.27-64.33-10.76-35.86-38.66-62.73-67.24-84.26-28.05-21.13-59.94-39.83-80.68-69.37-11.41-16.25-16.51-35.79-26.76-52.72-9.59-15.83-23.28-28.65-37.57-39.87-24.42-19.16-54.85-35.95-71.81-63.4-5.76-23.85-12.02-47.61-17.31-71.55,14.33-1.81,29.43,3.72,41,12.16,15.31,11.16,25.93,27.41,35.64,43.64,21.77,36.41,43.81,72.63,70.95,105.14,11.87,14.22,24.75,27.79,40.27,37.78,17.36,11.18,35.77,16.13,56.2,16.55,20.04.41,39.97-1.57,59.14,5.8,16.01,6.16,29.83,16.55,43.06,27.48,13.98,11.55,27.41,23.9,42.4,34.08,15.41,10.47,32.09,18.78,49.71,24.45,35.59,11.45,73.53,12.64,109.71,3.51,18.66-4.71,35.86-13.24,53.63-20.53,17.51-7.19,37.36-13.91,56.16-7.96,17.3,5.47,29.73,19.93,42.74,32.09,12.77,11.93,27.28,21.93,42.8,29.67,30.54,15.23,65.86,21.54,99.13,13.26,31.8-7.92,58.08-30.84,73.38-60.36,15.78-30.45,21.36-65.36,21.41-99.59.02-17.24-1.48-34.5-4.12-51.52Z"/>
</svg>