<?xml version="1.0" encoding="UTF-8"?>
<svg id="Layer_1" data-name="Layer 1" xmlns="http://www.w3.org/2000/svg" xmlns:xlink="http://www.w3.org/1999/xlink" viewBox="0 0 1920 3240">
  <defs>
    <style>
      .cls-1 {
        fill: none;
      }

      .cls-2 {
        fill: #deddd3;
      }
    </style>
    <clipPath id="clippath">
      <rect class="cls-1" x="1962" y="-3280" width="1920" height="3240"/>
    </clipPath>
  </defs>
  <path class="cls-2" d="M543.06,2980.67c-104.44-71.98-201.52-154.68-287.81-247.7-73.16-78.86-146.42-174.58-139.96-288.02,2.47-43.33,16.44-87.22,44.58-120.82,33.67-40.2,82.55-57.37,133.49-62.93,128.99-14.06,243.98,57.16,338.31,137.51,88.89,75.71,171.93,157.64,270.87,220.76,92.6,59.08,202.03,106.12,314.09,98.37,52.02-3.6,103.54-20.14,144.1-53.69,35.03-28.97,59.15-69.51,70.96-113.19,24.62-91.1,3.42-193.22-47.51-271.65-60.89-93.77-157.11-157.58-251.38-213.8-99.05-59.06-198.62-116.39-292.71-183.32-93.6-66.58-182.46-140.43-260.89-224.53-79.57-85.32-152.66-183.68-197.44-292.05-24-58.09-38.81-121.32-31.93-184.42,6.64-60.88,31.13-118.37,64.9-169.05,59.11-88.71,150.19-158.4,254.31-184.5,49.88-12.51,103.2-13.83,153.04-.42,55.15,14.84,103.09,46.72,146.02,83.53,44.47,38.13,84.43,81.13,127.36,120.93,47.45,43.98,97.59,85.07,150.01,122.99,93.15,67.38,205.9,131.11,325.22,109.15,105.63-19.44,194.91-97.53,224.45-201.33,14.96-52.56,16.04-109.35,1.58-162.16-15.31-55.89-48.35-101.96-86.55-144.64-38.88-43.45-85.26-81.91-118.2-130.29-26.43-38.82-44.38-88.87-9.87-128.27,28.32-32.34,71.94-51.69,110.04-69.77,8.5-4.03,5.21-26.02-4.43-21.45-39.93,18.94-84.16,36.63-114.12,70.57-28.86,32.7-32.86,74.33-18.92,114.77,19.05,55.24,62.88,96.65,102.66,137.44,42.08,43.14,87.4,88.47,112.06,144.41,46.88,106.35,15.39,234.59-74.06,308.07-42.9,35.24-96.82,57.59-152.22,62.02-60.43,4.84-119.85-12.03-173.87-38.07-56.68-27.33-108.34-64.34-157.95-102.74-51.59-39.94-100.4-83.16-147-128.8-78.36-76.76-159.91-160.16-273.75-176.4-103.97-14.83-209.23,26.84-289.44,91.31-87.75,70.53-155.87,177.63-166.8,291.15-11.73,121.85,44.23,237.59,109.27,336.85,63.08,96.29,141.24,182.12,227.12,258.51,87.33,77.67,182.76,145.84,281.52,208.15,97.4,61.46,201.82,113.2,293.86,182.81,85.41,64.59,157.35,147.66,175.65,256.07,16.46,97.47-16.55,202.08-110.11,247.33-102.79,49.72-226.63,19.71-324.47-27.3-106.8-51.32-197.72-129.53-285.67-207.64-89.41-79.4-185.67-165.43-306.74-189.79-57.64-11.6-123.18-9.03-177.6,14.95-39.21,17.28-70.42,48.57-89.42,86.78-41.4,83.24-27.66,181.44,15.09,261.02,28.49,53.04,67.52,99.32,108.38,143.18,43.71,46.93,90.14,91.32,138.98,132.88,47.06,40.04,96.46,77.09,147.9,111.31,7.34,4.88,10.49-10.33,5.02-14.1h0Z"/>
  <path class="cls-2" d="M329.76,2927.92c-35.6-9.6-69.34-37.92-104.85-28.03-18.74,5.22-33.24,20.41-51.6,26.84-23.96,8.39-50.12.71-75.38-1.82-25.26-2.53-55.78,3.51-65.74,26.86-7.1,16.65-.23,36.96,13.09,49.23,13.31,12.26,31.76,17.56,49.8,18.99,20.82,1.65,41.99-1.39,61.5-8.81,15.22-5.79,29.52-14.22,45.39-17.86,50.29-11.51,103.62,27.25,152.5,10.73,19.41-6.56,34.98-21.05,52.84-31.11,30.07-16.94,56.25-14.41,89.32-11.57-48.51-45.36-108.86-17.81-166.86-33.46Z"/>
  <path class="cls-2" d="M223.35,2802.44c-17.18-9.59-30.57-24.74-46.83-35.82-30.99-21.12-69.88-26.02-107.13-30.33-10.26-1.19-20.75-2.36-30.82-.09-24.98,5.63-41.59,35.11-33.46,59.39,8.89,26.58,39.48,39.24,67.35,42.27,27.87,3.03,56.9-.09,83.24,9.51,11.75,4.29,22.51,10.98,34.29,15.19,32.74,11.7,68.72,3.1,103.44,1.24,35.37-1.89,71.11,3.5,104.34,15.74-23.27-18.88-48.87-41.59-77.56-51.45-31.67-10.89-67.03-9-96.86-25.66Z"/>
  <path class="cls-2" d="M57.18,2605.2c-15.28-4.06-33.18-4.86-45.29,5.31-12.29,10.33-14.32,29.76-7.03,44.07,7.28,14.31,22.1,23.69,37.65,27.68,17.57,4.5,36.89,3.13,52.89,11.68,13.91,7.43,22.89,21.84,37.02,28.77,34.88,17.13,65.88-16.57,101.74,1.89-15.26-14.77-29-34.76-47.83-44.77-17.18-9.14-37.5-10.41-53.15-22.76-26.02-20.83-41.58-42.72-75.99-51.87Z"/>
  <path class="cls-2" d="M58.64,2530.54c-14.31-8.3-30.11-18.64-33.61-35.94-1.15-5.66-.81-11.58-1.82-17.28-2.06-11.61-9.39-21.08-15.13-31.1-5.74-10.02-10.07-22.7-5.58-33.45,6.21-14.85,26.19-16.66,38.89-8.07,12.7,8.59,20.06,23.82,27.67,37.87,1.27,2.35,2.61,4.73,4.54,6.47,2.57,2.31,5.93,3.22,9,4.62,17.86,8.15,24.56,31.39,30.23,51.63,6.15,21.95,15.62,42.97,21.45,64.81-19.18,3.77-57.89-29.26-75.65-39.56Z"/>
  <path class="cls-2" d="M69.86,2339.53c-.42-10.19.5-20.62-2.34-30.42-3.79-13.1-13.77-23.38-20.27-35.38-10.53-19.46-11.48-42.49-17.25-63.86-5.46-20.21-15.28-39-21.26-59.06s-7.73-42.8,2.51-61.06c10.23-18.26,35.59-28.82,53.26-17.58,27,17.17,13.75,61.32,31.59,87.89,7.9,11.77,21.4,19.06,28.6,31.27,17.76,30.15-11.66,67.94-6.19,102.5,1.5,9.5,5.64,18.41,7.43,27.86,2.65,14.03.02,28.45-2.62,42.48-4.6,24.52-9.34,43.04-17.22,66.2-20.02-23.75-36.23-59.34-36.24-90.84Z"/>
  <path class="cls-2" d="M247.52,2230.76c-17.15,19.67-40.14,44.96-63.26,57.69.1-28.84,15.98-45.42,21.23-72.53,5.89-30.43,1.83-65.48,22.33-88.73,5.75-6.52,13.07-11.53,18.56-18.26,8.47-10.39,11.88-23.89,14.97-36.94,6.15-25.92,12.62-53.11,30.39-72.96,17.77-19.85,50.83-28.77,71.28-11.7,11.73,9.79,16.75,26.08,15.46,41.31-1.29,15.23-8.19,29.5-16.89,42.06-5.73,8.28-12.48,16.41-14.28,26.32-2.01,10.99,2.46,22.22,1.65,33.37-1.18,16.23-13.34,29.65-26.77,38.84-13.43,9.19-28.72,15.58-41.47,25.69-12.79,10.14-22.47,23.56-33.19,35.86Z"/>
  <path class="cls-2" d="M327.22,2249.95c30.41-26.52,52.84-51.21,73.8-84.86,25-40.16,54.91-21.06,91.92-34.69,29.49-10.87,35.45-41.88,57.83-60.51,22.61-18.83,56.56-14.27,83.97-3.58,8.22,3.21,16.51,7.05,22.44,13.58,12.29,13.52,10.89,35.51,1.23,51.02-9.66,15.5-25.75,25.76-41.87,34.34-15.55,8.28-32.76,16.57-40.65,32.32-4.35,8.69-5.33,18.81-9.95,27.37-8.06,14.94-25.88,22.28-42.83,23.25-16.95.97-33.7-3.22-50.5-5.68-48.2-7.05-97.22.2-145.39,7.44Z"/>
  <path class="cls-2" d="M646.8,2240.11c21.56-4.55,44.88,3.68,65.63-3.73,22.44-8.01,34.83-31.49,52.73-47.21,18.5-16.26,44.02-24.25,68.49-21.43,26.51,3.05,53.59,22.92,53.81,49.61.17,20.98-15.88,38.72-33.48,50.14-21.73,14.11-47.37,22.13-73.27,22.94-4.72.15-9.8.17-13.6,2.97-3.48,2.56-5.09,6.86-7.08,10.7-8.98,17.26-28.35,27.25-47.67,29.57-19.32,2.33-38.8-1.9-57.61-6.88-10.13-2.68-20.9-5.59-30.89-2.43-5.56,1.75-10.39,5.26-15.71,7.66-32.32,14.6-63.05-13.5-85.77-33.36,7.03,6.15,57.11-19.17,65.51-23.44,20.51-10.43,35.36-30.12,58.92-35.09Z"/>
  <path class="cls-2" d="M711.28,2394.41c8.84-6.55,14.69-16.6,23.86-22.67,15.55-10.29,36.3-6.64,53.95-.64,17.66,6,35.69,14.1,54.16,11.5,16.25-2.29,30.06-12.52,44.22-20.81,18.95-11.11,40.19-19.27,62.16-19.53,21.96-.26,44.69,8.26,58.24,25.55,13.55,17.29,15.8,43.73,2.45,61.17-11.31,14.78-31.03,20.79-49.64,21.16-18.61.37-36.95-4-55.47-5.88-4.87-.5-9.96-.79-14.52,1-6.16,2.42-10.25,8.15-15.2,12.54-19.64,17.43-50.66,12.11-74.03.15-12.18-6.23-24.68-14.21-38.3-12.93-7.3.69-14.16,4.04-21.46,4.68-12.04,1.06-23.36-5.26-33.79-11.37-18.86-11.05-36.21-21.98-54.22-34.03,11.11,7.4,48.36-3.04,57.59-9.88Z"/>
  <path class="cls-2" d="M983.93,2576.99c-18.16,21.99-49.02,26.91-75.74,22.06-6.59-1.19-73.66-29.71-69.87-33.69,17.6-18.48,35.56-36.76,56.96-50.62,22.34-14.46,44.07-7.49,69.06-10.74,32.08-4.17,56.78-30.65,72.9-58.69,6.06-10.54,11.46-21.69,19.87-30.47,8.41-8.78,20.76-14.96,32.64-12.36,15.22,3.33,24.42,20.29,23.74,35.86-.68,15.57-8.93,29.75-17.98,42.43-3.93,5.51-8.14,11.02-10.11,17.5-4.78,15.73,4.56,33.66-1.9,48.78-5.74,13.44-21.94,19.21-36.55,19.53-14.61.31-29.18-3.31-43.74-2.01-3.34.3-6.74.88-9.66,2.54-4.03,2.28-6.68,6.32-9.63,9.89Z"/>
  <path class="cls-2" d="M1093.86,2671.75c-7.14,6.1-30.1,12.17-39.01,10.38-6.71-1.35-10.78-8.77-10.71-15.61.15-14.06,11.91-49.37,23.59-57.67,13.49-9.59,35.68-4.96,44.79-18.77,2.48-3.77,3.44-8.31,4.19-12.76,2.09-12.5,2.94-25.3,6.81-37.36,3.87-12.07,11.39-23.71,22.96-28.9,3.82-1.71,8.19-2.83,10.84-6.07,2.41-2.96,2.82-7,3.56-10.74,2.84-14.24,12.2-27.05,24.91-34.08,3.18-1.76,6.8-3.2,10.38-2.59,3.75.64,6.76,3.4,9.3,6.25,20.22,22.68,22.94,59.13,6.32,84.56-8.52,13.03-21.89,24.51-22.53,40.06-.25,6.12,1.6,12.26.72,18.32-2.28,15.78-20.76,23.14-36.56,25.24-15.8,2.1-33.86,3-43.99,15.31-6.17,7.5-8.17,18.14-15.55,24.45Z"/>
  <path class="cls-2" d="M1244.16,2599.65c1.53-7.53,6.05-14.06,9.15-21.09,5.35-12.13,6.45-26.08,3.05-38.9-3.23-12.18-10.26-23.02-14.21-34.98-3.95-11.96-4.11-26.64,4.79-35.55,9.64-9.65,26.72-8.26,37.35.28,10.64,8.54,15.77,22.29,17.86,35.77,1.05,6.79,1.56,13.98,5.34,19.72,3.82,5.79,10.36,9.13,15.28,14.02,8.48,8.43,11.63,21.21,10.32,33.09-1.31,11.88-6.6,22.99-13.02,33.07-6.33,9.95-13.95,19.39-17.28,30.71-9.25,31.42-24.5,54.9-49.95,75.52-1.87,1.51-4.29,3.1-6.49,2.13-2.33-1.03-2.68-4.14-2.68-6.69,0-20.22,4.23-37.37,6-56.46,1.59-17.18-9.04-33.39-5.53-50.63Z"/>
  <path class="cls-2" d="M1396.08,2542.07c.42,16.56,2.19,32.36,5.77,48.53-16.13-12.3-30.03-29.69-41.81-45.98-6.92-9.58-8.57-21.96-13.99-32.46-8.73-16.89-26.13-27.18-39.48-40.72-5.98-6.06-11.35-13.16-13.21-21.47-1.86-8.31.55-18,7.55-22.85,8.6-5.97,20.7-2.81,29.34,3.1,8.64,5.91,15.5,14.23,24.5,19.59,10.76,6.42,24.2,8.39,33.32,16.98,9.51,8.97,12.05,23.17,11.46,36.23-.59,13.06-3.77,25.97-3.45,39.04Z"/>
  <path class="cls-2" d="M1368.74,2341.95c-.24-.07-.49-.14-.74-.21-16.87-4.66-30.22,7.44-46.26,8.93-17.29,1.61-33.78-8.56-50.33-11.84-19.22-3.8-40,1.17-55.43,13.25-15.42,12.08-25.22,31.07-26.13,50.65-.17,3.71.02,7.64,1.99,10.79,1.67,2.66,4.42,4.45,7.18,5.94,16.65,8.97,37.37,9.95,54.79,2.61,18.39-7.75,39.47-15.01,60.01-13.55,10.32.74,17.28,7.3,26.82,8.92,13.29,2.26,18.06-3.34,29.93-7.76,10.89-4.06,22.95-.08,33.87,3.88,8.7,3.16,17.4,6.31,26.11,9.47-5.25-23.96-21.64-50.26-39.27-66.88-6.52-6.15-13.97-11.64-22.55-14.2Z"/>
  <path class="cls-2" d="M1230.65,2215.7c-6.75,2.1-13.22,5.17-20.15,6.58-29.13,5.91-59.2-18.43-87.48-9.26-17.62,5.72-28.7,22.76-43.62,33.73-12.23,8.99-27.02,13.85-39.69,22.2-12.67,8.35-23.69,22.32-21.53,37.34,2.53,17.58,21.14,27.7,38.07,33.06,12.13,3.84,24.95,6.72,37.52,4.77,33.4-5.19,57.49-42.74,91.21-40.46,15.04,1.02,28.71,10.17,43.78,10.69,21.17.72,38.63-15.23,57.46-24.93,29.97-15.44,64.46-13.83,94.62-.2-29.88-46.18-92.35-91.52-150.18-73.52Z"/>
  <path class="cls-2" d="M1158.69,2126.4c-11.6,2.72-22.72,7.9-34.62,8.5-29.79,1.49-58.17-25.82-86.45-16.33-12.75,4.28-22.1,15.34-34.31,20.99-20.91,9.67-47.24,2.28-67.12,13.89-22.18,12.96-25.3,48.03-7.53,66.59,17.77,18.55,50.29,18.49,69.97,1.99,11.47-9.62,19.18-23.76,32.38-30.82,18.27-9.79,40.49-3.05,61.21-2.54,15.79.39,31.66-3.08,45.84-10.03,8.78-4.3,17.02-9.95,26.43-12.59,8.33-2.34,17.12-2.2,25.77-2.04,21.86.4,43.72.81,65.58,1.21-28.28-23.67-58.08-47.97-97.14-38.81Z"/>
  <path class="cls-2" d="M879.27,2022.08c-12.27,3.6-21.16,13.94-31.78,21.05-15.47,10.36-34.4,13.7-52.54,17.91-18.13,4.2-36.98,10.05-49.58,23.75-12.6,13.7-15.93,37.52-2.36,50.26,7.91,7.43,19.46,9.49,30.32,9.61,20.81.22,41.64-5.62,59.31-16.62,12.3-7.66,23.53-17.95,37.65-21.21,21.42-4.95,43.33,7.58,65.24,5.83,28.1-2.24,49.07-26.77,75.62-36.25,38.5-13.74,78.67,7.73,116.93-1.84-23.46-24.43-77.79-60.22-113.72-53.66-24.31,4.44-43.73,21.01-69.57,16.71-21.91-3.65-42.31-22.35-65.52-15.55Z"/>
  <path class="cls-2" d="M780.44,1915.92c-25.27-3.64-48.29-24.78-73.1-18.74-8.9,2.17-16.57,7.67-24.91,11.46-23.57,10.69-50.85,7.16-76.44,10.96-28.51,4.23-67.85-2.06-93.03,12.8-7.54,4.45-13.69,10.98-21.24,15.43-20.12,11.85-48.56,8.13-64.32,25.36-11.8,12.9-11.16,34.23-1.09,48.52,10.08,14.29,27.68,21.96,45.11,23.32,17.43,1.36,34.84-2.88,51.41-8.46,10.78-3.63,21.63-7.88,33-8.07,13.74-.22,27.08,5.55,40.81,5.09,19.39-.64,35.07-12.8,51.86-20.89,17.14-8.26,37.28-11.88,56.29-12,23.26-.16,43.87,18.76,67.07,17.01,32.31-2.45,47.96-41.03,75.76-57.67,22.15-13.26,48.21-10.57,72.78-9.82-15.8-12.54-37.52-32.4-57.05-38.88-27.22-9.04-55.35,8.55-82.91,4.58Z"/>
  <path class="cls-2" d="M602.1,1805.62c-24.05-5.23-45.28-21.9-69.88-22.67-19.62-.61-35.75,9.47-52.61,17.87-21.59,10.76-42.04,8.73-64.06,16.12-21.63,7.26-35.85,29.73-57.89,35.64-11.91,3.19-24.5,1.06-36.68-.87-31.94-5.07-66.93-8.14-94.49,8.77-12.04,7.39-21.96,18.25-34.98,23.74-41.25,17.38-120.51-12.63-134.21,52.32-12.64,59.92,54.2,75.5,97.41,59.61,13.5-4.96,26.77-11.38,41.1-12.58,11.6-.97,23.17,1.56,34.77,2.54,39.15,3.29,76.62-11.28,110.67-29.16,15.06-7.91,31.54-15.12,46.07-23.22,14.9-8.31,25.7-22.41,41.91-28.78,17.67-6.93,37.43-3.73,56.4-4.12,32.09-.65,63.86-12.24,88.82-32.41,6.23-5.03,12.27-10.7,19.86-13.25,17.2-5.78,34.86,6.12,52.71,9.35,24.03,4.36,47.69-7.21,71.52-12.58,23.07-5.2,45.37-3.32,68.29,1.06-16.76-19.57-46.26-41.95-72.2-47.74-37.34-8.33-75.51,8.4-112.54.35Z"/>
  <path class="cls-2" d="M446.97,1679.47c-31.91-13.71-63.89-26.35-95.31-10.78-6.5,3.22-12.54,7.44-19.4,9.8-26.71,9.15-53.6-12.11-81.43-16.87-29.33-5.02-59.13,8.7-88.72,5.52-18.53-1.99-35.91-10.53-54.46-12.28-41.6-3.92-82.4,33.04-82.6,74.83-.04,9.17,1.65,18.5,6.12,26.51,7.92,14.22,23.64,22.61,39.54,26.05,43.27,9.35,90.19-12.4,131.78,2.77,9.47,3.45,18.23,8.72,27.83,11.79,15.84,5.07,33.63,3.72,48.53-3.68,8.46-4.2,16.14-10.31,25.33-12.51,17.55-4.2,34.65,6.68,51.31,13.62,43.62,18.16,69.74-29.16,109.22-36.67,25.03-4.76,50.63,6.18,76.02,4.09,12.62-1.04,24.73-5.27,37.02-8.31,25.7-6.36,50.96-6.08,77.07-4.17-19.92-21.45-39.6-54.56-71.42-56.77-22.22-1.55-43.55,8.45-65.7,8.24-23.35-.22-47.02-10.99-70.73-21.18Z"/>
  <path class="cls-2" d="M291.46,1480.02c-25.59-23.45-58.31-39.01-92.64-44.08-18.23-2.69-37.13-2.57-54.37-9.06-12.46-4.69-23.5-12.66-36.01-17.23-36.31-13.26-81.9,9.61-91.66,47.01-9.77,37.4,20.24,80.33,58.82,82.7,23.9,1.47,47.62-10.47,71.2-6.32,23.91,4.2,41.71,23.69,62.67,35.94,22.66,13.25,50.12,18.06,75.93,13.32,9.3-1.71,18.53-4.63,27.98-4.2,21.7.98,38.33,18.71,57.46,28.99,28.25,15.18,61.15,13.64,92.19,12.89,14.91-.36,32.46-2.91,47.15-.43,14.45,2.44,27.43,10.95,42.22,13.8-28.57-34.05-61.16-64.43-93.86-94.18-34.24-31.15-59.01-7.35-99.06-11.38-28.41-2.86-48.5-29.87-68.03-47.76Z"/>
  <path class="cls-2" d="M318.31,1410.7c-14.73-14.43-27.81-30.94-45.19-42.03-21.06-13.45-46.6-17.77-69.23-28.37-19.96-9.35-37.58-23.67-50.81-41.31-14.17-18.89-23.61-41.71-41.59-57.02-9.83-8.37-21.66-13.98-32.73-20.63-44.82-26.92-79.14-77.98-70.85-129.6,2.72-16.91,12.25-35.12,29.03-38.51,13.59-2.75,26.99,5.2,37.65,14.07,11.5,9.56,21.77,20.61,30.46,32.79,8.75,12.27,16.5,26.23,29.69,33.51,9.91,5.47,21.59,6.39,32.74,8.37,20.85,3.7,41.76,12.11,55.47,28.24,20.7,24.36,21.35,61.5,42.99,85.03,13.04,14.19,31.86,21.35,47.56,32.53,26.61,18.96,43.2,48.62,58.48,77.51,18.41,34.81,49.05,76.99,57.68,115.04-38.11-14.39-82.04-40.9-111.36-69.63Z"/>
  <path class="cls-2" d="M333.05,1038.83c0,61.48,8.09,123.14,7.15,184.44-19.82-17.47-42.32-33.94-55.64-57.26-10.64-18.62-9.17-41.7-16.13-61.98-17.25-50.22-80.97-72.37-99.28-122.21-7.39-20.11-6.49-42.93-16.28-61.99-11.01-21.42-33.41-34.22-49.39-52.24-33.46-37.71-35.83-94.05-62.83-136.62-7.65-12.07-17.29-23.03-22.82-36.21s-6.03-29.88,3.64-40.4c10.75-11.7,29.62-11.31,44.51-5.76,25.16,9.39,44.53,30.23,58.65,53.08,14.12,22.85,23.86,48.08,36.02,72.03,4.74,9.34,10.08,18.76,18.34,25.2,8.8,6.86,19.99,9.64,30.17,14.2,25.66,11.5,45.31,35.57,51.45,63.01,5.1,22.81,2.06,49.1,17.09,66.99,9.5,11.32,24.43,16.68,34.94,27.07,17.42,17.21,19.44,44.2,20.41,68.67Z"/>
  <path class="cls-2" d="M359.31,894.24c1.33-10.02,3.57-20.07,2.67-30.13-2.88-32.21-34-55.57-50.72-81.04-18.56-28.26-38.02-56.51-55.92-85.05-12.66-20.17-18.34-44.63-15.88-68.32,2.1-20.2,9.91-40.04,7.62-60.21-2.25-19.87-13.97-37.2-24.86-53.97-15.93-24.52-31.3-51.41-31.01-80.65.23-22.99,10.22-44.95,11.27-67.92.83-18.16-3.98-36.17-3.8-54.35.17-18.18,7.13-38.32,23.67-45.88,23.36-10.68,49.36,9.55,63.14,31.23,9.66,15.21,16.94,31.92,21.5,49.35,4.2,16.04,6.16,32.83,13.19,47.84,13.91,29.71,45.4,47.97,60.47,77.11,26.44,51.09-5.71,115.64,12.82,170.1,12.47,36.65,46.93,65.32,49.37,103.95,2.19,34.61-22.47,66.07-23.17,100.74-.35,17.28,6.04,34.07,4.3,51.29-1.44,14.27-4.99,28.76-6.43,43.4-3.64,37.11-14.64,73.51-32.31,106.36-6.49-19.57-12.98-39.15-19.47-58.72-10.03-30.24-10.61-63.57-6.44-95.13Z"/>
  <path class="cls-2" d="M562.7,847.63c-5.28,5.77-66.47,76.28-67.37,46.86-1.11-35.94-.52-84.46,11.6-118.44,6.84-19.17,20.27-36.19,22.66-56.39,2.26-19.14-5.78-37.76-11.27-56.24-9.35-31.48-11.32-66.23,1.12-96.62,5.59-13.66,13.94-26.13,18.64-40.12,15.43-45.87-10.84-98.08,4.86-143.85,4.93-14.37,13.74-27.13,19.16-41.33,7.46-19.54,8.2-41.05,14.74-60.92,6.54-19.87,21.91-39.5,42.8-40.61,22.12-1.17,39.83,18.79,48.37,39.23,10.38,24.86,12.54,53.07,6.06,79.21-5.46,22.04-16.89,44.7-9.83,66.28,4.04,12.35,13.65,22.11,18.81,34.04,11.42,26.38-.94,56.74-15.59,81.48-14.64,24.74-32.36,50.04-32.01,78.79.32,26.08,15.61,53.16,4.86,76.93-8.8,19.47-32.37,29-41.23,48.44-7.26,15.93-2.95,34.61-6.05,51.83-3.57,19.86-16.71,36.54-30.34,51.43Z"/>
  <path class="cls-2" d="M744.47,793.37c-30.09,11.89-65.54,28.55-98.5,28.29,4.03-28.36,21.4-50.65,34.59-75.33,7.89-14.77,16.22-30.05,29.74-39.93,9.24-6.75,20.56-10.7,28.51-18.93,8.87-9.2,12.16-22.27,15.11-34.71,7.73-32.6,15.46-65.19,23.19-97.79,5.93-24.99,12.42-51.11,29.52-70.28,9.13-10.23,21.19-18.39,26.74-30.93,3.34-7.54,3.97-15.95,4.55-24.17,1.38-19.42,2.75-38.83,4.13-58.25,1.45-20.42,3.68-42.66,17.95-57.33,5.8-5.96,13.25-10.23,18.53-16.66,6.63-8.08,9.13-18.65,13.4-28.19,9.01-20.1,29.19-36.88,51.12-34.87,21.62,1.98,38.44,21.83,42.97,43.06,4.54,21.23-.83,43.34-8.28,63.73-7.45,20.4-17.05,40.16-21.41,61.43-1.28,6.24-2.08,12.83-.07,18.87,2.49,7.48,8.86,12.93,12.95,19.67,10.55,17.41,4.37,39.95-4.12,58.46-12.07,26.32-28.32,50.72-47.94,72.02-7.09,7.69-14.71,15.11-19.75,24.28-9.9,18.05-8.35,39.86-9.33,60.42-.98,20.56-6.49,43.59-24.3,53.91-14.94,8.66-34.55,5.8-49.37,14.66-18.44,11.02-23.18,35.88-38.55,50.88-8.65,8.44-20.12,13.24-31.36,17.68Z"/>
  <path class="cls-2" d="M938.72,721.86c29.5-27.34,23.61-78.65,51.84-107.3,17.28-17.53,43.95-22.81,62-39.55,17.56-16.28,24.34-40.69,33.35-62.88,9-22.19,23.55-45.29,46.89-50.66,23.92-5.51,49.39,11.69,57.56,34.84,8.17,23.15,1.27,49.74-13.32,69.48-10.31,13.96-24.34,25.4-31.57,41.18-10.04,21.89-5.08,47.65-10.58,71.09-6.78,28.91-30.77,53.08-59.63,60.08-8.92,2.16-18.35,2.86-26.53,7.03-28.2,14.38-29.45,62.5-60.18,70.09-14.64,3.62-29.87-4.35-44.88-2.84-18.64,1.87-33.17,17.77-51.51,21.57-42.39,8.8-52.75-31.7-34.33-60.85,18.62-29.46,56.73-28.89,80.91-51.29Z"/>
  <path class="cls-2" d="M1136.18,939.05c-15.64,14.83-38.94,12.52-58.01,7.09-18.48-5.27-37.45-8.92-55.55-13.99-20-5.6-15.95-13.75-7.92-31.95,7.47-16.93,15.76-38.67,31.27-49.9,19.94-14.43,44.94-4.63,67.03-11.44,43.76-13.49,45.84-80.72,85.82-103.04,5.08-2.84,10.63-4.83,15.46-8.08,17.09-11.51,21.89-36.26,39.72-46.56,20.97-12.11,49.55,4.25,57.52,27.11,7.97,22.86.61,48.27-10.2,69.94-10.81,21.66-25.14,41.79-32.29,64.92-5.36,17.34-6.52,35.9-13.21,52.78-6.68,16.88-21.31,32.71-39.47,32.67-20.55-.05-40.64-19.98-59.11-10.96-9.07,4.43-13.75,14.48-21.07,21.42Z"/>
  <path class="cls-2" d="M1336.96,872.92c3.67-4.56,7.88-9.31,13.61-10.55,4.54-.98,9.28.47,13.43,2.55,18.2,9.12,28.47,31.71,23.37,51.43-6.09,23.53-30.7,41.04-30.18,65.34.2,9.39,4.33,18.49,3.72,27.86-1.22,18.98-21.65,31.66-40.65,32.61-6.91.35-14.08-.36-20.55,2.1-9.34,3.54-15.05,12.73-21.98,19.92-24.98,25.94-65.76,26.04-101.74,24.34-3.98-.19-9.14-1.43-9.45-5.41-.13-1.64.71-3.19,1.55-4.61,10.05-17.14,10.47-46.05,31.11-54.74,8.43-3.55,18.93-2.75,25.58-9.02,12.56-11.83,14.35-16.11,30.55-23.44,13.62-6.16,18.65-10.18,26.17-24.32,17.45-32.83,31.85-64.73,55.46-94.06Z"/>
  <path class="cls-2" d="M1325.81,1125.32c5.65-4.77,13.01-7.24,18.41-12.3,19.19-18,4.78-58.15,27.71-71.04,9.73-5.47,23.71-3.67,30.4-12.61,2.76-3.69,3.54-8.44,4.49-12.95,2.14-10.13,5.73-20.24,12.53-28.04,6.8-7.8,17.3-12.94,27.52-11.25,15.44,2.55,24.94,19.87,23.89,35.48-1.05,15.61-9.94,29.52-19.37,42-3.61,4.78-7.39,9.56-9.5,15.16-3.42,9.09-2.05,19.16-2.51,28.86-.64,13.37-7.07,28.58-20.17,31.31-6.3,1.31-13.29-.52-18.99,2.47-10.2,5.35-8.16,20.23-11.64,31.22-3.44,10.87-13.02,18.47-22.09,25.37-46.84,35.67-72.36-36.89-40.67-63.67Z"/>
  <path class="cls-2" d="M1468.1,1203.99c3.96-10.88,12.11-19.95,15.45-31.04,6.75-22.42-7.61-45.61-8.28-69.02-.21-7.29,1.05-14.87,5.22-20.85,2.88-4.12,7.01-7.29,9.53-11.63,5.13-8.85,2.37-19.92.53-29.99-1.65-9.04-2.41-18.58.69-27.23,3.09-8.65,10.86-16.16,20.04-16.49,13.62-.48,22.98,13.92,25.98,27.21,6.48,28.78-2.9,60.03,7.03,87.81,4.1,11.49,11.52,22.81,9.45,34.84-2.39,13.92-16.65,23.05-20.56,36.62-4.73,16.41,6.6,35.86-2.51,50.31-3.55,5.63-9.55,9.15-15.32,12.46-7.63,4.37-15.57,8.85-24.33,9.59-25.51,2.16-29.38-34.88-22.92-52.61Z"/>
  <path class="cls-2" d="M1591.59,1199.9c-.2-17.27,8.53-33.93,7.04-51.14-1.88-21.68-19.73-41.31-15.35-62.63,1.58-7.72,6-14.61,7.73-22.3,2.65-11.83-1.34-24.07-5.95-35.29s-9.98-22.55-10.21-34.67c-.23-12.12,6.45-25.42,18.23-28.28,11.34-2.75,23.07,5.3,28.44,15.65s5.9,22.46,6.32,34.12c.45,12.54.89,25.08,1.34,37.62.23,6.39.72,13.43,5.21,17.98,3.61,3.67,9.16,4.96,12.64,8.76,5.07,5.52,4.02,14.34,1.03,21.21-2.99,6.87-7.61,13.16-9,20.52-3.71,19.66,16.54,37.15,15.17,57.11-.41,5.99-2.77,11.64-5.1,17.18-4.05,9.61-8.1,19.23-12.15,28.84-15.96,37.89-45.08,1.68-45.38-24.69Z"/>
  <path class="cls-2" d="M1679.14,1032.19c-4.59-6.3-11.05-10.93-16.77-16.23-14.08-13.08-23.74-30.82-27.1-49.74-.37-2.09-.61-4.46.69-6.14,1.15-1.5,3.16-1.99,5.03-2.24,21.79-2.88,41.07,15.22,51.05,34.8,3.07,6.02,5.89,12.64,11.53,16.37,7.82,5.18,18.26,3.08,27.31,5.55,16.82,4.59,25.11,23.46,28.64,40.54,2.47,11.93,14.46,56.65,3.84,65.85-12.83,11.11-52.42-20.16-60.04-30.41-12.79-17.2-11.41-40.76-24.18-58.34Z"/>
  <path class="cls-2" d="M1704.02,894.11c-21.6-3.39-43.64-.73-65.49-1.19-30.92-.66-66.07-6.29-89.15,14.31-6.83,6.09-12.03,16.05-7.95,24.24,3.48,6.98,12.04,9.54,19.75,10.75,16.04,2.51,32.5,2.27,48.46-.72,12.04-2.25,24.05-6.07,36.26-5.12,23.19,1.81,43.5,20.55,66.66,18.43,14.59-1.33,28.62-10.97,42.85-7.48,13.13,3.22,24.01,11.53,32.57-3.83,4.96-8.89,1.31-22.14-5.36-28.86-14.5-14.61-59.59-17.55-78.6-20.53Z"/>
  <path class="cls-2" d="M1645.46,788.98c-27.85.3-54.77-9.58-80.27-20.79-14.17-6.23-28.54-13.01-43.98-14.11-10.96-.78-21.9,1.37-32.67,3.53-23.4,4.7-46.76,9.56-70.1,14.57-18.74,4.02-40.05,10.16-47.87,27.66-8.25,18.48,3.55,40.27,19.29,52.99,12.5,10.1,28.79,17.05,44.55,13.92,18.58-3.69,33.71-20.6,52.63-19.84,16.44.66,29.43,14.55,45.47,18.19,27.13,6.16,51.88-17.89,79.52-21,19.18-2.16,37.88,5.95,56.97,8.83,32.14,4.86,105.61,3.05,75.56-46.91-19.61-32.61-69.12-17.38-99.12-17.06Z"/>
  <path class="cls-2" d="M1577.42,682.54c-10.7-.64-21.74-.06-31.79-3.77-7.2-2.65-13.43-7.35-19.43-12.13-35.62-28.38-69-63-113.01-74.71-10.55-2.81-21.5-4.21-31.76-7.96-13.48-4.91-25.19-13.64-37.98-20.14-27.86-14.17-61.12-17.34-91.16-8.7-16.13,4.64-33.46,15.76-33.86,32.54-.28,11.67,8.07,21.91,17.61,28.64,31.31,22.1,73.59,16.58,111.09,24.52,7.58,1.6,15.22,3.88,21.39,8.57,7.57,5.75,12.13,14.49,17.53,22.32,18.11,26.28,48.16,43.98,79.92,47.06,11.97,1.16,24.2.37,35.87,3.28,11.65,2.9,22.1,9.33,33.45,13.22,15.31,5.25,31.78,5.75,47.95,6.2,28.68.8,58.3,3.62,86.82,1.9,8.59-40.64-66.17-59.26-92.64-60.85Z"/>
  <path class="cls-2" d="M1526.06,500.09c-26.58-28.5-55.33-57.05-90.77-74.29-15.31-7.45-32.25-13.01-43.92-25.41-10.21-10.85-15.09-25.63-23.77-37.74-12-16.72-31.55-27.8-52.06-29.5-14.64-1.21-29.24,2.1-43.9,2.93-27.08,1.52-55.15-5.82-77.84-20.78-19.81-13.07-44.07-32.39-69.04-16.82-14.34,8.94-18.93,28.61-14.91,45.02,4.02,16.42,14.84,30.23,25.91,43,15.47,17.85,33.28,35.55,56.21,41.24,23.01,5.71,48.23-1.54,70.48,6.63,21.31,7.83,35.13,27.88,49.78,45.23,21.03,24.89,49.14,47.21,81.71,48.1,13.66.37,27.6-3.06,40.83.38,14.34,3.73,25.34,14.85,36.75,24.31,18.27,15.15,42.22,30.47,65.22,36.84,27.02,7.49,33.25-6.78,21.15-28.44-11.25-20.16-15.16-42.83-31.84-60.71Z"/>
  <path class="cls-2" d="M1535.42,421.5c-2.47-15.73,2.89-32.27-1.65-47.53-5.36-18-22.86-29.34-33.09-45.09-8.16-12.55-11.53-28.13-9.29-42.93,1.08-7.15,3.43-14.27,2.56-21.45-.81-6.73-4.39-12.94-4.81-19.7-.99-16.16,18.09-28.26,33.85-24.56s26.84,18.45,31.66,33.9c4.82,15.45,4.69,31.93,6.12,48.06s4.84,32.9,15.27,45.28c8.04,9.54,20.07,16.32,24.23,28.08,5.65,15.99-5.82,32.87-6.23,49.82-.23,9.37,2.95,18.46,4.16,27.76,1.21,9.29-.09,19.9-7.26,25.93-20.89,17.58-53.22-42.97-55.52-57.59Z"/>
  <path class="cls-2" d="M1671.29,352.71c6.18-2.72,12.95-4.52,18.09-8.9,4.53-3.86,7.32-9.34,9.86-14.72,5.62-11.89,10.74-24.29,19.34-34.24,8.6-9.95,21.63-17.22,34.61-15.06,5.15.86,10.04,3.14,15.26,3.42,11.01.59,20.36-7.65,27.73-15.84,9.89-11,18.95-23.13,31.35-31.21,12.39-8.08,29.44-11.26,41.8-3.13,13.85,9.11,16.6,29.25,10.69,44.74-5.91,15.49-18.38,27.4-30.47,38.73-12.09,11.34-24.58,23.21-30.57,38.67-3.52,9.07-4.61,18.97-8.36,27.95-12,28.73-34.24,25.36-58.98,31.07-21.71,5.01-32.16,27.08-54.48,31.47-20.76,4.09-42.27,4.35-63.13.77-2.05-.35-4.17-.78-5.83-2.03-3.48-2.63-3.64-7.75-3.07-12.07,3.73-28.23,18.43-67.41,46.18-79.61Z"/>
  <path class="cls-2" d="M1677.43,514.95c18.34-2.01,37.5,6.99,54.92.92,19.29-6.72,27.87-28.4,38.86-45.62,13.62-21.34,34.03-38.27,57.51-47.71,16.7-6.72,39.21-8.06,49.45,6.75,10.66,15.42-.02,37.08-14.47,49.02-14.46,11.94-32.81,19.56-44.03,34.58-13.71,18.34-15.64,46.18-35.5,57.58-13.79,7.92-31.15,4.56-46.62,8.23-18.24,4.33-32.71,18.2-44.01,33.16-23.27,30.81-42.54,21.73-73.59,36.72-7.46,3.6-15.04,8.64-23.25,7.53-15.12-42.8,24.79-65.57,38.77-98.54,8.79-20.73,15.97-39.76,41.97-42.61Z"/>
  <path class="cls-2" d="M1730.79,731.29c2.43-5.22,6.16-9.73,8.74-14.88,4.93-9.82,5.33-21.19,6.96-32.06,2.38-15.9,8.44-32.52,21.85-41.39,13.52-8.95,24.85-7.04,32.74-21.86,8.52-16,5.11-34.23,23.37-45.17,8.68-5.2,19.34-6.05,29.4-4.97,2.69.29,5.48.69,8.03-.22,4.46-1.59,6.59-6.51,8.57-10.81,3.29-7.15,7.48-13.88,12.44-19.99,6.46-7.96,18.23-15.13,26.16-8.64,3.67,3.01,4.98,8.02,5.51,12.73,1.5,13.35-1.68,27.19-8.86,38.55-10.78,17.05-30.64,29.9-32.4,50-1.26,14.42,7.62,28.55,5.21,42.83-3.08,18.23-17.11,29.84-18.6,48.35-1.3,16.06.62,26.29-23.68,25.44-9.33-.33-18.97-2.22-27.81.79-21.68,7.38-24.71,37.43-41.62,52.87-5.85,5.34-14.21,8.84-21.73,6.36-14.36-4.74-6.15-17.64-7.82-27.29-3.12-18.07-15.42-31.33-6.44-50.62Z"/>
  <path class="cls-2" d="M1914.36,779.42c2.39,25.25-3.02,52.43-16.02,73.88-4.87,8.03-10.74,14.05-14.86,22.74-4.39,9.25-4.94,25.21-13.14,31.9-4.65,3.79-11.81,2.44-16.33,6.41-2.05,1.8-3.25,4.45-4.54,6.93-8.41,16.17-23.68,28.11-40.71,31.83-2.61.57-5.6.87-7.69-.89-2.24-1.88-2.54-5.3-2.66-8.32-.9-22-4.32-52.7,14.21-68.61,5.46-4.69,12.39-7.12,17.87-11.79,21.14-17.98,13.31-60.67,37.17-74.26,9.94-5.66,24.33-5.38,29.16-16.21,1.06-2.38,1.55-5.18,3.36-6.98,2.89-2.87,7.93-1.58,10.5,1.61,2.57,3.19,3.28,7.59,3.68,11.78Z"/>
  <path class="cls-2" d="M1830.59,1024.44c7-3.5,16.01-3.9,20.91-10,2.79-3.47,3.59-8.07,4.43-12.44,3.53-18.39,9.31-36.34,17.18-53.32,5.14-11.09,14.35-23.45,26.4-21.43,8.7,1.46,14.32,10.11,16.99,18.53,4.54,14.3,3.65,30.26-2.47,43.96-6.72,15.06-19.36,27.3-23.81,43.18-4.78,17.11.31,37.23-9.92,51.75-9.54,13.55-28.33,16.32-41.81,25.95-15.35,10.96-23.13,29.06-39.77,38.73-5.4,3.14-56.06,14.73-53.47,6.62,5.28-16.57,12.17-34.81,22.33-49.07,8.25-11.58,18.19-13.97,27.6-23.36,16.45-16.41,12.98-47.91,35.39-59.1Z"/>
  <path class="cls-2" d="M1762.39,1285.31c7.75,3.31,14.15,9.08,21.3,13.53,30.32,18.9,69.6,12.32,103.92,2.35,3.62-1.05,7.31-2.17,10.43-4.29,9.83-6.7,10.88-20.55,10.82-32.44-.04-8.3-.25-17.04-4.44-24.21-9.43-16.15-32.86-15.93-50.84-10.81-17.99,5.12-37.47,13-54.56,5.39-6.96-3.1-12.59-8.47-18.9-12.74-16.48-11.16-38.05-14.45-57.1-8.69-5.07,1.53-10.05,3.68-15.34,3.93-20.26.95-38.19-8.58-58.13-4.62-19.2,3.82-34.58,15.96-49.28,28.19-3.09,2.57-6.5,5.94-5.83,9.9.58,3.49,4.06,5.61,7.19,7.27,19.38,10.28,34.16,27.95,56.56,31.75,34.2,5.79,70.91-18.74,104.2-4.52Z"/>
  <path class="cls-2" d="M1574.29,1289.77c-39.94-20.14-59.22-44.59-107.23-34.79.1,48.28,41.88,98.15,85.43,116.11,22.75,9.38,48.66,11.03,69.58,24,18.48,11.46,30.8,30.34,45.28,46.55,14.49,16.22,34.02,30.94,55.7,29.18,14.63-1.18,28.18-9.83,42.84-9.27,22.48.85,37.9,21.96,51.33,40,13.43,18.05,33.71,36.85,55.34,30.67,21.18-6.05,28.88-34.73,19.66-54.74-9.22-20.01-29.69-32.31-50.06-40.69-20.37-8.38-42.14-14.27-60.1-27.03-25.26-17.95-43.66-49.5-74.44-53.06-11.93-1.38-25.07,1.68-35.27-4.65-6.44-3.99-10.28-10.96-14.99-16.89-19.87-24.96-54.58-31.03-83.07-45.4Z"/>
  <path class="cls-2" d="M1333.56,1263.59c-11.35-7.58-21.68-15.55-28.15-29.6-9.17-19.92-8.84-42.7-22.07-60.16-6.97-9.21-16.28-17.09-26.02-23.21-3.47-2.18-28.24-10.66-28.81-12.44,7.55,23.59,12.24,73.96,31.45,90.58,5.01,4.34,11.37,6.8,16.72,10.71,16.31,11.93,20.1,34.19,23.94,54.02,7.07,36.49,19.81,73.98,47.79,98.43,24.42,21.34,58.25,30.73,79.89,54.88,37.01,41.3,29.74,115.58,77.61,143.56,18,10.52,40.09,11.53,58.94,20.43,54.77,25.87,66.82,108.76,124.19,128.19,26.26,8.9,57.23,2.01,80.89,16.47,13.51,8.25,22.32,22.2,33.41,33.49,13.22,13.46,30.06,23.33,48.26,28.28,7.51,2.04,15.67,3.23,22.94.45,10.99-4.2,16.95-16.38,18.48-28.04,4.22-32.32-17.4-62.27-41.2-84.53-23.63-22.1-50.62-40.59-79.75-54.65-17.83-8.6-36.59-15.64-52.79-27.02-22.49-15.8-38.56-38.9-56.99-59.3-21.71-24.03-47.15-44.68-75.13-60.98-9.82-5.72-20.01-10.95-28.86-18.08-34.36-27.66-46.61-81.69-88.47-95.61-14.56-4.84-30.8-3.79-44.76-10.14-37.45-17.02-36.93-73.43-68.59-99.69-7.54-6.26-15.46-11.07-22.93-16.05Z"/>
  <path class="cls-2" d="M1191.97,1198.71c-1.33-36.9-19.25-66.45-31.36-100.13-3.76-10.44-4.79-21.17-10.47-30.78-2.7-4.57-29.76-26.61-29.46-28.36-4.01,23.58,9.25,47.08,11.15,70.3,2.01,24.6-8.67,48.23-4.27,73.14,6.18,34.99,35.87,61.13,47.83,94.59,11.45,32.05,5.59,67.28,5.49,101.32-.03,10.31.55,20.91,4.79,30.3,6.87,15.23,22.08,24.77,32.43,37.88,17.41,22.03,19.79,51.92,23.27,79.78,3.48,27.87,10.33,58.18,32.76,75.07,13.36,10.06,30.52,13.85,44.3,23.33,24,16.51,33.48,46.64,47.13,72.37,18.05,34,45.75,62.8,79.01,82.15,5.61,3.27,11.78,6.36,18.25,5.89,8.96-.65,16.26-8.24,19.12-16.76,2.85-8.52,2.09-17.8.77-26.69-8.79-59.21-40.85-113.15-82.05-156.56-9.61-10.13-19.91-20-26.17-32.48-7.19-14.35-8.41-30.89-13.32-46.17-19.53-60.88-92.5-91.57-114.2-151.72-4.26-11.81-6.35-24.38-11.53-35.81-10.52-23.2-32.97-40.04-40.57-64.36-5.63-18.02-2.24-37.45-2.92-56.31Z"/>
  <path class="cls-2" d="M921.56,851.06c8.33,26.2,19.88,51.36,18.19,78.79-1.78,28.91-9.27,57.24-9.75,86.26-.64,39.34,29.06,74.71,27.18,114.01-1.66,34.63-27.77,67.79-17.95,101.03,3.04,10.29,9.32,19.28,13.9,28.99,14.59,30.96,11.12,66.9,9.8,101.1-1.32,34.2,1.01,71.65,23.78,97.19,8.02,9,18.29,16.08,24.75,26.26,5.19,8.16,7.56,17.73,10.05,27.07,7.62,28.59,17.96,58.18,40.34,77.53,22.38,19.35,60.19,23.72,80.14,1.87,19.78-21.66,13.42-55.94,3.02-83.37-9.12-24.04-20.43-47.26-33.73-69.27-8.85-14.64-18.73-29.1-22.84-45.71-6.11-24.69,1.32-50.88-2.41-76.04-7-47.08-51.63-83.52-53.24-131.09-.71-20.81,7.1-42.04,1.54-62.11-6.26-22.59-27.88-37.87-36.43-59.69-5.98-15.26-5.02-32.19-5.6-48.56-2.17-60.97-27.94-120.8-70.76-164.26Z"/>
  <path class="cls-2" d="M741.38,823.16c-25.67-13.31-48.54-11.42-75.88-5.65,25.52,15.04,55.32,41.1,56.58,72.45,1.1,27.32-4.31,56.37,7.91,80.83,5.66,11.33,14.71,20.65,20.64,31.83,26.41,49.72-16.35,114.23,5.99,165.91,4.46,10.32,11.32,19.45,15.84,29.74,11.35,25.88,6.7,55.55,8.59,83.75,1.89,28.19,15.31,60.38,43.01,65.95,20.89,4.2,42.37-9.63,52.46-28.39s10.78-41.21,8.22-62.36c-2.56-21.15-8.12-41.9-9.67-63.15-1.89-25.87,2.1-52.58-5.58-77.36-8.56-27.59-30.64-49.42-39.24-77-11.93-38.25,2.69-84.87-21.93-116.49-6.65-8.55-15.95-15.49-19.46-25.74-2.67-7.78-1.56-16.32-2.76-24.46-3.37-22.96-24.1-39.19-44.7-49.87Z"/>
  <path class="cls-2" d="M634.92,938.11c-11.05-38.57-85.02-56.06-117.12-37.89-1.26.72-2.61,1.65-2.88,3.07-.39,1.97,1.4,3.62,3.01,4.82,15.14,11.34,32.85,18.98,41.28,36.55,9.7,20.23,12.49,43.3,22.85,63.2,5.45,10.46,12.92,19.91,16.98,30.98,9.15,24.97-.6,52.36-3.14,78.84-2.56,26.62,2.5,53.93,14.43,77.87,8.7,17.46,25.55,34.96,44.61,30.81,11.9-2.59,20.65-13.37,24.34-24.98,3.68-11.61,3.21-24.07,2.69-36.24-1.41-33.37-2.82-66.75-4.23-100.12-.56-13.17-1.23-26.82-7.21-38.57-8.49-16.68-26.75-27.68-32.06-45.63-4.07-13.76.42-28.93-3.53-42.72Z"/>
  <path class="cls-2" d="M498.35,1026.15c13.89,7.48,25.5,18.66,39.29,26.33,6.35,3.53,13.43,6.55,17.63,12.47,9.25,13.04-.31,30.87.52,46.84.5,9.65,4.91,18.59,7.79,27.82,2.88,9.22,4.05,19.96-1.36,27.97-6.88,10.19-21.94,11.68-33.35,7.09-11.41-4.59-20.27-13.7-29.52-21.79-9.26-8.1-20.08-15.7-32.37-16.1-11.57-.38-23.47,5.18-33.83-2.18-9.83-6.98-10.09-22.64-19.3-30.98-14.12-12.8-37.41-7.07-31.19-32.3,5.82-23.59,27.43-25.84,45.72-32.03,26.64-9.01,39.09-29.76,69.95-13.14Z"/>
  <path class="cls-2" d="M373.55,1223.55c4.79-2.67,10.17-4.1,15.1-6.51,18.33-8.98,28.74-30.6,48.07-37.17,9.36-3.18,19.56-2.33,29.41-1.43,12.02,1.1,24.43,2.33,35.01,8.15,10.58,5.82,18.9,17.53,16.93,29.44-2.25,13.62-16.19,21.84-29.18,26.51-12.99,4.67-27.5,8.35-35.95,19.27-12.09,15.62-9.03,42.7-26.92,51.06-11.14,5.21-26.11.05-35.4,8.11-5.16,4.48-6.77,11.69-8.09,18.39-2.45,12.4-4.9,24.8-7.35,37.21,1-5.05-12.99-26.12-15.5-32.81-5.58-14.88-9.58-30.42-11.07-46.26-2.4-25.53-.57-59.74,24.96-73.96Z"/>
  <path class="cls-2" d="M471.38,1484.59c.43-13.46,3.02-27.06.49-40.29-2.16-11.27-7.94-21.68-9.31-33.07-2.97-24.61,14.69-46.3,23.54-69.46,5.84-15.29,7.88-31.72,11.91-47.58,4.03-15.86,10.55-31.88,23.07-42.42s32.31-13.79,45.22-3.74c14.81,11.53,14.57,34.42,7.62,51.86-6.94,17.43-18.99,32.7-24.11,50.76-8.64,30.51,3.76,64.29-6.13,94.42-2.58,7.84-6.59,15.13-9.43,22.88-6.9,18.78-6.67,39.32-6.35,59.33.44,27.82.88,55.64,1.32,83.46-.1-5.85-20.7-16.03-24.7-20.04-8.45-8.47-13.86-18.64-18.75-29.78-10.55-24.07-15.23-50.09-14.39-76.33Z"/>
  <path class="cls-2" d="M642.25,1613.64c1.07-39.03-25.49-77.85-13.49-115.01,3.78-11.71,11.22-22.13,13.89-34.15,3.95-17.78-3.02-35.88-7.21-53.61-10.3-43.6-3.24-91.05,19.31-129.75,5.04-8.66,12.41-17.78,22.43-17.86,7.81-.06,14.48,5.55,19.52,11.52,15.1,17.85,22.51,41.99,20.02,65.23-2.73,25.58-16.74,51-9.67,75.73,4.9,17.16,19.3,30.48,23.65,47.78,8.5,33.81-23.58,64.68-26.62,99.42-1.87,21.35,7.48,42.31,6.99,63.73-.36,16.14-6.26,31.58-9.42,47.41-8.19,41.11,2.27,83.39,12.66,124-1.39-5.42-31.89-23-37.93-29.31-12.82-13.4-23.65-29.11-30.4-46.45-15.22-39.1-4.83-69.04-3.74-108.69Z"/>
  <path class="cls-2" d="M836.62,1796.81c1.15-13.86,4.31-27.97.97-41.47-4.64-18.71-20.82-32.45-27.73-50.44-11.87-30.92,5.9-66.65-3.39-98.44-3.76-12.87-11.71-24.06-17.42-36.19-19.42-41.27-11.79-89.59-3.76-134.49,2.91-16.29,5.97-32.97,14.37-47.22,8.41-14.25,23.43-25.79,39.97-25.29,25.29.77,41.89,28.52,43.23,53.78,1.34,25.26-7.37,49.99-8.72,75.26-.51,9.42.08,19.17,4.08,27.72,6.81,14.56,22.02,23.01,32.75,34.98,16.65,18.57,21.76,45.06,20.54,69.97-.8,16.33-3.8,33.77,3.83,48.23,6.95,13.16,21.33,20.89,29.25,33.48,9.69,15.42,8.02,35.68,1.34,52.63-6.67,16.95-17.73,31.74-26.66,47.62-24.69,43.87-28.9,90.58-23.83,139.63-50.65-24.69-83.31-95.55-78.82-149.76Z"/>
  <path class="cls-2" d="M1053.96,1978.31c-2.98-12.15-2.76-24.86-5.12-37.15-5.95-30.91-27.95-57.92-28.9-89.38-.56-18.5,6.31-36.38,8.41-54.77,4.27-37.32-11.17-74.07-12.68-111.59-.54-13.48.85-27.43,7.12-39.38,6.27-11.95,18.16-21.57,31.63-22.29,22.74-1.21,39.59,22.09,44.08,44.42,4.48,22.32,1.38,45.84,7.53,67.77,8.19,29.23,32.21,53.47,34.19,83.76,1.73,26.54-13.93,50.78-20.28,76.6-3.22,13.08-3.9,27.47,2.13,39.52,7.36,14.72,23.3,23.4,31.79,37.5,20.96,34.81-11.92,82.57,5.43,119.31-6.6-13.99-39.7-26.51-52-36.77-23.47-19.6-45.92-47.36-53.31-77.54Z"/>
  <path class="cls-2" d="M1267.61,2105.28c-5.23-10.76-13.79-19.47-20.76-29.19-15.41-21.5-22.96-48.51-20.93-74.89,1.51-19.58,8.08-39.09,4.96-58.48-3.49-21.69-18.79-40.5-20.29-62.42-1.2-17.64,6.75-34.76,6.87-52.44.13-19.04-8.74-36.78-15.6-54.54-15.04-38.99-20.94-81.47-17.09-123.08,1.24-13.36,5.28-28.98,17.88-33.6,12.93-4.75,26.46,5.25,35.39,15.74,10.31,12.11,18.69,25.85,24.75,40.56,11.67,28.35,14.75,60.17,30.2,86.65,14.37,24.65,38.53,42.93,50.45,68.85,25.53,55.51-13.57,121.99,2.18,181.03,5.81,21.77,19.04,42.31,17.45,64.78-1.24,17.54-11.38,33.03-17.02,49.69-14.12,41.75,1.88,81.12,11.08,121.57-22.82-5.75-39.06-27.22-51.47-45.79-9.02-13.49-18.41-26.69-23.97-42.07-6.16-17.02-6.1-35.99-14.07-52.37Z"/>
  <path class="cls-2" d="M1404.75,2292.27c2.83-16.78,9.19-32.92,10.73-49.87,3.43-37.94-17.46-77.1-5.15-113.15,5.58-16.34,17.43-29.8,24.32-45.63,17.84-41,1.22-94.1,28.87-129.24,4.97-6.32,11.17-11.67,15.43-18.49,12.02-19.23,5.79-43.99,6.26-66.66.68-32.45,15.82-62.62,30.62-91.5,9.19-17.92,18.37-35.85,27.56-53.77,1.79-3.5,3.68-7.12,6.8-9.52,6.59-5.09,16.32-2.98,23.43,1.33,25.84,15.68,29.94,51.93,23.94,81.55-6,29.63-19.19,58.45-17.3,88.62,1.31,20.8,9.78,41.57,5.31,61.92-7.46,33.9-48.52,55.7-48.03,90.41.13,9.47,3.53,18.55,6.7,27.47,12.61,35.48,22.06,76.01,5.22,109.69-7.12,14.25-18.83,27.03-20.06,42.91-.95,12.32,4.68,24.06,7.95,35.98,6.57,23.9,1.43,53.55-19.86,66.25-18.19,10.86-42.17,6.26-61.19,15.6-22.1,10.84-29.96,35.38-38.47,56.49-6.77-29.7-18.21-70.1-13.09-100.38Z"/>
  <path class="cls-2" d="M1451.18,2534.66c7.94-4,16.79-6.52,23.57-12.27,15.03-12.75,14.41-35.51,18.79-54.73,4.9-21.5,17.75-41.09,35.51-54.16,9.76-7.18,20.93-12.45,29.89-20.6,18.86-17.16,24.89-43.83,31.74-68.39,6.85-24.56,17.46-51,40.38-62.17,11.99-5.85,26.61-7.03,36.26-16.25,7.69-7.35,10.54-18.28,13.06-28.62,7.01-28.81,14.03-57.62,21.04-86.43,6.16-25.3,13.4-52.4,33.39-69.09,5.35-4.47,11.48-8.05,16.19-13.19,5.35-5.85,8.49-13.32,11.7-20.57,14.39-32.51,32.06-63.56,52.67-92.53,5.7-8.01,12.91-16.59,22.73-17.1,12.81-.67,21.8,12.78,24.77,25.26,10.38,43.7-18.54,88.47-12.89,133.03,3.26,25.72,17.96,50.21,14.54,75.91-5.76,43.16-56.7,63.54-79.84,100.43-22.58,35.99-17.25,85.95-45,118.14-25.77,29.89-75.12,37.94-89.44,74.71-6.51,16.72-3.83,35.88-10.03,52.72-7.72,20.99-27.57,34.65-46.28,46.91-13.46,8.82-26.92,17.64-40.38,26.46-17.49,11.46-36.16,23.32-57.06,24.01-17.33.58-32.64-8.04-49.51-9.24-13.45-.96-22.37,6.69-35.09,6.12,9.56-20.91,17.19-47.21,39.3-58.35Z"/>
  <path class="cls-2" d="M1386.9,2703.97c35.41,1.22,60.54-35.16,94.52-45.18,31.94-9.42,68.13,5.54,98.88-7.25,37.69-15.67,53.8-67.64,93.85-75.53,19.43-3.83,40.1,4.22,59.11-1.34,23.36-6.83,36.07-31.15,53.08-48.56,23.5-24.05,58.82-35.94,92.08-31.01,6.37.95,12.8,2.53,18.19,6.07,18.61,12.24,15.99,41.53,3.11,59.7-12.88,18.18-32.75,30.26-46.75,47.58-22.66,28.03-28.18,67.47-52.7,93.9-42.37,45.68-122.48,34.43-167.34,77.67-10.63,10.24-18.79,23.2-31.06,31.41-22.06,14.75-51.54,10.58-76.83,2.55-25.29-8.03-50.58-19.5-77.05-17.63-16.59,1.18-33.55,7.57-49.4,2.53-24.67-7.84-33.58-38.39-54.1-54.16-25.7-19.75-64.62-11.19-88.7-32.41,16.51-9.45,37.71-17.7,56.87-19.85,26.66-2.99,48.59,10.63,74.23,11.52Z"/>
  <path class="cls-2" d="M1201.96,2742.45c-21.37-22.2-50.59-19.21-76.85-30-24.37-10.01-41.21-25.07-69.12-29.75,8.29,30.65,21.48,70.76,47.3,91.4,14.76,11.79,33.88,16.47,50.3,25.79,18.39,10.44,33.07,26.61,44.12,44.64,13.05,21.28,23.55,47.37,46.78,56.5,15.51,6.09,33.32,2.88,49.14,8.1,21.94,7.23,35.38,28.59,48.82,47.38,13.44,18.79,32.02,37.98,55.1,36.99,22.26-.95,41.28-20.87,63.45-18.62,17.06,1.73,30.2,16.18,46.75,20.67,13.33,3.62,27.41.44,41.19-.62,47.67-3.66,95.76,18.37,142.49,8.27,10.59-2.29,21.21-6.47,28.53-14.46,15.96-17.44,9.55-47.42-8.02-63.24-17.57-15.81-42.48-20.4-66.09-21.46-23.61-1.07-47.66.69-70.57-5.13-43.81-11.13-80.17-49.06-125.37-48.38-17.1.26-33.72,6.21-50.81,6.59-27.51.6-53.25-13.22-75.78-29.02-22.53-15.8-43.71-34.17-69.04-44.92-10.32-4.38-21.44-7.56-30.12-14.66-8.85-7.24-14.26-17.84-22.19-26.08Z"/>
  <path class="cls-2" d="M879.1,2605.65c-12.06-16.45-26.22-32.41-42.82-44.44-14.98-10.86-33.17-15.56-46.88-28.92,14.68,22.89,24.29,47.57,31.33,73.72,5.6,20.8,6.96,44.35,19.56,62.54,14.31,20.66,40.91,31.52,51.57,54.27,11.79,25.14.45,57.51,15.27,80.99,11.11,17.61,33.47,24.43,48.01,39.34,27.37,28.06,22.61,79.34,54.39,102.29,16.32,11.79,38.15,12.56,56.1,21.68,17.06,8.67,29.44,24.22,44.49,36.05,15.05,11.83,36.23,19.94,53.1,10.89,13.39-7.18,19.89-23.67,18.64-38.81-1.25-15.14-8.98-29.03-18.19-41.1-11.84-15.51-26.44-28.92-42.91-39.39-13.57-8.63-28.52-15.39-40.37-26.26-19.91-18.26-28.46-45.49-43.02-68.25-13.11-20.5-31.45-37.62-52.81-49.29-9.48-5.18-19.65-9.37-27.97-16.27-10.9-9.03-17.72-21.93-24.13-34.55-16.39-32.3-31.96-65.28-53.36-94.49Z"/>
  <path class="cls-2" d="M709.73,2472.12c-19.23-34.55-39.5-68.83-81.11-76.68,10.73,20.42,23.02,40.5,27.78,63.55,5.21,25.26-11.74,51.6,2.26,76.01,5.31,9.27,14.34,15.93,19.86,25.07,11.26,18.65,5.58,42.57-1.58,63.14-7.17,20.57-15.6,42.76-8.88,63.48,6.41,19.76,25.26,33.22,33.11,52.46,6.54,16.01,4.72,34.03,6.74,51.2,2.09,17.71,8.43,34.9,18.34,49.72,7.61,11.38,18.46,21.97,32.06,23.54,18.58,2.14,35.46-14.26,39.61-32.5,4.15-18.24-1.49-37.28-9.05-54.4-7.55-17.12-17.12-33.55-21.44-51.75-5.13-21.63-2.5-44.26-3.9-66.45-1.29-20.46-6.07-40.69-14.07-59.56-5.33-12.58-12.13-24.73-14.75-38.14-2.06-10.56-1.42-21.46-2.79-32.13-2.6-20.21-12.28-38.75-22.19-56.56Z"/>
  <path class="cls-2" d="M514.76,2321.44c-13.61-26.26-51.09-45.33-79.22-50.12,12.1,18.96,29.71,45.44,31.2,68.29.99,15.07-2.17,30.49,1.38,45.17,4.4,18.16,18.59,33.01,21.74,51.43,4.18,24.46-12.04,48.41-10.42,73.17,1.44,21.95,16.44,40.38,23.91,61.06,6.91,19.13,7.28,40.07,13.45,59.45,6.17,19.38,21.16,38.58,41.48,39.46,25.86,1.12,43.54-28.13,43.58-54.02.03-25.88-11.13-50.43-14.58-76.08-5.39-40.07,7.14-85.32-16.19-118.34-11.11-15.72-29.04-26.03-38.43-42.84-9.69-17.35-8.76-38.99-17.91-56.63Z"/>
  <path class="cls-2" d="M317.5,2284.85c7.52,9.01,11.98,20.73,21.38,27.77,15.86,11.87,41.06,6.87,54.55,21.38,8.88,9.54,9.19,23.97,13.65,36.21,4.95,13.58,15.2,24.66,20.57,38.08,5.37,13.42,3.52,32.07-9.67,37.98-15.56,6.97-31.08-8.35-44.22-19.22-14.84-12.28-33.23-20.22-52.35-22.6-11.43-1.42-23.58-1.05-33.62-6.69-22.31-12.53-21.51-45.97-39.1-64.56-17.37-18.37-40.42-12.92-61.77-20.39-30.41-10.64.47-30.46,18.74-39.86,30.94-15.93,88.14-16.45,111.83,11.9Z"/>
  <path class="cls-2" d="M154.4,2458.33c9.41-16.72,8.86-37.31,16.27-55,3.08-7.35,7.6-14.21,13.73-19.3,5.15-4.28,11.33-7.22,17.78-9.01,19.4-5.38,42.1.67,54.51,16.52,12.41,15.85,12.16,40.99-2.13,55.17-5.73,5.69-13.13,9.4-19.18,14.75-17.82,15.75-20.83,42.14-20.98,65.93-.07,9.91.1,20.14-3.6,29.33-2.61,6.49-7,12.08-10.83,17.93-6.28,9.6-31.49,68.95-22.6,77.84-16.97-16.82-35.09-36.23-35.41-60.12-.14-10.21,3.1-20.38,1.78-30.51-1.66-12.7-10.17-23.34-14.8-35.28-9.39-24.21,14.36-48.51,25.47-68.26Z"/>
  <path class="cls-2" d="M303.76,2678c-18.85,29.45-22.03,58.87-30.52,91.55-41.48-41.41-19.4-82.85-22.87-133.09-1.34-19.37-9.05-39.58-1.58-57.5,2.64-6.33,7.01-11.79,10.01-17.96,10.64-21.91,2.55-48.87,10.84-71.77,4.3-11.87,16.25-23.1,28.27-19.26,4.12,1.32,7.53,4.21,10.65,7.22,13.72,13.22,24.48,31.59,21.99,50.47-2.62,19.9-19.18,35.93-21.49,55.87-2.64,22.77,13.94,45.21,8.8,67.55-2.29,9.93-8.61,18.35-14.1,26.93Z"/>
  <path class="cls-2" d="M352.09,2706.77c-5.27-39.42,10.5-78.6,11.51-118.36.5-19.82-2.64-40.03,2.24-59.24,4.88-19.21,21.39-37.71,41.13-35.88,17.26,1.6,29.94,18.45,32.62,35.57,2.68,17.12-2.31,34.42-7.41,50.99s-10.43,33.69-8.43,50.9c2.27,19.49,13.84,38.04,10.85,57.43-2.22,14.41-12.08,26.23-19.49,38.78-19.08,32.31-22.04,70.6-21.16,107.29.38,16.01,9.64,47.59-11.93,33-15.31-10.36-25.44-44.39-27.59-61.44-1.84-14.6,2.49-27.39,4.03-41.76,2.15-20.05-3.73-37.62-6.36-57.28Z"/>
  <path class="cls-2" d="M475.02,2847.05c-.31-18.97-9.16-36.56-15.67-54.38-6.51-17.82-10.6-38.38-1.84-55.2,3.37-6.48,8.51-12.06,10.78-19,2.07-6.31,1.56-13.13,2.38-19.71,2.67-21.56,26.49-40.95,46.03-31.47,19,9.21,20.03,35.43,18.31,56.47-1.16,14.18-2.32,28.36-3.48,42.53-.76,9.22-1.4,19,2.86,27.21,2.69,5.18,7.16,9.32,9.49,14.67,4.03,9.23.87,20.11-4.27,28.78-5.14,8.67-12.16,16.17-16.72,25.15-18.35,36.15,8.48,75.74-1.65,112.39-17.65-7.07-35.27-26.86-43.11-44.32-13-28.97-2.63-53.58-3.11-83.13Z"/>
</svg>